<svg xmlns="http://www.w3.org/2000/svg" viewBox="0 0 76.44 98.18"><defs><style>.cls-1{isolation:isolate;}.cls-2{fill:#ffa200;}.cls-3{fill:#ff0;}.cls-4{fill:#ffe4d6;}.cls-5{opacity:0.1;mix-blend-mode:multiply;}.cls-6{opacity:0.5;mix-blend-mode:screen;}.cls-7{fill:#fff;}</style></defs><g class="cls-1"><g id="Image"><path class="cls-2" d="M119.58,93.84c-1.67.66-3.32,1.28-5,1.85a99.21,99.21,0,0,1-30,5.72l-1.78,0a84.56,84.56,0,0,1-32.19-6.12,292.44,292.44,0,0,1,13-36h0a57,57,0,0,0,20,2h0a60.87,60.87,0,0,0,17.54-4.12c1.44-.54,2.88-1.16,4.31-1.82h0A228.74,228.74,0,0,1,119.58,93.84Z" transform="translate(-46.84 -25.91)"/><path class="cls-3" d="M46.84,110.63c0-.17.07-.34.11-.51,1.07-4.93,2.32-9.88,3.72-14.81a89,89,0,0,0,32.19,6.12l1.78,0a94.72,94.72,0,0,0,30-5.68c1.66-.58,3.31-1.21,5-1.89,1.45,5.59,2.68,11.18,3.63,16.79C126,128.57,47.36,128.57,46.84,110.63Z" transform="translate(-46.84 -25.91)"/><path class="cls-4" d="M105.6,55.31h0c-1.44.63-2.89,1.22-4.33,1.76a67.86,67.86,0,0,1-17.52,4.18h0a52,52,0,0,1-20-2h0C70.52,39.91,77.27,27.47,83.9,26.09c.23,0,.46-.08.69-.1,4.85-1.17,12.09,9.9,20.9,29.12Z" transform="translate(-46.84 -25.91)"/><path class="cls-5" d="M46.84,110.63c0-.17.07-.34.11-.51,7.54,4.45,19.62,8.49,38.18,7.64,32.6-1.5,31.51-15.08,29.48-22a.06.06,0,0,0,0,0c-.38-1.3-.8-2.37-1-3.07-.71-2.23-5.85-19.14-12.31-35.48,0,0,0,0,0-.06-5.47-13.84-11.88-27.25-17.35-31,.23,0,.46-.08.69-.1,4.85-1.17,12.09,9.9,20.9,29.12l.11.2h0a228.74,228.74,0,0,1,14,38.52c1.45,5.59,2.68,11.18,3.63,16.79C126,128.57,47.36,128.57,46.84,110.63Z" transform="translate(-46.84 -25.91)"/><g class="cls-6"><path class="cls-7" d="M51.45,107.56q2.38-9.09,5.18-18t5.82-17.84l3.13-8.85c1.1-2.93,2.16-5.88,3.33-8.78s2.35-5.81,3.61-8.68c.67-1.42,1.28-2.86,2-4.25.36-.69.7-1.4,1.07-2.09l1.26-2-1,2.11L75,41.31c-.61,1.44-1.1,2.92-1.65,4.39-1.07,2.93-2.1,5.87-3.12,8.82l-6.1,17.72-6.18,17.7Q54.81,98.79,51.45,107.56Z" transform="translate(-46.84 -25.91)"/></g></g></g></svg>