<svg xmlns="http://www.w3.org/2000/svg" viewBox="0 0 800 800"><defs><style>.cls-1{isolation:isolate;}.cls-2{fill:#23b400;}.cls-3{fill:#8cc63f;}.cls-4{fill:#187d00;}.cls-5{fill:#ffa200;}.cls-6{fill:#ff0;}.cls-7{fill:#ffe4d6;}.cls-8{opacity:0.1;mix-blend-mode:multiply;}.cls-9{opacity:0.5;mix-blend-mode:screen;}.cls-10{fill:#fff;}</style></defs><g class="cls-1"><g id="Layer_1" data-name="Layer 1"><rect class="cls-2" x="11" y="11" width="778" height="460" rx="110.24"/><path class="cls-3" d="M678.76,22A99.35,99.35,0,0,1,778,121.24V360.76A99.35,99.35,0,0,1,678.76,460H121.24A99.35,99.35,0,0,1,22,360.76V121.24A99.35,99.35,0,0,1,121.24,22H678.76m0-22H121.24A121.24,121.24,0,0,0,0,121.24V360.76A121.24,121.24,0,0,0,121.24,482H678.76A121.24,121.24,0,0,0,800,360.76V121.24A121.24,121.24,0,0,0,678.76,0Z"/><rect class="cls-4" x="83" y="173.38" width="612" height="135.24" rx="20.73"/><path class="cls-3" d="M674.27,184.38a9.73,9.73,0,0,1,9.73,9.73v93.78a9.73,9.73,0,0,1-9.73,9.73H103.73A9.73,9.73,0,0,1,94,287.89V194.11a9.73,9.73,0,0,1,9.73-9.73H674.27m0-22H103.73A31.72,31.72,0,0,0,72,194.11v93.78a31.72,31.72,0,0,0,31.73,31.73H674.27A31.72,31.72,0,0,0,706,287.89V194.11a31.72,31.72,0,0,0-31.73-31.73Z"/><path class="cls-5" d="M283.63,436.64c.05-5.81,0-11.51-.21-17.18q-1.8-52.62-17.63-97.07c-.66-1.79-1.33-3.62-2-5.4a273.74,273.74,0,0,0-56-90,945.25,945.25,0,0,0-93.57,81.22l0,.06a184.48,184.48,0,0,1,29.29,58.11v0a196.9,196.9,0,0,1,8,57.73c0,5-.15,10-.48,15.12l0,.06A738.94,738.94,0,0,0,283.63,436.64Z"/><path class="cls-6" d="M249.59,197.59c-.47.32-.94.6-1.41.92-13.63,9-27.11,18.51-40.36,28.47,25,27.6,43.47,57.67,56,90,.68,1.78,1.35,3.61,2,5.4,11,30.41,16.85,62.8,17.76,97.05.18,5.69.2,11.4.08,17.2,18.56-2.14,36.86-4.93,54.9-8.6C395.94,415.63,304.33,178.26,249.59,197.59Z"/><path class="cls-7" d="M151.09,439.32h0l0-.06c.23-5.08.32-10.14.27-15.11-.2-20.21-2.63-39.52-7.79-57.74v0a168.18,168.18,0,0,0-29.29-58.11l0-.06c-50.49,43.2-80.16,78.06-76.61,99.67.15.74.3,1.48.5,2.2,2.12,16,44,24.95,112.21,29.15Z"/><path class="cls-8" d="M249.59,197.59c-.47.32-.94.6-1.41.92,22.21,17.57,48.47,49.32,67.52,106.32,33.43,100.12-8.81,112.64-32.15,114.61,0,0-.09,0-.13,0-4.37.36-8.09.34-10.45.49-7.56.46-64.57,4.64-121.4,4.18a1.41,1.41,0,0,0-.21,0c-48.13-.39-96.06-4.12-113.72-16.27.15.74.3,1.48.5,2.2,2.12,16,44,24.95,112.21,29.15l.74.1h0a738.94,738.94,0,0,0,132.51-2.67c18.56-2.14,36.86-4.93,54.9-8.6C395.94,415.63,304.33,178.26,249.59,197.59Z"/><g class="cls-9"><path class="cls-10" d="M245.67,215.07l-46.6,38.84c-15.53,13-31.09,25.86-46.51,38.94q-11.62,9.73-23.17,19.57l-23,19.79c-7.63,6.63-15.2,13.32-22.64,20.16-1.88,1.69-3.73,3.41-5.57,5.14s-3.66,3.48-5.47,5.25a112.55,112.55,0,0,0-10.26,11.13,102.11,102.11,0,0,1,9.93-11.46c1.77-1.81,3.54-3.62,5.35-5.39s3.6-3.55,5.44-5.29c7.33-7,14.81-13.79,22.33-20.55,15.09-13.47,30.49-26.6,45.91-39.68s31.07-25.9,46.78-38.64l23.62-19C229.77,227.57,237.67,221.26,245.67,215.07Z"/></g><path class="cls-5" d="M199.21,536c-4.87,3.16-9.6,6.34-14.22,9.64q-42.93,30.48-71.31,68.18c-1.13,1.54-2.28,3.1-3.39,4.65A273.57,273.57,0,0,0,66,714.79a945.77,945.77,0,0,0,119.33,33.37l0-.06a184.59,184.59,0,0,1,32.36-56.45l0,0a196.87,196.87,0,0,1,43.78-38.47c4.13-2.78,8.46-5.41,12.88-7.94l0-.05A739.5,739.5,0,0,0,199.21,536Z"/><path class="cls-6" d="M18.44,696.12c.52.21,1,.45,1.55.67,15,6.43,30.38,12.43,46,18,9.28-36,24.19-68,44.31-96.28,1.11-1.55,2.26-3.11,3.39-4.65,19.3-26,43.14-48.66,71.22-68.28,4.65-3.28,9.4-6.45,14.31-9.54-12-14.32-24.42-28-37.41-41.08C119.82,453.88-27.84,661.07,18.44,696.12Z"/><path class="cls-7" d="M274.46,645.19l0,0,0,.05c-4.36,2.61-8.63,5.32-12.76,8.1-16.75,11.3-31.53,24-43.9,38.31l0,0a168.24,168.24,0,0,0-32.36,56.45l0,.06c63.86,18.34,109.3,23.91,125.38,9,.54-.53,1.08-1.06,1.56-1.63,12.19-10.58-3.38-50.43-37.47-109.72Z"/><path class="cls-8" d="M18.44,696.12c.52.21,1,.45,1.55.67,2.43-28.22,14.47-67.62,51.55-114.91,65.14-83.06,98.87-54.69,113.36-36.3a.22.22,0,0,1,.09.1c2.71,3.44,4.74,6.56,6.17,8.45,4.54,6.06,39.44,51.34,70.35,99,0,.06.09.1.12.16,26.19,40.39,49.48,82.45,49.06,103.88.54-.53,1.08-1.06,1.56-1.63,12.19-10.58-3.38-50.43-37.47-109.72l-.32-.66,0,0A739.5,739.5,0,0,0,199.21,536c-12-14.32-24.42-28-37.41-41.08C119.82,453.88-27.84,661.07,18.44,696.12Z"/><g class="cls-9"><path class="cls-10" d="M35.19,689.77l58.09,17.5c19.36,5.82,38.71,11.7,58.11,17.37q14.54,4.32,29.1,8.55l29.17,8.28c9.73,2.71,19.49,5.35,29.3,7.79,2.44.63,4.9,1.24,7.36,1.81s4.92,1.15,7.38,1.68a113,113,0,0,0,14.95,2.44,101.71,101.71,0,0,1-15-2c-2.48-.47-5-1-7.44-1.49s-4.95-1.05-7.41-1.62c-9.86-2.28-19.67-4.77-29.45-7.33-19.56-5.17-39-10.79-58.41-16.46s-38.73-11.66-58-17.76L64,699.31C54.38,696.15,44.76,693,35.19,689.77Z"/></g><path class="cls-5" d="M543.19,647.32c1,3.14,2,6.2,3.16,9.22A181.63,181.63,0,0,0,573,705.74c.67.85,1.35,1.72,2,2.55a154.91,154.91,0,0,0,46.09,38.61,537.68,537.68,0,0,0,36.06-60.34l0,0a104.54,104.54,0,0,1-26.07-26.13v0a111.47,111.47,0,0,1-14.53-29.7c-.91-2.67-1.7-5.43-2.42-8.23l0,0A420.23,420.23,0,0,0,543.19,647.32Z"/><path class="cls-6" d="M603.86,770.14l.6-.75c5.76-7.24,11.34-14.77,16.71-22.49a163.17,163.17,0,0,1-46.09-38.61c-.69-.83-1.37-1.7-2-2.55a173.5,173.5,0,0,1-26.76-49.16c-1.11-3-2.13-6.11-3.09-9.26-9.63,4.44-19,9.19-28.07,14.36C486.38,678.53,577.78,790.25,603.86,770.14Z"/><path class="cls-7" d="M614.16,622.41h0l0,0c.77,2.77,1.62,5.52,2.53,8.19a123.88,123.88,0,0,0,14.42,29.74v0a95.47,95.47,0,0,0,26.07,26.13l0,0c19.56-32.22,29.39-56.26,23.64-67.28-.21-.38-.42-.75-.66-1.1-4-8.25-28.11-5.67-65.64,4.15Z"/><path class="cls-8" d="M603.86,770.14l.6-.75c-15.08-5.53-34.86-18-55.22-45.34-35.75-48-15.19-62.28-3-67.47a.12.12,0,0,1,.07,0c2.28-1,4.29-1.61,5.54-2.11,4-1.59,34-13.93,64.7-23.75l.11,0c26-8.31,52.5-14.79,64.17-11.36-.21-.38-.42-.75-.66-1.1-4-8.25-28.11-5.67-65.64,4.15l-.41.08h0a420.23,420.23,0,0,0-70.95,24.9c-9.63,4.44-19,9.19-28.07,14.36C486.38,678.53,577.78,790.25,603.86,770.14Z"/><g class="cls-9"><path class="cls-10" d="M602.88,760l9-14.7,9-14.64L639,701.42q9.06-14.62,18-29.33c3-4.91,5.89-9.84,8.72-14.82,1.44-2.48,2.84-5,4.18-7.51A65.44,65.44,0,0,0,673.5,642a56.27,56.27,0,0,1-3.24,8c-1.23,2.6-2.51,5.16-3.84,7.71-2.69,5.08-5.49,10.09-8.32,15.09-5.68,10-11.63,19.79-17.65,29.56S628.28,721.79,622,731.4l-9.46,14.39C609.34,750.54,606.17,755.32,602.88,760Z"/></g><path class="cls-5" d="M714.23,295.86c-6.68.39-13.24.88-19.75,1.56q-60.39,6.09-110.31,27.72c-2,.89-4.06,1.8-6,2.73a315.26,315.26,0,0,0-99.26,71.27,1090.08,1090.08,0,0,0,100.6,101.42l.07,0a212.94,212.94,0,0,1,64.6-38.15h0A226.53,226.53,0,0,1,710,448.75c5.72-.44,11.56-.61,17.44-.62l.06,0C727.44,395.64,723.13,344.85,714.23,295.86Z"/><path class="cls-6" d="M441.84,353.34c.4.51.77,1,1.17,1.55,11.37,15,23.37,29.77,35.85,44.25,29.84-30.84,63-54.43,99.26-71.27,2-.93,4-1.84,6-2.73,34.13-15,71-24.2,110.28-27.87,6.53-.64,13.1-1.11,19.78-1.41-3.87-21.19-8.5-42-14.1-62.49C681.46,168.28,415.41,291.85,441.84,353.34Z"/><path class="cls-7" d="M727.48,448.13l0,0-.06,0c-5.86.13-11.7.41-17.41.85-23.23,1.78-45.26,6-65.83,13.39h0a193.83,193.83,0,0,0-64.6,38.15l-.07,0C633,555.33,675.4,586.8,700,581.05c.84-.23,1.68-.45,2.49-.75,18.24-3.66,25.34-52.47,24.94-131.32Z"/><path class="cls-8" d="M441.84,353.34c.4.51.77,1,1.17,1.55,18.51-26.89,53-59.53,117.13-85.82,112.62-46.14,130.26,1.51,134.31,28.2a.2.2,0,0,1,0,.15c.76,5,1,9.28,1.38,12,1.1,8.66,10.28,73.92,14.1,139.34,0,.08,0,.15,0,.23,3.24,55.4,2.62,110.83-10,132.07.84-.23,1.68-.45,2.49-.75,18.24-3.66,25.34-52.47,24.94-131.32l.06-.85,0,0c0-52.46-4.33-103.25-13.23-152.24-3.87-21.19-8.5-42-14.1-62.49C681.46,168.28,415.41,291.85,441.84,353.34Z"/><g class="cls-9"><path class="cls-10" d="M462.25,356.52l48.18,50.7c16.08,16.88,32.12,33.79,48.34,50.54q12.11,12.62,24.3,25.14c8.13,8.35,16.34,16.61,24.54,24.9s16.51,16.45,24.95,24.47q3.15,3,6.36,6c2.12,2,4.28,3.94,6.46,5.88A128.77,128.77,0,0,0,659,555.09a119,119,0,0,1-13.92-10.59c-2.21-1.89-4.43-3.79-6.59-5.74s-4.36-3.88-6.5-5.86c-8.58-7.91-17-16-25.32-24.15-16.64-16.34-32.92-33-49.14-49.79s-32.19-33.75-48.06-50.83l-23.73-25.69C477.88,373.82,470,365.22,462.25,356.52Z"/></g><path class="cls-5" d="M596.15,420c-9.34-3.69-18.57-7.16-27.85-10.34q-86-29.88-167.58-32c-3.3-.05-6.65-.11-10-.11q-92.88-.68-180,34.23C229.85,479,254.4,546.15,283.49,613.33h.11a319,319,0,0,1,112-11.08h.05c33,2.58,65.73,10.35,98.11,23,8.06,3,16.11,6.49,24.11,10.18H518C551.07,564.11,577.31,492.29,596.15,420Z"/><path class="cls-6" d="M189.3,326.11c.22.95.39,1.9.61,2.85,6,27.58,13,55.27,20.81,82.84,60.07-23.1,120.09-34.23,180-34.23,3.3,0,6.65.06,10,.11,55.94,1.12,111.81,11.92,167.64,31.77,9.28,3.25,18.51,6.77,27.79,10.57,8.11-31.26,15-62.53,20.31-93.91C632.18,225.77,192.21,225.77,189.3,326.11Z"/><path class="cls-7" d="M518,635.53v0h-.11c-8.06-3.53-16.17-6.83-24.22-9.85-32.72-12.25-65.39-20.36-98-23.38h-.05a290.73,290.73,0,0,0-112,11.08h-.11c38.26,108.34,76,177.92,113.1,185.64,1.28.22,2.57.45,3.85.56,27.13,6.54,67.63-55.38,116.9-162.88Z"/><path class="cls-8" d="M189.3,326.11c.22.95.39,1.9.61,2.85,42.18-24.89,109.74-47.48,213.56-42.73,182.34,8.39,176.24,84.35,164.89,123.22a.33.33,0,0,1-.06.23c-2.13,7.27-4.48,13.25-5.71,17.17-4,12.47-32.72,107-68.85,198.45-.05.11-.05.22-.11.33C463,703,427.18,778.05,396.59,799c1.28.22,2.57.45,3.85.56,27.13,6.54,67.63-55.38,116.9-162.88l.62-1.12v0c33.11-71.37,59.35-143.19,78.19-215.46,8.11-31.26,15-62.53,20.31-93.91C632.18,225.77,192.21,225.77,189.3,326.11Z"/><g class="cls-9"><path class="cls-10" d="M215.05,343.33l16.57,49.77,16.62,49.74C259.38,476,270.53,509.13,282,542.17q8.5,24.8,17.21,49.54c5.81,16.49,11.75,32.93,17.7,49.36s12.14,32.79,18.6,49l2.41,6.1,2.49,6.06c.84,2,1.64,4,2.51,6l2.6,6c3.56,8,7.06,16,11.73,23.42-4.79-7.33-8.42-15.33-12.12-23.25l-2.7-6c-.9-2-1.74-4-2.61-6l-2.59-6-2.51-6.06c-6.62-16.19-12.9-32.52-19.06-48.88-12.25-32.77-23.84-65.76-35.3-98.81q-17-49.64-33.35-99.47l-16.17-49.9Z"/></g></g></g></svg>