<svg id="Layer_1" data-name="Layer 1" xmlns="http://www.w3.org/2000/svg" xmlns:xlink="http://www.w3.org/1999/xlink" height="1200px" viewBox="0 0 175 1200"><defs><style>.cls-1{fill:url(#linear-gradient);}.cls-2{fill:url(#linear-gradient-2);}</style><linearGradient id="linear-gradient" x1="13.48" y1="600" x2="158.66" y2="600" gradientUnits="userSpaceOnUse"><stop offset="0" stop-color="#c7b299"/><stop offset="1" stop-color="#8a7b6a"/></linearGradient><linearGradient id="linear-gradient-2" x1="-12.14" y1="600" x2="183.29" y2="600" gradientUnits="userSpaceOnUse"><stop offset="0.01" stop-color="#bd99c7"/><stop offset="1" stop-color="#836a8a"/></linearGradient></defs><path class="cls-1" d="M134.52,140h-94a18,18,0,0,1-18-18V28a18,18,0,0,1,18-18h94a18,18,0,0,1,18,18v94A18,18,0,0,1,134.52,140Zm18,132V178a18,18,0,0,0-18-18h-94a18,18,0,0,0-18,18v94a18,18,0,0,0,18,18h94A18,18,0,0,0,152.5,272Zm0,150V328a18,18,0,0,0-18-18h-94a18,18,0,0,0-18,18v94a18,18,0,0,0,18,18h94A18,18,0,0,0,152.5,422Zm0,150V478a18,18,0,0,0-18-18h-94a18,18,0,0,0-18,18v94a18,18,0,0,0,18,18h94A18,18,0,0,0,152.5,572Zm0,150V628a18,18,0,0,0-18-18h-94a18,18,0,0,0-18,18v94a18,18,0,0,0,18,18h94A18,18,0,0,0,152.5,722Zm0,150V778a18,18,0,0,0-18-18h-94a18,18,0,0,0-18,18v94a18,18,0,0,0,18,18h94A18,18,0,0,0,152.5,872Zm0,150V928a18,18,0,0,0-18-18h-94a18,18,0,0,0-18,18v94a18,18,0,0,0,18,18h94A18,18,0,0,0,152.5,1022Zm0,150v-94a18,18,0,0,0-18-18h-94a18,18,0,0,0-18,18v94a18,18,0,0,0,18,18h94A18,18,0,0,0,152.5,1172Z"/><rect class="cls-2" width="175" height="1200"/></svg>