<svg id="Layer_1" data-name="Layer 1" xmlns="http://www.w3.org/2000/svg" viewBox="0 0 600 400"><defs><style>.cls-1{fill:red;}</style></defs><path class="cls-1" d="M112,285l-2.68-1.22,1.85-.94-1.64-4.44,3.81-2-.4-1.69.77-2.46,1.75-.33,2-1.82.19-2.19,1.38-2.59-.44-5.35-.09-6.81,2.75-6.38,1.88-4.36-2.27-3.87,3.67-7.59,1.3-3.16.75-.85-.42-3.05-1.72-4.31,2.28-1.84,2.86.37,1.28-3.93,1.59-.2.65-2.84,2-1-.38-2.85,2.8,1.08.7,2.84-2.68,4.53-2.65,4.66.3,1.86,2.1.1,6.18,3,.36,3.56-1.19,5.63,2.09,4.65-2.44,3.06-1.21,6.35,4.14,8.4-2.78,8.59,2.92.27-1.57.91,1.23.51,2,1.73-2.68,1.92.58,1.89-1.06.68-1.63.54,1.86,4.39-.76,10.22L142,292l.41,4.85L141.36,300l.3,1.31-2.5,2.78.54,3.91-2.44,3.52.14,3.59-.9.25,1.27-.1-2.63-1.88-.21-2.16,1-2,1-1.47-.69-1.4,1.56-6.34.26-6.84-2.57-2.4L133.82,288l2.91-2.39-.31-2.11,1.62-6.92-3,1,.71.47-3-1.28-.71.6-1.71,2.92-2.19-1-.61,3.66L124,284.23l-2.38.83-1.44,2.27-1.45-1.46,2.19,2.44-.68,3.31-.86,5.11-1,2.21-2,3.87-.82,2.28.74,3.47L115,310.51l-.9,2.82.5,2.72L113,319.29l-.33,2-1.69.41,1.06-1.82-.44-1.66-.44-4.15-2.13-5.63,4-5.7L112.3,299l1.78-1.52-2.45-3.67.47-3.9,1.16-.78-.92,2.06-.11-2.4-2.82-1.24,1.53-1.16Zm13.15-12.75,1.67-3.16,3.46.89.7-1.59,2.56,2.09,1.23-2.14-1-.85,1.24-.17,1.55-3-.14-3,.89-3.61-1.83-3.13-1-3,1.49-3,1.14-2.3-3.17-.55,1.26-1.86-.64-2.4,0-2.53-.9-2.93-2.71,2.26.59,1.49-4.67,6.07-.33,2.31L124,252.74l.07,7-3.36,9.18,2.52,1.4.48.74v0l-1,1.23,1.56,1.6Z"/><path class="cls-1" d="M158.21,272.69l1.63,4.17,3,6.19,2.92,4.39,2.51,4.53,3.2,1.6,1.92,4.05,3.85,1.56,1.13,3.73,1.31,3,4,1.77-1.09,4.49L184.4,318l-.25,2-1.28-.2.61-1.71-1.35-1.66-4.17.7-4.53-3.66-2.34-3.7-3.36-2.94.32-3.63-4.38-1L161.42,299l-1-2.82-1.35-6.22-4.23-1.82,3,3.41-2.64,8.32-.17,6-1.29,5.92-.89,1.61-.09,1.67-1.28-2.72L150,308.75l1.9-7.58-1-8.58,1.41-3.42-1-2.91L149,281.05l-1.51-3.84.7-2.83L148,271.6l2.76-2.51.16-.51-.7-1.78,3.61-1.54-3.46-1.56,2.81-6.6-2.2-6.67,1.42-1.56,1.5-2.89-3.06-2.35,3.29-2.2-1-2.52-.36-1.74.57-2.61-2.76-2.7,1.84-2.84,1-2.68-.06-4.61.6-5,3-2.41,2.15-3.64,1.91,2,1.95.68,3,.69,1.4.48,1.13.76,2.62,0,.18.7-.24,3,2.82-1.53,1,.79,1.48,1.37,1.9,4,2.31,3.85.65,5.54-.19,4.84,2.6,2.12-1.56,2.92.36,5.18-5.05,4.27-2.2,4.94-2.5,2.86-1.9.1-1.93,1.5-2.79,3.61-3.88,6.58ZM156.53,239l1.07-2.4,1-.29.07,1.13.09,2.48,1.66,2.32L159.27,247l1.25,8.88-1.93,5.42-1,2.37,2.06.13-.9,1.66,6.83-8.52.57-.49,1.43.23,1.91-.45,4.49-5.52-.71-5.88.37-3.74-.57-4.93-5.33-3.93-3.73-5L159.7,229l-2.28.6-1.66,3.76-2.21,3.92Z"/><path class="cls-1" d="M189.22,241.94l.19-3.4.14-.58-2.47-5.89,1.42-1.29,1.56-1.37-1.7-1.15-.46-.84-.24-8.37.86-2.7,3.06-2.19.82-2.91,1.55-1.66.43-1.19,1.4,1.92.45-.64.82,3.32-2.17,3.1,1.77,3.43-2.14,3.34,2.78,8.21,1.85,8,.92,9.08,2.79,8.73,1.23,2.65,4.18-1.45L212,247.9l6.18-8.17,2.11-8.13,1.09-6,3.8-3.93.07-1.59.51-1.45-.89,3.37,3.83,5.44,0,7L226.84,240l.84,5.76L225,251.55l0,6.19-3.87,5.05,2.08,4.38.52,2.41-1.94,3.09-2.08,3.24-.65,3.65-.06,4.79,3.12,1.45L220,287.35l-2,7-1.54,7,1,1.57.25,2.07-1,2.54-3.85.57,1-.14.94.78-2.31-.49-.56-1.21.41-6.9,2-5.53.72-5.65,1.48-7.67-.75-8.9,2.74-8.58-.92-4.53-.17-6.1,1.38-2.86,1-1.84-1.54-.86.05,1.28-.23-.35L214.59,251l2.12,3.87L212.06,256l1.46,5.48-5.82,3.71-.63.91-.31,2.37-1.91,4-3.14-.24-4.24.54-3.08-6.28.55-4.44.06-4.62-2.29.4L191.19,264l-.6,7.91-.78,7.89-.38,8.42,2.36,8.63-4.2,7.72-.2,3.31.32,1.52L186,308.7l-1.58,1.07-.79,1.87,2.12-1.2-1.09-2.77.85-2.79.44-4.17-1.27-8.19-.34-2.76,3.09-2.69-2.91-1.37,2.58-1.57-2.63-5.91,2.69-5.68,0-5.94.52-6-.29-3.26,1.08-6.31Z"/><path class="cls-1" d="M226.49,285l.8-1.32-1.42-.83,1-4,.75-2.86,1.32-.26,1.68-1.23-1.51-3.27,2.15-1.23,1.26-2.16,1.51-2.55-2.14-5.63,2-6.46,3.81-6.23-1.78-5,.13-3.4,3.06-7.81,1.7-3,1.46-1L240,223.8l1.22-2.76,1.85.34,2.19-3.14,1.45-3.6-.37-1.57-.74-3.61L248,208.1l1.69,2.49,1.65-1.57.81,2.18-1,4.7-2.23,4.49,3.29.41-2.63,2.27,6.92,2.29-3.06,4.08,3.55,5-2.73,5,.27,2.77.5,6.38,3.95,8.4-4.7,8.54,4.29.28-1.37-1.24.78,2.76.25,1.69.46,2.27-3.09-.49.06,1.89,1.14,1.23-.42,4.51,1.26,10.3-.12,3.3-2.7,4.49-.48,3.23-.33,1.9,2.14,2.52L254.7,308l-.91,3.75,1,4.75-3.34,1.75.39-2.72-3.56-2.15,2.51-2.07-.39-2.1L249.16,308l2.35-1.64-2.1-6.5,0-6.48,3.45-2.67-.41-2.66-.06-2.36.22-2.23-2.53-6.61-.49,1.63,1-.67-2.42-.6-.82,1.12-2,2-1.89-.54-2.86.3-1.17,4.7-3.63-1-.66,3.49-1-1.27,1.82,2.26L232.4,291l-2,4.81,3.57,3.2-3.38,3.65,1.82,2.8-.91,3.11-1.14,2,.37,3,.59,2.84-2.59,3.07-1.46,1.37H226l-2.07.39,2.93-3-1-4.18-1.52-5.56,1.11-6.14.13-3.48L226,297l.27-3.21.15-3.85,1.62.27-1.09-.56.75-1-3-1.07,3.09-.93Zm13.64-13.23,2.94,0,2.24-2.1,1,1,1.82-1,2.13-.07,1.14-.9-2.94-1.4,1.83-3,.91-3,1.05-3.6-3.57-3,1.12-3.05,2.56-3.09-2.59-2.21-.73-.6.65-1.67-.23-2.52.68-2.78-2.42-1.9-1.85-.85-3.11,2.53-1.64,7.24-.6,2.14-.11,5.08,1.6,7.33-3.5,9.36-3.58.43,2.45.91.41.5-.1.13,1.39,1.23Z"/><path class="cls-1" d="M290,214.28l2.82-.52-.19,3.93,2.14.32,2.45,3.31,2,3.38-2.06,4.75,3.06,4,1.74,4.84L298,244.63l-3.35,2.82-2.4.41.31-3.09-.92-4.88.06-6.11-3.58-5-2.51-6.14-3,1.53-2.53,2.7-2.39,2.32.61,5.86.61,1.56-3.27.73-1,2.86-.55,4.09,1.62,3.94-1.87,2.9-3.7.36-.22,2.2,2.81,4.09-4,3.79,4,6.6-4.61,5.92.88,6,3.08,6,.7,6-3.15,4.73L271,299.4l4-.65.94,2.86,3.87-.47.74-4.64,4-1.2,1.29-6.27,2.34-.86-2.06-3.9,4.6-2.52-2.47-4.93,2.07-3.7,3.58.7,3,.79-.75,4.28.9,2.47-.47,2.36-1.3,3.11-.86,4.49-1.29,5.55,3.76,5.2-4.35,7.17.15,8,1.63,2.49-3.53,3.55,1.67,2.89-1.34,1.72-.75,1.15L287,329l2,3.68-2.1,1.85-2.69-1.76.62-3.42.41-2.32,2.08-3.72,1.24-3.11-2.39-4.86,1.5-4.46,2-7.67-2.19-4.64,0-2-1.53.22,2.48-.22-2.55,2.73-2.75,5.52-2.87,2.44-1.93,4.62L273.5,314l-1.49-2.3-.83,1.84-3.39-1.2-2.36-2.72-2.22-3.73-1.42-5.18,2.22-4-2.65-6.48,3.3-3.7.38-4.26-1.14-10.86-1.78-8.33,1.42-8.09,3.9-7.49.28-6.75,2.89-6L272,228l2.55-4.41,3.06-1.22,3.27-1.26,2.31-2.11-.55-3.2,2.15-1,3.53.17,1.2-.88Z"/><path class="cls-1" d="M329.73,292l2.74,6.17-.4,1.93-3.19,0-1.5,1.8-2.51,2.33-.13,3.65-1.77-.19-2.45-.34-2.35,4-3,.75-2.2.76-2.45.7-2.07-.27-.83.62-1.26-1.26-2.43,1.46,1.4-2-.4-2.82-.82-.69-3,.35,1.2-3.82,1.47-3.55-1-6.55.68-1.28-2.19-1.7-.33-1.23.07-.94,2.26-6.82-1.43-9.86,1.9-7.48-.76-6.5,1.75-8-.3-8.14,3.66-7.68-.66-4.28-.07-4.59,3.76.62-2.9-2.68,1-2.27,1.25-1.08,1.55-1.35,2.51-.21-.55-3,3.12-3.09,3.48-1.55,1.69-.19,1.86.22,1.24-.47.9-.26.07.5.68-1.64,1.22-.35.68,3,1.44-3.74v4.83l1.7,3.31-1.32,7.08-.28,4.46-.65-4.19L322.91,223l-2.7,3.67L320,227l-2.21.34-.84-1.69-1.49,2.09L314,233.08l-2.16,1.64,2.94,2.79-2.64,9.84-.14,8,.65,3.39-.47,1.28-1.8,1.11,1,1.19-.08,1.11.7-3.24,2.32-3.22,2.18.22,2.45-.23,1.38.06,3.56-2,1.15,1,2-2.78,1.36,1.6-.54,2.37,1.35,2-.8,6.44-.74,1.75-2.48-.76-5,.41-5.24.43-3.91,5.16-3.55,6.69,1.22,3-.47,4.74.18,2.15L306.6,295l2.55,4.94.11.39-1.63.84,3,.65,1.16.43,2.12-2.48,2.38.3,2.13-.11,1.86-3.35,2.76,2.85,1.47-2.73,2.93-.24,1.22-2.49.68-1.15Z"/><path class="cls-1" d="M367.46,292.05l2.68,6.1-1.95,3.18L365,303.22l-1.23.28-1.47.53-2.39,1.53-4.34-.75-4.64,7.47-4.54,2.41,1.56,2.95-4.5.5-4.37.17-1.72.58,1.86-3.05L337,313.48l4-1.88-1.9-4.43,3.11-1.32,4.44,1.3-1.55-3.82,3.4.51,1.59-2.63,2.1-3.59,1.39-5,2.17-1.71-.31-2.15.09-1.85,2.11-4,3.09-5.66-1.37-1.71,2.55-.63,1.66-5.41-.16-8.37-3.79-6.5L357.52,247l-2.74-6.08-3.72-3.85-.56-4.48-2.23-.3-2.17,9.24-.26,7.75-1.71,7.58L342.55,265l1.65,8.45-3.46,8.17,2.25,3.82-.77,7.07-2.48,6.89-1.14,7.68-2.56.23.57.59.27-2.22-.67-4.14.41-1.25-1.64-9.5-.55-9.56,2-9.93,1.13-8.6-1-3.63,1.63-3.34-.3-4.66-.18-5.37.22-2.9.42-2.33-.77-3.59,3.38-2.6,2-2.84-.7-2.25,3.09-.24-3.39.46-.53,0-.72-1.81-2.1.27-3-3-1-2.47.78-2-.83-2.93,1.76-2.7-1.76-1.12,1.09-.49-.73-.47L337,211l.69,1.56.29-2.41,2.28,1.31v2.23l1.36.67,1.17,2.07,2-.61,1-2,1.43.13-.39,4.12,2.55-1.8,1.28.82,5.07,9.16,5.9,5.9,1.82,5.61,1.41,5.56,1.95,5.72-.3,6,2.86,7.39-2.73,7L363,275.88l-1.84,6-.63,6.49-.91,6.56-3.38,5.42,1.45.08,1.26-2.46,4.55-2.82,4.29.18Z"/><path class="cls-1" d="M404.55,292.08l2.06,6-2.41,2-2,3.33-1.09.51-1.3,1.78-2.78.15-4.9-1.62L389,313.18l-4.51,2.66,0,1.33-3.65,1.75-4.65-.5-1.1.11-1.38-2.43-.16-2.87,1.47-2.78,3.21-1.68,1.11-2.88,2.59-1,3,.84L383.66,302l2.36-1.59.85-4.12,4.14-3.55-.86-2.8,3.38-.84-.4-2,1.75-4.18-.09-6.72,2.74-.25-.08-1.79.91-4.93-.37-8.13.42-6.91L395,246.84l-4.42-5-1.23-6-3.84-1.24-3.21-4.05-.24,10.87,1.69,8-1,7.67L379.55,265l1.19,8.41-3.83,8.17,2.67,3.81-1.46,7-1.45,7-1.42,7.52-2.07,4-2.28-2.21.44-3.17,2.27-4-2.3-1.32.53-9.46-.56-9.56,1.23-10,.88-8.48,3-3.82-3.19-3.4,3.66-4.35-2-5.46.65-2.83,2.41-2.12-2.81-3.83,2.54-2.89,1.2-3.68.2-1.57-.27.17.34.52-.35-.74-.81-1.2-.13-1.8L375,222.64l-1-1.43-1.24-.77,1.3-3-3.1-2.14,2.18-1.6-1-.86.61-2.17,1.48.74,1.18,1.88.42-.49.72,1.42L379,212l-.46,2.71,1.85.48,1.59.71.94-2,1.09.64,1,1,.53,2.87,1.67-.59,8.12,6.43,4.42,7.4,3.21,5.2,2,5.8-.55,6.39-.26,6.07,1.72,7.32-1.21,7.2-1.88,7-1.5,6.26L398,288.49l-.64,6.7-5.13,4.73,2.33,0,1.3-2.47,4.75-2.42,2.74-1.45Z"/><path class="cls-1" d="M409.64,265.61l-1.4-2.26.89-3,.95-3.44,0-1.63.77-2.05,2.18-2.52-.59-3.8-.19-7.15,1.55-2.64.93-3.78,1.68-3.69-.1-5.24,3.14-4.65,1.83-4.1-.12,2.22.87,1,1.25,5.19-1.33,3.63-.85,1.59.77-2.5,1.41-4.22,4-1.73-.12-3.56,1.7,0,1.88-.33,1.89-.3-.34-3.21-.14,3,2.35,1.12,2.94-1.44,1.17,1.88.3,2.18,4.33,4.53L442,234.14l3,8.26,1.68,7.85-2.26,6.91,1.47,7.08-3.07,6.56L440.71,278l-1,7.7.63,2.1-4.31.71,2.66,1.31-2.43,1,.46,2.58-2.33,5.2-2.74,5-3.29,5.48-5,.73-.85,2.9-2.79.56-2.88-2.39-3.85.55-.46-1.31,1.44-3.3-3.56-2.31-.6-6.59.57-5.79.1-5.11-2-2.53.28-2.33,1.37-2.89-.47-4.2-.36-4.34,1.73-.44-2.79,1.33.36,1,0,1,1-1.45-1.51-1.32.7-2.48Zm21-36.62-1.77,2.1-1.9,1.17-3.48,3.26-.37,1.3-1.22,2-3.13,3.5,0,7.26.67,6.54L418,262.44l-.43,5.67-1.34,5.64,1,9.74L416,290.4l2,6.64,4.28,5.76,3.49-2.16,2.1-5.63,3.42-4.5,3.57-4.41.13-4.55,1.52-9,3.93-7.83L438.18,256l.34-4.31.89-3.07.62-1.91-3-.33,1.84-6.54-2.49-5.8Z"/><path class="cls-1" d="M456.39,233.43l-.15-4.74-2.93-2.92.19-3,1.46-2.05,2.19,1.06,1.82.76.21-4,.71,3,.93.92,1-1,2.3-1.76L462,216.25l2.57-.65-.32,2.87,1.5-.71,1.67,1-.5,1.73-2.35,2.89.21,3.74-.75,2.13-2.78,2.53.61,3,3.72,3.94,0,7.23.78,6.09,2.22,5.82-.68,7,2.66,6.38.73,6.26.31,6.37,1.22,9.54,3,1.52,1.27.34.71-2.77-.42-1.81L475,287.76l1.09-4.22.13-6.6,1.24-4.73L479,266.9l.31-5.63-.2-5.64.08-2-1.4-3.06.56-2.78,2.2-2-2.12-4.83.93-5,1.64-8.77-1-6.47,3.62-3.22-1.41-5.47,2.82-3.18.89,2.72,1.12-2-1.69,1.11.15,2.39,1.62,2.74-3,2.78,3.78,2.72-.59,3.83-.43,3.74-3.46,7.43,3.14,6.87-3.8,6.55,2.21,6.8-.63,6.66-1,7.31-.39,7.33-1.68,5.82-.37,6,2.37,7.4-4.21,7.9-.21,3.84-1.15,3.61-3.73.76-2.12-3.67-2.66-8.7.1-9.27-1-4.9-.41-1.67-4.35-1.57.83-8.42-2.9-5.14-1.16-5.59.1-3.21-2.19-2.23.69-.8,1,3.86-.66,5.18-.26,3.57-1.22,9-3,10.26-.51,3.86-1.67,3.93.71,2.68,1.19,4.38-2.11,3.83-2.58,5.32,2,3.41-2.86-.32-.41.84-.58.54-.32-.5-1.24-2.6-.63-3.31,2.94-5.23,1.84-5.72-.07-2.76.63-4.54L449.72,287l.3-2.34.17-3.3.23-7.82,1-8.81,2.4-8.71-1-7.6-.86-7.59Z"/><path d="M113.49,290.22l-.51-1.17,1.28-.94,3.35-3.67-.27-2.7.17-1,2-.85-1.66-3.45,2.33-1.23,1.4-2.08,1.24-2.62L121.29,265l2.31-6.43-1.21-7,2.61-4.33.29-3.37,3.47-7.54,1.3-3.25-1.1-.52L126.05,229l4.11-2.5,1.57-.12-.3-3.48,3.39-3.34L136,219l1.72-2.11.62-2,.14.93-.46-.34,4.36,1-4,4.27-1.4,4.91,3.26.67L138,228.7l4.87,4.3,1.35,1.4,1.67,5.32-1.8,4.92,3.05,3.07-.15,6.1.09,8.46-2.38,8.62,1,.68,0,.25,2.69-.09.17,2.56-3.35,1.63.23,1-1.22.85.14,1.53.74,4.4-1.25,10.14,2.76,3.47-2,4.6-1,3.17.13,1.74-2,2.55,3,4.08-3.17,3.44.69,4.07-1.86,1.73-2.51-1,3.2-3-1.71-2.09,1.21-2.07-.25-1.43,0-1.44.53-6.38,0-6.75-2.73-2.42.68-2.83-1.27-3,2.18-1.56,1.8-6.87L140,280.53l-.91,2.2-1.39.59-1.41.82-3.13-1.48-1.7,1.15L130,286.26l-3.4,1.81-.57,3.28-2.09,1.11L122.21,291l1.48,2.44-1.5,3-1.55,4.94,1.26,2.73.12,4.22-.57,2.43-2.84,2.81-1.42,2,.27,2.89,0,2.58.52,3.74-2.63.51-.56-.44-.72,1,1.37-2.43-2.14-4.31-.41-5.47,1.52-6.08-.1-3.51,2.56-1.52.23-3.21,1.46-4.18-1.43-1.35-1.38.83,1.37-1-2-.88,1.74-.9Zm15.43-15,1.62-1,3.62.32,1.23,3.41,2-2,1.53-1.29,1.45-.56-3.16-1.5,2-3,1.07-3,.76-3.62-3-3.08,1.41-3-2.5-2.83,1.85-2.48-.59-.74,1.09-1.81-.67-2.41-1.83-1.88-2.37-.77.15-2.94-2.79,2.87.69,7.53-2.51,1.95-2,4.65-1.2,6.72-1.68,9.59-1.44,1v.91l4.11-.16-1.38,2.33,1.5.32Z"/><path d="M163.81,278l.12,4,3.06,6.09,4.42,3.31,2.68,4.48,1,3,2.58,3.63.64,3.88,4.57,1.15,1,3.37,2.1,3.23-.22,3.45.07,5.5-.28,1.46,1.07.56-.46-.64-2.37-1-.34-3-6.16-1.85-1.36-4.45-4.66-1.93L170,309.88l-.36-4.42-2.46-2.71-3.43-1.07-1.19-6.29-3.86-1.91-.89,2.89.92,8.72L157.4,311l-2.09,5.9,2.11,2.07-.95,1.48-.33-3.37L152.83,314l2.47-7.59-2.61-8.79,3.78-3.17-2.9-2.93-.74-5.29.84-3.77.62-2.33-2.63-3.33,2-3.12,2.28.33,1.87-1.95-3-1.54L155,269l.06-6.64L154,255.7l1.52-1.56-1.74-2.7,3.86-2.44-3.93-1.91.74-2.52-.72-2.13,2.64-2.64-2.4-2.67,2.61-2.86.43-2.66-1.74-5.09,1.57-5,2.89-3.16,3.13-1.42,2,.56,1.88,1.2,3.62-.54,1,1-.09,2.52,2.31.33.83.36,2-.75,1.3,1-.59,2.63,1.77,1,1,4.11,3.61,2.78.63,5.34,2,4.63-.22,2,1.38,3.09-3.48,4.09-2.34,5.5-1.59,5.53-4.05,1.29-1.57.71-.36,2.84-2.61,4L166,277.25ZM158.92,243l2.12-1.37,1.28-.57,2.26.87.39,3.22-.91,2.32-.34,4.91L161,261l2.35,5.74-1.43,2.3-.15.84,1.12,1.29,7.87-7.06.63-.37,0-1.74.64-1.26,3.6-6.29,3.94-3.44-1.92-4.6.44-5.66-6.66-3-4.49-3.09-3.46-3.4-4.27,2.08.81,5.27-2.38,3.87Z"/><path d="M190.12,247l.59-2.83,2.51-1-2.44-5.88,1.72-1.24L192,235l-1.77-.88.2-1.5,3.7-8.13-1.23-2.57,2.86-2.18.64-3,2.11-.69.27-2.1.73-.79-.3,2,2.9,3.11-3,3.17,2,3.36-1.46,3.31-.16,8.26-.17,8.44,1.93,9.11,3.76,9,2.79,5.09,4.25-4.53,3-10.53,3.69-9.14,5.38-6.84,2.38-5.32.6-6.13.41-1.45,1.89-.76-.93,4,2.19,5.38-.17,7-1.91,5.48,2.18,5.87-.73,6.08-2.71,5.76,1.32,5.88-3.37,3.64-.6,2.29.37,3.29,1.13,4-3.51,2.94.89,4.85-.14,1.29,1,1.73-1.19,7.08-2.2,6.94,1,2-3.07,0,1.33,4.09-3.71.64.9.23-.48,1.13v-1.22l.28-.86,1.11-7.06L217,299.8l2.56-5.56,1.81-7.6L220,277.69l2.54-8.6-2.93-4.72,1.19-6,0-3-.07-1.61,1.55-1-.24,0-.85.67-1.86,3.19.37,3.17-2.63,2L213.91,265l-1,6.21-1.29.78-.49,2-3.54,2.68-2.1,4.26-3.06-3.81-3.17-5.74.55-4.41-1.19-4.2-3.06-.51,2.53,7.28-.93,7.84-1.82,7.81.36,8.48-.56,8.39-1,7.81-.24,4.07-2.16,1.69-2-1.78-.61,3.82-1.34-1.07-.6-1.08,2.37-2.61-.66-2.74,1.49-4.15-3.44-8.28,3.61-2.4-2.88-3,2.53-1.59-.93-1.35-.15-5.86.06-5.88,1.37-5.82.42-5.93-2-3.29.92-6.54Z"/><path d="M229.83,290.25,229.6,289l1-.88,2.06-3.66-2.21-3.7.74-1.39,3.56.84-.56-3.09-.92-2,1.91-2.32,2.6-2.27-.12-5.29.08-6.79.13-6.78,2.31-4.37-.48-3.52,5.29-6.93,1-3.55-.53-1.14L241.49,229l4.1-2.13.45-2.33,2.45-1.13L249,219l.95-.81,2.89-1.22.74-1.87-.1-.41,1.06-.09,1.34,1.85-3.08,4.1.71,5.08.44,1.15,1.34-.39,4.64,4.52,1.45,3.14-1.13,5.69,1.51,4.69.86,3.29-1,6.08-3,8.54,2.36,8.6-.09.54-.31.58-.91,1.67,0,.54,2.19,2.09-.94,1-2.4,0,1,2,.38,4.4.67,10.26-2.26,3.18,2.32,4.92-1.22,3.15-.41,1.58,2,2.68-2,3.9.21,3.92L255.43,320l-.21,1,.29-.19-1.88-2.18-1.07-2.25.93-1.91,2.26-1.48.19-1.39-1.15-6.42.34-6.67-.73-2.5-2-2.82,2.06-2.58,2.49-1.91-.22-6.93-1.64-1.46-.27,3.35-2.34-.63-1.68-.43-2,2.12-.86,1.59-1.9,1.53-3.63,1.26-1.58,2-2,1.87-.68-1.53.3,1.94-3.36,2.63,2.4,5.81L236,304l-3.12,3.67.18,2.39,0,3.47,2.82,2.38-2.26,2.77.72,2.82L233.4,325l-3.31.19-.36-.57-.51,1.22-.49-2.33.87-4.18-2.4-5.69,1.45-6.1,2.89-3.19-.74-1.91L229.71,299l.55-3.8,1.4,1.29-1.26-3.12-1.59,1.42,2.32-1.94-2.7-1.31Zm14-13.64,2.33-.84,2.7.13,1.45,2.14,1-4,1.82-1.2,2.47,1.4-2-1.69-1.4-3,1.54-3.08L256,263l-1.51-3.15-.85-2.94-1.16-2.85,1.56-2.45-1.36-.57,3-2.38-1.1-2.31-1.25-2.09-3.45-.59-.2-3.21-1,4.1-3.28,6.58.54,2.53-1.57,4.65-2.65,6.43-1.86,9.53,0,1.18.62.85,1,.53,0,2.28,1.24-1.78Z"/><path d="M293.75,221l.73,1.06,2.56,0L296.9,224l.66,4,1.63,2.88,3.25,3.46.77,4.48.81,4.69-.73,7.23-4.92,3.12-2.73-.62.37-3.2,2.16-5.23-3-5.72-.08-6.5L289.33,228l-3.51.61-1.27,3.94-2.41,2.19.31,5.69-1.71.62-2.27,1.22,0,3.18-1.93,3.7-1,3.46,2.8,4-2.75.32,1.44,2.42-.61,3.62-3.07,3.91-.79,6.21,1.41,6.32,1.24,5.91.57,6-1.36,6.4,2,3.52-1,3,3.57-.75.6,4.36,2.5-3.29,1.87-3,.31-3,3.88-5,3.54-.26-.7-3.3-.22-4.23,3.9-2.66,0-4,2.87-.55,2.87,1.38,2.51,4.21-4,2.17-.29,2.55,1.7,3.33-2.23,4.38,2.37,6-.41,4.66-4.73,7.23,2.47,8.48L298,325l-1.48,3.75-1.72,2.42-.82,1.44-1.44.06.94,2.9-.3,2.54-2.47-.65-2,.34-.75-3.19,2.87-2.17,1.08-3.77-1.37-3.31-1.21-4.78,1.37-4.52,1.85-7.58-1.56-4.63,2-1.88-.39-1.37-.69.92-.93,3.8-3.84,4.9-4.66,1-.78,5.32-3.82-1.77-1.81,1-1.62-.4-.6-.51-2.51-1.5L269.72,310l-3-4.36,2.35-3.91L266,295.44l1.25-3.72.42-4.27-1.6-10.91,2.3-7.93.26-8.15.84-8.16,3.83-5.72-.12-7.07,6.09-4.34-.16-5.8,3.86-.76,1.27-2.52-.21-4.54,1.48-1.45,2.89-.47,3.59-.9.85,1.46Z"/><path d="M336.65,296.26l-.17,7.17-1.54,1.36-2.44.45-1.14,2.21-1.14,3.67-2.14,1.61-1.36,1.88-1,.32-3.18,2.47-4-.71-1.89,2.23-2.27.54-2-.78-1,2.77-1.36-1.75L308,319l1-1.69-1-2.81.34-1.68-1-.29-1.45-2.19L304,306.73l1.62-6.5-1.35-1.88,3.63-1.51-3.08-.8-.42-.94,3-6.79-.91-9.79.13-7.6-.31-6.49,2.71-7.87-.62-8.18,3.8-7.66-.78-4.24,0-4.47.84-.4L313,230l1.26-2-.54-2.09,4.08.7.38-1.87,1.44-1.53,2.45-3.7,2.17-3,1.66-.88,1.61.14,1.73,1.33,1.1-.05-.2-.62.7-1.11.72,1.73,1.17-.71,0,1.34,2.91.8,2.12,3.93-3.53,7,.07,2.5-2.53-.93-4.79-.1-3.55.22-1,0-1.32,2.22-1-.9-2.22.05,1.05,6.17-2.67,1.41.23,2.52,1,10.27-.73,7.89-1.49,3.08L313.46,265l2.3,1.4-3.17,2.16,2.51-2.23.75-.84,3.7-.42,1.53-1.37,0-3.58,2.72,1,3.72.62,1.18-2.43,2,.35.21,1.64,1.53,1,.12,2.28,1.63,6.87-2.37.61-2.87-.11-4.68,2.33-5.38-.66L313.28,277l-1.16,7.7-.18,2.87,1.15,4.79-1.8,2.18-1,5.75-1.14,4.94,3.06.65-1.08-.43,3-.17,1.79-.33,2,3.25,2.2-2.26,2-.71,1.87-.4,2.74-.13,1.17-3.13,2.22-1.14,3.05,0,.69-1.46Z"/><path d="M371.65,297l3.84,6.46-3.44,3.23-4,.54-.66,1.33H365.8l-2.77-.79-2.58,3.51-5.3,6.74-3.77,3.39-1.2.24-3.56.34-3.88,1.18-.83.51-2.71-2.21,3-2.07,1.07-3.08,1.16-2.62,2.69.49L350,312l1.53-.95-1.66-4.1,1.45-2.07,4.59-2,1.54-4.94,1-2.15,1.86-1.34-.3-2,.78-4.5,4-5.36-.32-1.25.84-1.35-1.59-5.64,1.2-8-.14-6.87-3.34-7.29-3.62-5.55L356,241.11l-1.54-3.42-3.6-.79-3.11,9.64-.95,7.7.43,7.84-1.46,8.16.68,8.37-.12,8.4L344,290.45l.47,7.2-2.74,6.77-2.12,6.88.15,4.81.6-2.93-2.4-2.37,2.45-3.94-.86-1.31-1.33-9.5,1.06-9.49,3.27-9.79-.68-8.8L339,264.44l2.4-3.48,2.18-4.5-3.71-5.56,1-3,1-2.22,1.56-3.3,2.59-2.15-.77-4.77,1.13-.7-.21-.57.8-1-1.31-1.15-1.31,1.28-2-.1-.85-5.3-3.68.13-.56-2.54-.63-2.68,2.54-2.61L337.64,219l.48-1.12,1.24-2.22,1.41,1.16,0,0,1.14-.84,2.53-.15,1.46,1.15,1,1.29-.21,3.14,1.15-3.46.8,2,1.08,1.06,1.07,1.93,1.31.77,2.88-1.85,5.51,8.86,4.73,6.84,4.3,4.54,1.8,5.84-1.08,6.43,1.83,6-1.35,7.14-.1,7.26-4.1,6.38,1.43,7.08L365,294l-4.23,5.11-.84,6.55-.3-2.89,2.88.27,5.16-1.59,3.94-.66Z"/><path d="M407.87,297.65l4.05,5.79-2.68,3.33-3.48,1.59-.77,1.07-1.31,1.9-3.27-2.28-4.43.59-5.28,6.95-1.85,5.19-3-1.4L384,322.63l-4.06,1.06-.73-.11-1.45-2.25,1.53-1.94.33-3.36,3.56-1-.3-4.36,4,1-1.17-3.26,2.09-.72,2.7-1.46.84-4.2,2.52-4.42,1.08-2,.45-2,.45-1.7.73-4.36,2.08-6.06,4,.28-1.33-2.31-.41-5.08,3.88-8-2.43-6.95-4.58-6.81-.62-7.34L392.3,242l-1.66-3.41-3.53-2.19-.52,10.37.28,7.82-1.51,7.61-2.51,8,.81,8.38-1,8.36-.57,3.58,1.38,7.29-.77,7.18-6.19,6.18.4,1.73-.37.52-2-2.67,0-4.18,2.78-1-1.07-9.48.24-9.52,1.85-9.9.09-8.68-.12-3.68-.23-3.39-1-4.65,1.5-5.29.17-2.91,2.52-2.08-2.62-3.8,3.69-2.37.79-3.75.41-1.3.44-.53.77-1.73-2.28,1.81-.66-1.82-.77-.9-2-4-1.24-1.16-3.13-.88,3-2.85-2.36-2.27,1.6-1.47-2.78-1.65,1.31,2.3,2.28.19,1.13-1.61.75.34,1.65-2,.07,2.25,1.13.93,2.05-.69,1,1.33,1.12-1.24-.47,2.76,2.26-.39.88,2L392,222l5.51,8.83,3.93,7.29,3.32,4.78,4.05,5,.06,6.34.06,6.16-1.47,7.09-1,7,.05,7.42L404.65,288l-2.21,6-3.54,5.44-4.15,5.25H398l.87-3.44,5.39-1.11,3.78-.27Z"/><path d="M411,270.88l1.85-2.08-.81-3.43,3.72-2.53-.32-1.92.54-2-1.72-3.67,3.39-2.72-.32-7.19.77-2.76,3-3.46L420,235l2.51-4.54-1.32-6,3.64-4.16,1.46,2.33.72,1.64-.41,5.1-.61,3.73-.44-.66.53,0,1-4.45,1.91-3.22,1.91-2.08,1.8.32,2.07-.26-.47-1.92,1.87.13,1.28-1.09,1.41,1.6,1,2.79.42.29,1.79,1.48,3.41,4.63,2.77,8.23,2.13,8.59-2,8.05,1.68,7-.48,7L448,276.32l-2.36,7.25-.67,8.17-2.42.46-1.78,1.8,2.5,1.07-3.81.76.66,2.61-2.46,5.12-3,4.81-4,4.52-2.2,3.73-3.4-.7-1.54,4-3.76-1.63-.9-2.73-2.75,0,.6-2.79-2.69-2.94,1.43-6.83-1.93-5.55.78-5.15,1.17-2.17-1-2.72-.41-2.87-.94-4.25-.13-4.28.85-1.91.74,3.48-1.53.82-.58-.45-.54.09-1.1-1.89L413,273.7Zm23.4-34.21-2.13-1.09-1,2.64-5.37,1.05-.49,2-1.13,2.23.64,5.09-3.94,6,.79,6.62-.59,6.45-2.53,5.57,1.42,5.77-1.66,9.73,3.36,6.74.65,6.59,3.57,4.41,2.67-1.59,3.23-4.41,2.79-4.88,1.66-5,2.95-3.63,1.06-9.12,1.37-8.16.25-8.45.63-4.29,1-3.08-2.16-1.25,1.33-1.32-2.69-5.61L438.66,240Z"/><path d="M458.21,238.81l1.2-4.81.23-2.57-1.79-3.26,1.79-1.22,1.26.7,1.76,0,.27-.13-.22-.26,1.94.57.09-1.53.31-2.53,3.83-.31-.69-2.22,1,1.11-.85.94.06.68,2.12,1.71-1.22,3.1.54,3.76-.32,2.38-1.05,2.91L467.37,240l-.52,4.33,2.58,6.82,2.22,5.79-2.78,6.76,4.79,6,1.73,6.53-.81,6.57,3.29,5.7-.07,9.75,1.76,1.51,2.43.94-1.23-3-.3-1.86v-2.56l2.16-4.2,1.49-6.43-.38-4.92-2.7-5.67.49-5.6,3.14-5.56.89-1.82-3.1-3.25-.36-2.86,3.88-2-.15-5-1-4.68,0-8.92.66-6.22L484.17,222,486,217.2l2.52-3.52,1.17.61-.05,1-.62.57.66,2.4,1.79,2.73-3.19,2.83.7,2.56,1.93,4-1.3,3.69-1.52,7.52,1,6.77V255l.66,6.72-1.5,6.62-2.6,7.22.91,7.4.48,6.05-.24,6-.59,7.07-2.76,8.16L483,314l-1.85,2.9-3.31,2.12-2.12-4.4-4.32-8.25,1.33-9.62-2-4.82-3.05-1.24,2.08-2.68-.74-8.11-1.51-5.47-1.78-5.4.12-3.3-4.05-1.6,2.49-.45-.51,3.29-2,5-2.28,3.19-.17,9.25-3,10.28.05,4-.1,4.09,1.71,2.88-.58,4.09-.95,4-.44,5.61L454.84,322l-1.64,1.05-1-.24.56,2.67-2.19-2.3,1.18-2.79-1.31-3.24-.39-5.59,3.75-5.5-.69-2.81-.85-4.6,2.18-6.35-1.68-2.52,3.4-2.88L456,279l.81-8.85L454.67,261l3.56-7.21-1-7.61Z"/></svg>