<svg xmlns="http://www.w3.org/2000/svg" viewBox="0 0 33.86 43.14"><defs><style>.cls-1{isolation:isolate;}.cls-2{fill:#1900df;}.cls-3{fill:#9fc2ff;}.cls-4{fill:#36004a;}.cls-5{opacity:0.54;mix-blend-mode:screen;}.cls-6{fill:#efff5f;}</style></defs><g class="cls-1"><g id="Layer_1" data-name="Layer 1"><path class="cls-2" d="M151.44,186.72A24,24,0,0,0,149,184.8a18.24,18.24,0,0,1-2.28,2.19,11.33,11.33,0,0,1-2.72,1.64,7.79,7.79,0,0,1-3.07.61,5.13,5.13,0,0,1-3-.87,6.43,6.43,0,0,1-2.08-2.44,14.13,14.13,0,0,1-1.23-3.62,21.55,21.55,0,0,1-.42-4.35,18.74,18.74,0,0,1,.48-4.41,11.31,11.31,0,0,1,1.38-3.4,6.82,6.82,0,0,1,2.16-2.21,5.25,5.25,0,0,1,2.82-.78,6.24,6.24,0,0,1,2.88.63,7.47,7.47,0,0,1,2,1.49,9.43,9.43,0,0,1,1.27,1.63,8.05,8.05,0,0,1,.59,1.11c.66-.42,1.44-1,2.35-1.62s1.81-1.36,2.7-2.1a21,21,0,0,0,2.15-2,13.81,13.81,0,0,0-6-5.62,18.32,18.32,0,0,0-8.23-1.88,16,16,0,0,0-9.24,2.58,16.29,16.29,0,0,0-5.76,7.08,25.16,25.16,0,0,0-2,10.23,28,28,0,0,0,1.12,8.13,19,19,0,0,0,3.3,6.44,14.69,14.69,0,0,0,5.4,4.2,17.52,17.52,0,0,0,7.4,1.48,16.61,16.61,0,0,0,6-1.06,19.48,19.48,0,0,0,4.93-2.75,21.86,21.86,0,0,0,3.68-3.54,13.56,13.56,0,0,0-1.82-2.4A34.15,34.15,0,0,0,151.44,186.72Z" transform="translate(-121.9 -155.79)"/><path class="cls-3" d="M140.12,197.43a18,18,0,0,1-7.61-1.53,15.28,15.28,0,0,1-5.58-4.34,19.64,19.64,0,0,1-3.39-6.6,28.67,28.67,0,0,1-1.14-8.28,25.81,25.81,0,0,1,2-10.43,16.86,16.86,0,0,1,5.93-7.29,16.59,16.59,0,0,1,9.53-2.67,18.89,18.89,0,0,1,8.45,1.93A14.37,14.37,0,0,1,154.5,164a.51.51,0,0,1-.06.59,23.11,23.11,0,0,1-2.2,2.06c-.89.73-1.8,1.45-2.72,2.12s-1.71,1.21-2.39,1.63a.42.42,0,0,1-.26.08l-.16,0a.5.5,0,0,1-.31-.31,7.18,7.18,0,0,0-.55-1,9,9,0,0,0-1.21-1.55,6.85,6.85,0,0,0-1.9-1.38,5.69,5.69,0,0,0-2.65-.58,4.79,4.79,0,0,0-2.56.71,6.2,6.2,0,0,0-2,2,11.12,11.12,0,0,0-1.32,3.26,18.26,18.26,0,0,0-.46,4.29,20.57,20.57,0,0,0,.41,4.25,13.63,13.63,0,0,0,1.18,3.49,6.06,6.06,0,0,0,1.92,2.26,4.64,4.64,0,0,0,2.68.78,7.44,7.44,0,0,0,2.88-.57,10.8,10.8,0,0,0,2.59-1.57,17.25,17.25,0,0,0,2.22-2.13.5.5,0,0,1,.66-.08,24.66,24.66,0,0,1,2.48,2,33.16,33.16,0,0,1,2.54,2.49,14.91,14.91,0,0,1,1.88,2.49.53.53,0,0,1,0,.57,23.24,23.24,0,0,1-3.76,3.62,20.34,20.34,0,0,1-5.06,2.81A17.17,17.17,0,0,1,140.12,197.43Z" transform="translate(-121.9 -155.79)"/><path class="cls-4" d="M139.88,156.79a18.32,18.32,0,0,1,8.23,1.88,13.81,13.81,0,0,1,6,5.62,21,21,0,0,1-2.15,2q-1.33,1.11-2.7,2.1c-.91.66-1.69,1.2-2.35,1.62a8.05,8.05,0,0,0-.59-1.11,9.43,9.43,0,0,0-1.27-1.63,7.47,7.47,0,0,0-2-1.49,6.24,6.24,0,0,0-2.88-.63,5.25,5.25,0,0,0-2.82.78,6.82,6.82,0,0,0-2.16,2.21,11.31,11.31,0,0,0-1.38,3.4,18.74,18.74,0,0,0-.48,4.41,21.55,21.55,0,0,0,.42,4.35,14.13,14.13,0,0,0,1.23,3.62,6.43,6.43,0,0,0,2.08,2.44,5.13,5.13,0,0,0,3,.87,7.79,7.79,0,0,0,3.07-.61,11.33,11.33,0,0,0,2.72-1.64A18.24,18.24,0,0,0,148,182.8a24,24,0,0,1,2.43,1.92,34.15,34.15,0,0,1,2.5,2.46,13.56,13.56,0,0,1,1.82,2.4,21.86,21.86,0,0,1-3.68,3.54,19.48,19.48,0,0,1-4.93,2.75,16.61,16.61,0,0,1-6,1.06,17.52,17.52,0,0,1-7.4-1.48,14.69,14.69,0,0,1-5.4-4.2,19,19,0,0,1-3.3-6.44,28,28,0,0,1-1.12-8.13,25.16,25.16,0,0,1,2-10.23,16.29,16.29,0,0,1,5.76-7.08,16,16,0,0,1,9.24-2.58m0-1a17.06,17.06,0,0,0-9.81,2.76,17.32,17.32,0,0,0-6.11,7.5,26.25,26.25,0,0,0-2.06,10.63,29.25,29.25,0,0,0,1.16,8.42,20.19,20.19,0,0,0,3.48,6.77,15.77,15.77,0,0,0,5.76,4.48,18.51,18.51,0,0,0,7.82,1.58,17.73,17.73,0,0,0,6.39-1.13,20.35,20.35,0,0,0,5.18-2.89,22.7,22.7,0,0,0,3.85-3.7,1,1,0,0,0,.09-1.12,15.1,15.1,0,0,0-1.95-2.59c-.81-.88-1.68-1.73-2.58-2.53a26,26,0,0,0-2.53-2,1,1,0,0,0-.56-.17,1,1,0,0,0-.76.34,16.23,16.23,0,0,1-2.15,2.07,10.72,10.72,0,0,1-2.48,1.5,6.93,6.93,0,0,1-2.68.53,4.13,4.13,0,0,1-2.39-.69,5.51,5.51,0,0,1-1.76-2.08,13.13,13.13,0,0,1-1.14-3.36,20.3,20.3,0,0,1-.4-4.15,17.77,17.77,0,0,1,.45-4.17,10.37,10.37,0,0,1,1.25-3.11,6,6,0,0,1,1.84-1.89,4.3,4.3,0,0,1,2.3-.63,5.33,5.33,0,0,1,2.42.52,6.61,6.61,0,0,1,1.77,1.28,8.87,8.87,0,0,1,1.14,1.46,8.32,8.32,0,0,1,.51.94,1,1,0,0,0,.61.61,1.26,1.26,0,0,0,.33.05.94.94,0,0,0,.53-.16c.68-.43,1.49-1,2.41-1.65s1.85-1.39,2.75-2.14a21.81,21.81,0,0,0,2.25-2.11,1,1,0,0,0,.12-1.17,14.82,14.82,0,0,0-6.38-6,19.4,19.4,0,0,0-8.67-2Z" transform="translate(-121.9 -155.79)"/><g class="cls-5"><path class="cls-6" d="M132.83,193.82a12.42,12.42,0,0,1-2-1.56c-.56-.56-1.17-1.25-1.86-2L128,189l-.47-.67c-.15-.24-.27-.49-.4-.74l-.81-1.51-.61-1.59c-.1-.27-.21-.53-.29-.79l-.21-.8c-.12-.53-.27-1-.37-1.54-.12-1-.3-1.94-.31-2.73l0-1.89a26,26,0,0,1,.69-4.56,24.62,24.62,0,0,1,4.37-8.76c.63-.78,1.29-1.44,1.81-2a11.94,11.94,0,0,1,2-1.6,13.12,13.12,0,0,1-1.69,1.9c-.46.61-1.06,1.29-1.63,2.08a25.22,25.22,0,0,0-1.63,2.67,24.09,24.09,0,0,0-2.25,6,27.4,27.4,0,0,0-.58,4.37v1.81c0,.75.16,1.63.24,2.6.09.47.21,1,.31,1.47l.17.78c.07.25.17.5.25.76l.54,1.55.7,1.48c.13.24.23.49.36.72l.43.67.81,1.3c.62.76,1.17,1.47,1.67,2.06A12.29,12.29,0,0,1,132.83,193.82Z" transform="translate(-121.9 -155.79)"/></g></g></g></svg>