<svg xmlns="http://www.w3.org/2000/svg" viewBox="0 0 32.93 42.63"><defs><style>.cls-1{isolation:isolate;}.cls-2{fill:#1900df;}.cls-3{fill:#9fc2ff;}.cls-4{fill:#36004a;}.cls-5{opacity:0.54;mix-blend-mode:screen;}.cls-6{fill:#efff5f;}</style></defs><g class="cls-1"><g id="Layer_1" data-name="Layer 1"><path class="cls-2" d="M297.79,160a15.56,15.56,0,0,0-3.34-.63c-.3.54-.69,1.26-1.16,2.15s-1,1.86-1.53,2.92-1.08,2.11-1.59,3.14-1,2-1.36,2.8-.7,1.48-.9,1.92c-.34-.66-.74-1.48-1.19-2.46s-.91-2-1.39-3.12-.95-2.17-1.38-3.21-.83-2-1.16-2.79-.58-1.42-.73-1.8a31.38,31.38,0,0,0-4.17.44,27.39,27.39,0,0,0-5.34,1.45c.49,1.18,1.05,2.41,1.66,3.69s1.25,2.58,1.94,3.89,1.36,2.6,2.05,3.87,1.38,2.48,2.07,3.64,1.35,2.25,2,3.26,1.23,1.89,1.8,2.65q-.12,1.56-.24,3.72t-.21,4.5c-.06,1.56-.12,3-.17,4.47s-.07,2.63-.07,3.63c.66.12,1.47.22,2.44.3s1.95.12,2.93.12,1.75,0,2.52-.1a6.14,6.14,0,0,0,1.5-.26c0-.2,0-.67,0-1.42s0-1.61,0-2.58,0-1.9,0-2.78,0-1.73-.05-2.91-.06-2.42-.09-3.73-.07-2.52-.13-3.62q2-4,4.05-7.57t3.78-6.45c1.18-1.91,2.2-3.46,3.09-4.64a23.81,23.81,0,0,0-2.51-1.3A25.28,25.28,0,0,0,297.79,160Z" transform="translate(-270.55 -155.88)"/><path class="cls-3" d="M287.75,197c-1,0-2,0-3-.12a23.7,23.7,0,0,1-2.49-.31.49.49,0,0,1-.41-.49c0-1,0-2.22.07-3.65s.11-2.91.17-4.47.13-3.06.21-4.51.15-2.54.22-3.54c-.53-.73-1.11-1.59-1.71-2.54s-1.31-2.1-2-3.26-1.38-2.38-2.08-3.66-1.38-2.57-2.06-3.88-1.32-2.6-1.94-3.9-1.18-2.55-1.67-3.71a.47.47,0,0,1,0-.4.5.5,0,0,1,.28-.27,29,29,0,0,1,5.44-1.48,32.25,32.25,0,0,1,4.24-.44h0a.5.5,0,0,1,.46.31c.16.38.4,1,.73,1.8s.72,1.75,1.16,2.79.89,2.1,1.37,3.2,1,2.14,1.39,3.11c.26.56.5,1.07.72,1.52l.46-1c.4-.85.86-1.78,1.37-2.82s1-2.08,1.6-3.14,1.06-2,1.53-2.93.86-1.61,1.16-2.15a.5.5,0,0,1,.44-.26h0a16.36,16.36,0,0,1,3.45.65,27.46,27.46,0,0,1,3.25,1.21,24.62,24.62,0,0,1,2.56,1.34.49.49,0,0,1,.23.33.53.53,0,0,1-.09.39c-.87,1.16-1.9,2.71-3.07,4.6s-2.43,4.05-3.77,6.43-2.65,4.85-4,7.44c.06,1.07.1,2.23.13,3.49l.09,3.74c0,1.18.05,2.16.05,2.92s0,1.81,0,2.78,0,1.83,0,2.58,0,1.25,0,1.47a.48.48,0,0,1-.3.41,5.82,5.82,0,0,1-1.65.29A25.18,25.18,0,0,1,287.75,197Z" transform="translate(-270.55 -155.88)"/><path class="cls-4" d="M281.06,156.88c.15.38.4,1,.73,1.8s.71,1.75,1.16,2.79.9,2.11,1.38,3.21.94,2.14,1.39,3.12.85,1.8,1.19,2.46q.3-.66.9-1.92c.4-.84.85-1.77,1.36-2.8s1-2.08,1.59-3.14,1.06-2,1.53-2.92.86-1.61,1.16-2.15a15.56,15.56,0,0,1,3.34.63,25.28,25.28,0,0,1,3.18,1.19,23.81,23.81,0,0,1,2.51,1.3c-.89,1.18-1.91,2.73-3.09,4.64s-2.44,4.06-3.78,6.45-2.69,4.91-4.05,7.57c.06,1.1.1,2.31.13,3.62s.06,2.55.09,3.73.05,2.15.05,2.91,0,1.81,0,2.78,0,1.83,0,2.58,0,1.22,0,1.42a6.14,6.14,0,0,1-1.5.26c-.77.07-1.6.1-2.52.1s-2,0-2.93-.12-1.78-.18-2.44-.3c0-1,0-2.21.07-3.63s.11-2.91.17-4.47.13-3.06.21-4.5.16-2.68.24-3.72c-.57-.76-1.16-1.64-1.8-2.65s-1.31-2.1-2-3.26-1.38-2.37-2.07-3.64-1.37-2.56-2.05-3.87-1.33-2.61-1.94-3.89-1.17-2.51-1.66-3.69a27.39,27.39,0,0,1,5.34-1.45,31.38,31.38,0,0,1,4.17-.44m0-1h0a31.87,31.87,0,0,0-4.31.45,28.77,28.77,0,0,0-5.54,1.51,1,1,0,0,0-.56.54,1,1,0,0,0,0,.78c.5,1.17,1.07,2.43,1.69,3.73s1.28,2.62,1.95,3.92,1.36,2.59,2.06,3.88,1.4,2.53,2.09,3.68,1.37,2.27,2,3.28,1.11,1.71,1.62,2.41c-.07,1-.14,2.1-.21,3.38s-.15,2.92-.21,4.51-.12,3.06-.17,4.48-.07,2.66-.07,3.66a1,1,0,0,0,.82,1c.69.12,1.54.23,2.54.31s2,.12,3,.12,1.82,0,2.61-.11a5.82,5.82,0,0,0,1.79-.33,1,1,0,0,0,.61-.82,14.6,14.6,0,0,0,0-1.52c0-.75,0-1.61,0-2.57s0-1.91,0-2.79,0-1.76-.05-2.93-.06-2.43-.09-3.74-.07-2.34-.12-3.37c1.3-2.54,2.62-5,3.91-7.3s2.59-4.53,3.76-6.42,2.18-3.41,3-4.56a1.05,1.05,0,0,0,.18-.79,1,1,0,0,0-.46-.66,22.3,22.3,0,0,0-2.62-1.36,26.62,26.62,0,0,0-3.3-1.24,16.88,16.88,0,0,0-3.56-.67h-.07a1,1,0,0,0-.88.52c-.3.54-.69,1.26-1.16,2.16s-1,1.87-1.54,2.93-1.07,2.1-1.6,3.15-1,2-1.37,2.82v0c-.09-.18-.17-.36-.26-.56-.45-1-.91-2-1.39-3.1s-.94-2.16-1.37-3.2-.82-2-1.15-2.77-.58-1.43-.74-1.82a1,1,0,0,0-.92-.61Z" transform="translate(-270.55 -155.88)"/><path class="cls-4" d="M287.89,165.86c.09.67.12,1.5.12,1.5" transform="translate(-270.55 -155.88)"/><path class="cls-4" d="M288,167.5a33.29,33.29,0,0,1-1.78,4.12c-.62,1-.19-.18.5-3.45,0-.12.13-.1.16-.23" transform="translate(-270.55 -155.88)"/><g class="cls-5"><path class="cls-6" d="M284,194a40.05,40.05,0,0,1-.09-5.53c0-1.55.06-3.27.09-4.94s.08-3.18.12-4.49c-.61-1.06-1.1-1.91-1.39-2.43-.8-1.42-2.95-5.37-4.86-9-1-1.81-1.86-3.54-2.5-4.82a10,10,0,0,1-1-2.16,10.87,10.87,0,0,1,1.34,1.95c.75,1.22,1.76,2.89,2.8,4.65,2.09,3.52,4.34,7.42,5.14,8.84l1.49,2.71c-.09,1.39-.18,3.06-.28,4.78s-.23,3.38-.33,4.93A39.42,39.42,0,0,1,284,194Z" transform="translate(-270.55 -155.88)"/></g><g class="cls-5"><path class="cls-6" d="M287.44,171.72c-.27-.14,2-5.29,2.55-6.41s3.25-6,3.52-5.91-2,5.28-2.55,6.39S287.71,171.85,287.44,171.72Z" transform="translate(-270.55 -155.88)"/></g></g></g></svg>