<svg xmlns="http://www.w3.org/2000/svg" viewBox="0 0 33.53 41.19"><defs><style>.cls-1{isolation:isolate;}.cls-2{fill:#1900df;}.cls-3{fill:#9fc2ff;}.cls-4{fill:#36004a;}.cls-5{opacity:0.54;mix-blend-mode:screen;}.cls-6{fill:#efff5f;}</style></defs><g class="cls-1"><g id="Layer_1" data-name="Layer 1"><path class="cls-2" d="M230.61,172.52q-.06-2-.12-3.93c0-1.27-.1-2.46-.17-3.57s-.13-2.1-.19-3a13.08,13.08,0,0,0-1.79-.34q-1.18-.16-2.58-.3c-.93-.09-1.83-.16-2.71-.21s-1.61-.08-2.19-.08l1.2,23.46q-1.23-2.85-2.69-5.79t-3.09-5.89q-1.64-3-3.45-5.88t-3.76-5.75c-.66-.1-1.46-.19-2.4-.28s-1.91-.17-2.9-.23-1.9-.1-2.73-.13-1.44,0-1.84,0c.1,1.2.17,2.73.21,4.58s.07,3.85.09,6,0,4.31,0,6.49c0,1.78,0,3.59,0,5.43s0,3.61,0,5.31v8.1q0,1.35,0,1.65,1,.12,2.67.27c1.14.1,2.38.19,3.73.26s2.64.1,3.86.1c0-.66,0-1.59,0-2.8s0-2.58-.09-4.11-.08-3.1-.12-4.71-.09-3.16-.14-4.65-.1-2.81-.16-4-.12-2-.18-2.54l2.25,4.05q1.23,2.22,2.49,4.56l2.46,4.55,2.22,4.08c.68,1.25,1.25,2.31,1.72,3.19l1,1.83a20.13,20.13,0,0,0,2.26.21c.89,0,1.81.06,2.75.06H228l1.79-.05a13,13,0,0,0,.33-2.29c.1-1.15.19-2.57.28-4.26s.16-3.52.21-5.49.08-4,.08-6c0-1.24,0-2.53,0-3.88S230.65,173.87,230.61,172.52Z" transform="translate(-197.2 -157.59)"/><path class="cls-3" d="M208.73,197.28c-1.22,0-2.53,0-3.88-.1s-2.63-.16-3.76-.26-2-.19-2.69-.27a.5.5,0,0,1-.43-.55c0-.1,0-.45,0-1.6v-8.1c0-1.7,0-3.47,0-5.31s0-3.65,0-5.43q0-3.27,0-6.49c0-2.15-.05-4.14-.09-6s-.12-3.38-.21-4.55a.49.49,0,0,1,.13-.38.51.51,0,0,1,.37-.16c.4,0,1,0,1.86,0s1.75.07,2.74.13,2,.14,2.91.23,1.76.19,2.43.29a.48.48,0,0,1,.34.21c1.29,1.88,2.57,3.81,3.78,5.76s2.36,3.92,3.46,5.9,2.12,4,3.1,5.92c.55,1.12,1.09,2.24,1.6,3.35l-1.06-20.77a.5.5,0,0,1,.13-.37.52.52,0,0,1,.37-.16c.58,0,1.32,0,2.21.08s1.8.12,2.74.21,1.8.19,2.6.3a14,14,0,0,1,1.86.36.49.49,0,0,1,.35.45c.06.86.13,1.84.2,2.95s.12,2.31.16,3.59l.13,3.93c0,1.35.07,2.71.09,4.06s0,2.65,0,3.89c0,2,0,4-.08,6s-.12,3.84-.21,5.5-.19,3.13-.29,4.28a12.2,12.2,0,0,1-.35,2.4.5.5,0,0,1-.46.35l-1.79.05h-1.91c-.95,0-1.87,0-2.77-.06a21.13,21.13,0,0,1-2.32-.21.56.56,0,0,1-.37-.26l-1-1.83c-.47-.88-1-2-1.72-3.2l-2.22-4.07-2.46-4.55q-1.26-2.34-2.49-4.56l-1.15-2.06c0,.09,0,.18,0,.28.06,1.15.11,2.48.16,4s.1,3,.14,4.65l.12,4.71c0,1.54.07,2.91.09,4.12s0,2.15,0,2.81A.5.5,0,0,1,208.73,197.28Z" transform="translate(-197.2 -157.59)"/><path class="cls-4" d="M198.2,158.59c.4,0,1,0,1.84,0s1.74.07,2.73.13,2,.14,2.9.23,1.74.18,2.4.28q2,2.82,3.76,5.75t3.45,5.88q1.64,3,3.09,5.89t2.69,5.79l-1.2-23.46c.58,0,1.31,0,2.19.08s1.78.12,2.71.21,1.79.19,2.58.3a13.08,13.08,0,0,1,1.79.34c.06.86.12,1.85.19,3s.13,2.3.17,3.57.08,2.58.12,3.93.07,2.7.09,4,0,2.64,0,3.88q0,3-.08,6t-.21,5.49c-.09,1.69-.18,3.11-.28,4.26a13,13,0,0,1-.33,2.29l-1.79.05h-1.9c-.94,0-1.86,0-2.75-.06a20.13,20.13,0,0,1-2.26-.21l-1-1.83c-.47-.88-1-1.94-1.72-3.19l-2.22-4.08-2.46-4.55q-1.26-2.34-2.49-4.56L208,174c.06.54.12,1.39.18,2.54s.11,2.47.16,4,.1,3,.14,4.65.08,3.18.12,4.71.07,2.9.09,4.11,0,2.14,0,2.8c-1.22,0-2.51,0-3.86-.1s-2.59-.16-3.73-.26-2-.19-2.67-.27q0-.3,0-1.65v-8.1c0-1.7,0-3.47,0-5.31s0-3.65,0-5.43q0-3.27,0-6.49t-.09-6c0-1.85-.11-3.38-.21-4.58m0-1a1,1,0,0,0-1,1.08c.1,1.16.17,2.68.21,4.52s.07,3.88.09,6,0,4.3,0,6.48c0,1.78,0,3.59,0,5.43s0,3.61,0,5.31v8.1c0,1.2,0,1.49,0,1.55a1,1,0,0,0,.87,1.09c.65.09,1.54.17,2.71.28s2.4.18,3.77.25,2.68.11,3.91.11a1,1,0,0,0,1-1q0-1,0-2.82c0-1.21,0-2.59-.09-4.12s-.08-3.1-.12-4.71-.09-3.16-.14-4.66c0-.75,0-1.46-.08-2.12l.11.2q1.23,2.2,2.49,4.55l2.46,4.54,2.22,4.08c.68,1.25,1.25,2.31,1.72,3.19l1,1.83a1,1,0,0,0,.73.52,22.12,22.12,0,0,0,2.38.22q1.35.06,2.79.06h1.92l1.8-.05a1,1,0,0,0,.92-.7,12.15,12.15,0,0,0,.37-2.51c.1-1.15.2-2.6.29-4.29s.16-3.53.21-5.52.08-4,.08-6q0-1.86,0-3.9c0-1.35,0-2.71-.09-4.06s-.09-2.66-.13-3.94-.09-2.49-.16-3.6-.14-2.1-.2-3a1,1,0,0,0-.71-.89,13.28,13.28,0,0,0-1.93-.37c-.8-.12-1.69-.22-2.62-.31s-1.86-.16-2.76-.21-1.65-.08-2.24-.08a1,1,0,0,0-.73.31,1,1,0,0,0-.27.74l.93,18.25c-.17-.36-.35-.72-.52-1.07-1-2-2-4-3.11-5.94s-2.27-4-3.48-5.92-2.49-3.9-3.79-5.79a1,1,0,0,0-.68-.42c-.67-.1-1.5-.2-2.45-.29s-1.94-.17-2.93-.23-1.92-.1-2.75-.13-1.47,0-1.88,0Z" transform="translate(-197.2 -157.59)"/><g class="cls-5"><path class="cls-6" d="M200.16,194.77a11.72,11.72,0,0,1-.17-2.21c-.05-1.36-.1-3.18-.16-5.09-.1-3.83-.17-8.05-.17-9.58s.05-5.73.14-9.57a57.85,57.85,0,0,1,.36-7.28,58.76,58.76,0,0,1,.41,7.28c.11,3.83.18,8.05.18,9.57C200.76,180.94,200.53,194.77,200.16,194.77Z" transform="translate(-197.2 -157.59)"/></g><g class="cls-5"><path class="cls-6" d="M220.62,194.14c-.27.13-4.39-7.34-5.26-9s-4.54-9.36-4.28-9.5,4.39,7.32,5.25,9S220.89,194,220.62,194.14Z" transform="translate(-197.2 -157.59)"/></g><g class="cls-5"><path class="cls-6" d="M222.2,181.25c-.3,0-1-8.15-1-10s-.26-10,0-10,1,8.14,1.05,10S222.5,181.24,222.2,181.25Z" transform="translate(-197.2 -157.59)"/></g></g></g></svg>