<svg xmlns="http://www.w3.org/2000/svg" viewBox="0 0 34.07 43.53"><defs><style>.cls-1{isolation:isolate;}.cls-2{fill:#1900df;}.cls-3{fill:#9fc2ff;}.cls-4{fill:#36004a;}.cls-5{opacity:0.54;mix-blend-mode:screen;}.cls-6{fill:#efff5f;}</style></defs><g class="cls-1"><g id="Layer_1" data-name="Layer 1"><path class="cls-2" d="M189.34,173q-.61-4.63-1.21-8.06T187,158.88q-1.56-.21-3.15-.3t-3.18-.09c-1.86,0-3.78.09-5.75.26s-4,.38-6,.64q-.72,2.64-1.59,6.05t-1.8,7.17q-.93,3.76-1.82,7.59T162,187.53q-.76,3.51-1.35,6.39c-.39,1.92-.69,3.5-.91,4.74l2.35.12,2.94.11,2.84.09c.88,0,1.57,0,2.07,0,.1-.8.25-1.79.45-3s.43-2.48.69-3.86.54-2.74.84-4.08L173,188l1.74-.18,2.11-.16,2.24-.12c.74,0,1.43-.05,2.07-.05,0,.66,0,1.4.06,2.21s0,1.64.07,2.49.07,1.69.11,2.53.07,1.63.1,2.37.07,1.4.11,2c1,0,2.2,0,3.54-.07s2.62-.13,3.84-.23,2.16-.19,2.82-.27q-.63-8.31-1.25-14.56T189.34,173Zm-11,6.25c-1.06.06-2.09.14-3.06.24s-1.7.19-2.16.27c.18-1,.38-2,.61-3.25s.47-2.44.71-3.69.46-2.4.67-3.44.38-1.85.5-2.43l1.26-.1,1.86-.14q1-.06,1.44-.06c.06.44.12,1.25.19,2.42s.14,2.45.21,3.84.14,2.67.2,3.84.11,2,.15,2.38Q180,179.16,178.38,179.25Z" transform="translate(-157.75 -155.49)"/><path class="cls-3" d="M180.62,197.52a.49.49,0,0,1-.5-.46c0-.59-.08-1.25-.11-2s-.06-1.53-.1-2.37-.08-1.68-.11-2.54-.05-1.68-.07-2.49l0-1.72c-.49,0-1,0-1.56.05l-2.23.12c-.74,0-1.44.1-2.1.16l-1.72.18-.73.09c-.28,1.26-.53,2.51-.76,3.73-.26,1.38-.49,2.66-.69,3.85s-.35,2.17-.45,3a.5.5,0,0,1-.49.44c-.51,0-1.2,0-2.09,0l-2.83-.09-2.95-.11-2.37-.12a.52.52,0,0,1-.36-.19.56.56,0,0,1-.1-.4c.22-1.24.53-2.82.92-4.75s.84-4,1.35-6.4,1.06-4.78,1.65-7.34,1.2-5.08,1.82-7.59,1.22-4.91,1.8-7.18,1.11-4.29,1.59-6.05a.49.49,0,0,1,.42-.36c2-.27,4.08-.48,6-.65s3.93-.26,5.79-.26c1.05,0,2.13,0,3.2.09s2.14.16,3.19.31a.5.5,0,0,1,.43.39c.38,1.77.77,3.82,1.17,6.07s.81,5,1.22,8.08.82,6.77,1.23,10.91.83,9.08,1.24,14.57a.5.5,0,0,1-.43.54c-.67.08-1.61.17-2.84.27s-2.52.18-3.87.23S181.64,197.52,180.62,197.52Zm-6-30c-.21,1-.43,2.18-.67,3.43s-1.05,5.47-1.19,6.25l1.49-.17c1-.1,2-.18,3.08-.24l2.07-.1c0-.45-.07-1.08-.11-1.88l-.2-3.84c-.07-1.39-.14-2.67-.21-3.83-.05-.83-.1-1.48-.14-1.94l-1,.05-1.85.13-.89.08C175,165.9,174.64,167.48,174.64,167.48Z" transform="translate(-157.75 -155.49)"/><path class="cls-4" d="M179.63,156.49q1.59,0,3.18.09t3.15.3q.57,2.64,1.17,6.06t1.21,8.06q.61,4.63,1.23,10.89t1.25,14.56q-1,.12-2.82.27c-1.22.1-2.5.18-3.84.23s-2.52.07-3.54.07c0-.58-.08-1.24-.11-2s-.06-1.53-.1-2.37-.08-1.68-.11-2.53-.05-1.68-.07-2.49,0-1.55-.06-2.21c-.64,0-1.33,0-2.07.05l-2.24.12-2.11.16L172,186l-1.08.15q-.45,2-.84,4.08c-.26,1.38-.49,2.67-.69,3.86s-.35,2.18-.45,3c-.5,0-1.19,0-2.07,0l-2.84-.09-2.94-.11-2.35-.12c.22-1.24.52-2.82.91-4.74s.84-4,1.35-6.39,1.06-4.78,1.65-7.33,1.2-5.08,1.82-7.59,1.22-4.9,1.8-7.17,1.11-4.29,1.59-6.05q3.06-.39,6-.64c2-.17,3.89-.26,5.75-.26m-7.47,21.27q.69-.12,2.16-.27c1-.1,2-.18,3.06-.24s1.92-.1,2.58-.12c0-.42-.09-1.21-.15-2.38s-.13-2.45-.2-3.84-.14-2.67-.21-3.84-.13-2-.19-2.42q-.48,0-1.44.06l-1.86.14-1.26.1c-.12.58-.29,1.39-.5,2.43s-.43,2.19-.67,3.44-.48,2.48-.71,3.69-.43,2.29-.61,3.25m7.47-22.27c-1.88,0-3.84.09-5.83.26s-4,.39-6.06.65a1,1,0,0,0-.84.73c-.48,1.77-1,3.81-1.59,6.06s-1.18,4.66-1.8,7.18-1.24,5.07-1.82,7.6-1.15,5-1.66,7.35-.94,4.42-1.35,6.4-.7,3.53-.92,4.77a1,1,0,0,0,.2.79,1,1,0,0,0,.72.38l2.38.12,2.95.11,2.83.09c.89,0,1.6,0,2.11,0a1,1,0,0,0,1-.87c.1-.8.25-1.79.44-3s.42-2.42.69-3.83c.21-1.11.44-2.24.68-3.38l.38-.05c.49-.06,1.06-.11,1.71-.17s1.35-.12,2.09-.17,1.47-.09,2.21-.11l1.05,0c0,.39,0,.8,0,1.22,0,.81,0,1.65.07,2.5s.07,1.71.11,2.55.07,1.63.1,2.36.07,1.42.11,2a1,1,0,0,0,1,.93c1,0,2.22,0,3.57-.07s2.66-.13,3.89-.23,2.18-.19,2.86-.28a1,1,0,0,0,.87-1.06c-.41-5.5-.83-10.41-1.24-14.59s-.83-7.82-1.24-10.92-.81-5.79-1.22-8.1-.79-4.32-1.18-6.1a1,1,0,0,0-.84-.78c-1.07-.14-2.15-.25-3.23-.31s-2.17-.09-3.23-.09Zm-4.16,10.4.52,0,1.84-.13.47,0c0,.39.07.88.1,1.45.07,1.16.14,2.44.21,3.83l0,.6.17,3.24c0,.53.05,1,.07,1.37l-1.56.08c-1.07.06-2.11.15-3.1.25l-.82.08c.11-.59.23-1.22.35-1.89.23-1.21.47-2.44.71-3.68s.46-2.39.67-3.43l.05-.25c.11-.55.21-1,.29-1.44Z" transform="translate(-157.75 -155.49)"/><g class="cls-5"><path class="cls-6" d="M161.13,194.14c-.3-.08,3-14.22,3.83-17.33s4.59-17.11,4.88-17-3,14.19-3.82,17.3S161.42,194.21,161.13,194.14Z" transform="translate(-157.75 -155.49)"/></g><g class="cls-5"><path class="cls-6" d="M182.73,193.06c-.3,0-1.48-11.35-1.68-13.86s-.9-13.9-.6-13.93,1.48,11.33,1.68,13.84S183,193,182.73,193.06Z" transform="translate(-157.75 -155.49)"/></g></g></g></svg>