<svg id="Layer_1" data-name="Layer 1" xmlns="http://www.w3.org/2000/svg" viewBox="0 0 197.27 28.02"><defs><style>.cls-1{fill:#9fc2ff;stroke:#582080;stroke-miterlimit:10;stroke-width:3px;}</style></defs><path class="cls-1" d="M373.2,351.35h-5.63v6.52H357.25V333.34h16.67c9.95,0,16.21,3.47,16.21,9.08,0,3.61-2.61,6.27-7.14,7.74l7.87,7.71H379.81Zm.1-12.54h-5.73V346h5.73c4.27,0,6.41-1.33,6.41-3.57S377.57,338.81,373.3,338.81Z" transform="translate(-355.75 -331.84)"/><path class="cls-1" d="M425.09,352.51v5.36H395.81V333.34h28.61v5.36H406v4.13h16.2V348H406v4.49Z" transform="translate(-355.75 -331.84)"/><path class="cls-1" d="M430.83,333.34h17.25c12.09,0,20.37,4.73,20.37,12.26s-8.29,12.26-20.37,12.26H430.83Zm16.83,19c6.2,0,10.37-2.49,10.37-6.73s-4.17-6.73-10.37-6.73h-6.51v13.46Z" transform="translate(-355.75 -331.84)"/><path class="cls-1" d="M473.55,346.94v-13.6h10.32v13.39c0,4.21,2.61,5.89,6.93,5.89s6.88-1.68,6.88-5.89V333.34h10.16v13.6c0,7.32-6.36,11.42-17.14,11.42S473.55,354.26,473.55,346.94Z" transform="translate(-355.75 -331.84)"/><path class="cls-1" d="M537.33,357.87l-7.55-7.6-7.45,7.6H510.55l13.29-12.4-12.71-12.12h11.62l7.29,7.08,7.19-7.08h11.15l-12.71,11.84,13.55,12.68Z" transform="translate(-355.75 -331.84)"/></svg>