<svg id="Layer_1" data-name="Layer 1" xmlns="http://www.w3.org/2000/svg" viewBox="0 0 600 400"><defs><style>.cls-1{fill:#9c73ba;}.cls-2{fill:#802eba;}.cls-3{fill:#eaff9f;}.cls-4{fill:#ffcbaa;}.cls-5{fill:#ff780a;}</style></defs><ellipse class="cls-1" cx="340.31" cy="231.95" rx="154.1" ry="261.24" transform="translate(19.2 489.83) rotate(-73.05)"/><ellipse class="cls-2" cx="284.61" cy="153.14" rx="283.56" ry="138.08" transform="translate(-26.99 67.35) rotate(-12.89)"/><path class="cls-3" d="M284.38,381.24a112.15,112.15,0,0,1-48-11.15,105.62,105.62,0,0,1-18.56,1.68l-.92,0-.9,0a108.31,108.31,0,0,1-45.17-9.8,105.15,105.15,0,0,1-21,2.13c-.45,0-.88,0-1.31,0s-.89,0-1.35,0a123.06,123.06,0,0,1-60.67-15.88c-20.06-11.59-34.82-28.49-42.68-48.89C36.77,281,30.26,244.74,28.28,225.64,23.49,179.33,48,142.78,63.08,125.11c23-27,53.76-41.85,86.63-41.87a105.73,105.73,0,0,1,21.54,2.2,107.53,107.53,0,0,1,39-10.33c2.45-.17,4.92-.26,7.37-.26a106.69,106.69,0,0,1,35,5.89,25,25,0,0,1,7.52-6.58c.7-.86,1.45-1.77,2.27-2.73L274,57.19,255.79,37.06l21.93-5L276.5,7.87l25.1,18.71,5.22-1.2,6.23,3.48a89.1,89.1,0,0,1,15,10c7.36,6.25,11.81,14.77,12.17,23.35a51.16,51.16,0,0,1-.91,12.14l-.2,1.16-.75,4.64a105.84,105.84,0,0,1,33.31-5.38,107.1,107.1,0,0,1,47.16,10.89,107.19,107.19,0,0,1,23.29-2.59c67.05,0,121.63,63,121.68,140.37v1.35c0,7,0,15-1.89,23.09-3.35,14.26-12.28,43.23-19.65,58.35a99.09,99.09,0,0,1-42.1,43.49,119.2,119.2,0,0,1-56.94,14.22h-1a105.84,105.84,0,0,1-23.83-2.72,108.37,108.37,0,0,1-46.51,10.46h-.16c-2.3,0-4.65-.09-7.41-.28a108.21,108.21,0,0,1-24.71-4.63,112.71,112.71,0,0,1-54.6,14.47h-.68Z"/><path class="cls-4" d="M284.38,372a102.9,102.9,0,0,1-46.7-11.58,95.43,95.43,0,0,1-19.87,2.11l-.92,0h0l-.89,0a99.15,99.15,0,0,1-44.07-10.26,95.76,95.76,0,0,1-22.07,2.59c-.42,0-.81,0-1.2,0h-.24c-.41,0-.81,0-1.22,0a113.53,113.53,0,0,1-56-14.64C73,329.68,59.59,314.4,52.49,296c-6.69-17.37-13.11-53.19-15-71.32-4.44-42.87,18.54-77,32.64-93.56,21.2-24.89,49.46-38.6,79.57-38.62a95.11,95.11,0,0,1,22.7,2.71,98.53,98.53,0,0,1,38.52-10.85c2.23-.16,4.49-.24,6.73-.24a97.61,97.61,0,0,1,36.25,7c1.43-.57,2.88-1.1,4.34-1.61a1.67,1.67,0,0,1,.08-.2,15.72,15.72,0,0,1,7.84-7.84l.05,0c1-1.25,2.07-2.56,3.34-4l7.94-9.76.24.35,2.47-2.71c2.41-2.62,4.9-5.33,6.53-7.47a34.82,34.82,0,0,0-2.84-3.48L273.28,42.57l14.09-3.23-.62-12.28,12.75,9.5,5.91-1.35L308.53,37A81.4,81.4,0,0,1,322,45.88c5.46,4.64,8.74,10.77,9,16.8a42.05,42.05,0,0,1-.8,10.12L330,74l-1.36,8.43-.1.75c-.32,2.28-.62,4.45-.81,6.51.1.29.23.65.33,1s.31.88.47,1.37c.8.34,1.59.69,2.38,1.05a97.6,97.6,0,0,1,86.81,2.43,97.62,97.62,0,0,1,24.44-3.13c62,0,112.36,58.81,112.4,131.1v1.36c0,6.83,0,13.89-1.64,21-3.33,14.14-12.15,42.44-19,56.41a89.87,89.87,0,0,1-38.22,39.41,109.76,109.76,0,0,1-52.5,13.09h-.94a96.8,96.8,0,0,1-24.87-3.25,99.43,99.43,0,0,1-45.47,11h-.16c-2.08,0-4.23-.08-6.77-.26a98.62,98.62,0,0,1-26.42-5.5A103,103,0,0,1,285.06,372Zm3.11-315.26Z"/><path class="cls-5" d="M543.88,243.64c1.52-6.45,1.4-13.31,1.39-20.19,0-67.34-46.24-121.87-103.13-121.84a87.72,87.72,0,0,0-25.57,3.8,88.65,88.65,0,0,0-85.67-2.09,93.59,93.59,0,0,0-10.33-4.51c-.28-3.74-2.34-6.74-2.16-9l.06-.8c.24-2.61.62-5.29,1-7.94l1.39-8.53a39,39,0,0,0,.88-9.36c-.09-3.42-2.26-7.26-5.77-10.25A72.89,72.89,0,0,0,304,45l-4.36,1h0l-2.27.52c-.13-.11-.24-.2-.38-.3l0,.38-1.77.4-4.49,1c2.36,2.6,4.43,5.21,5.31,7.58A6.66,6.66,0,0,1,295,62.2c-3.11,4.47-8.89,10.1-13.49,15.53-1.49,1.73-3,3.44-4.48,5.18v0l-.34.42c-1.28,1.5-2.54,3-3.75,4.59-1.56,2-4.73,1.92-6.09,5.1-.19.42-.85,3.15-1,3.72l0,.11a90.54,90.54,0,0,0-11.84,4.31,88.75,88.75,0,0,0-36.25-7.75q-3.06,0-6.08.21a90,90,0,0,0-38,11.51,85.09,85.09,0,0,0-23.85-3.34c-28.29,0-53.91,13.52-72.53,35.36-18.83,22.1-34,52.93-30.47,86.6,1.82,17.54,8.11,52.58,14.42,68.93,13.43,34.83,50.39,52.93,86.06,52.91.46,0,.91,0,1.36-.05s.86.05,1.29.05A87.56,87.56,0,0,0,173,342.4a90.55,90.55,0,0,0,43,10.83c.29,0,.57,0,.86,0s.63,0,.95,0A86.53,86.53,0,0,0,239,350.58a92.79,92.79,0,0,0,97.33-3.47c.4-.26.77-.54,1.17-.81a89.74,89.74,0,0,0,28.17,6.61c2.05.14,4.12.24,6.2.24h.08a91.11,91.11,0,0,0,44.43-11.67,87.59,87.59,0,0,0,25.92,3.92h.94c33.52,0,67.19-16.09,82.39-47.29C531.87,285.26,540.58,257.65,543.88,243.64Z"/></svg>