<svg xmlns="http://www.w3.org/2000/svg" viewBox="0 0 37.97 44.13"><defs><style>.cls-1{isolation:isolate;}.cls-2{fill:#1900df;}.cls-3{fill:#9fc2ff;}.cls-4{fill:#36004a;}.cls-5{opacity:0.54;mix-blend-mode:screen;}.cls-6{fill:#efff5f;}</style></defs><g class="cls-1"><g id="Layer_1" data-name="Layer 1"><path class="cls-2" d="M395.83,165a14.84,14.84,0,0,0-5.6-4.41A19.3,19.3,0,0,0,382,159a17.3,17.3,0,0,0-9.75,2.66,16.82,16.82,0,0,0-6.12,7.3,25.62,25.62,0,0,0-2.1,10.65A27.78,27.78,0,0,0,366,190.05a15.8,15.8,0,0,0,5.85,7.35A17.86,17.86,0,0,0,382,200.1a18.33,18.33,0,0,0,8.18-1.68,15.42,15.42,0,0,0,5.58-4.56,19.54,19.54,0,0,0,3.21-6.57,28.53,28.53,0,0,0,1-7.74,30.31,30.31,0,0,0-1-8A18.65,18.65,0,0,0,395.83,165Zm-5.51,19.46a10.13,10.13,0,0,1-3.07,4.39,8.86,8.86,0,0,1-10.08.21,8.12,8.12,0,0,1-2.7-4,18,18,0,0,1-.83-5.63,17.52,17.52,0,0,1,1.1-6.33,10.8,10.8,0,0,1,3.1-4.53,7.24,7.24,0,0,1,4.8-1.68,8.17,8.17,0,0,1,4.13,1,7.42,7.42,0,0,1,2.67,2.61,12,12,0,0,1,1.45,3.77,21,21,0,0,1,.45,4.39A16.4,16.4,0,0,1,390.32,184.43Z" transform="translate(-362.07 -155.97)"/><path class="cls-3" d="M381,198.6a18.41,18.41,0,0,1-10.52-2.79,16.29,16.29,0,0,1-6-7.57,28.39,28.39,0,0,1-1.92-10.66,26.26,26.26,0,0,1,2.15-10.85,17.31,17.31,0,0,1,6.3-7.52,17.82,17.82,0,0,1,10-2.74,19.87,19.87,0,0,1,8.41,1.64,15.32,15.32,0,0,1,5.77,4.56,19.21,19.21,0,0,1,3.29,6.71,30.88,30.88,0,0,1,1,8.17,29.11,29.11,0,0,1-1.05,7.88,20.12,20.12,0,0,1-3.29,6.73,15.93,15.93,0,0,1-5.76,4.71A18.87,18.87,0,0,1,381,198.6Zm.6-33.21a6.8,6.8,0,0,0-4.48,1.57,10.29,10.29,0,0,0-3,4.32,17,17,0,0,0-1.07,6.15,17.53,17.53,0,0,0,.8,5.47,7.71,7.71,0,0,0,2.54,3.74,8.36,8.36,0,0,0,9.45-.21,9.64,9.64,0,0,0,2.93-4.18,16.06,16.06,0,0,0,1-5.63,20.07,20.07,0,0,0-.44-4.29,11.31,11.31,0,0,0-1.39-3.61,7,7,0,0,0-2.49-2.44A7.73,7.73,0,0,0,381.64,165.39Z" transform="translate(-362.07 -155.97)"/><path class="cls-4" d="M381,157a19.3,19.3,0,0,1,8.19,1.59,14.84,14.84,0,0,1,5.6,4.41,18.65,18.65,0,0,1,3.19,6.54,30.31,30.31,0,0,1,1,8,28.53,28.53,0,0,1-1,7.74,19.54,19.54,0,0,1-3.21,6.57,15.42,15.42,0,0,1-5.58,4.56A18.33,18.33,0,0,1,381,198.1a17.86,17.86,0,0,1-10.24-2.7,15.8,15.8,0,0,1-5.85-7.35,27.78,27.78,0,0,1-1.88-10.47,25.62,25.62,0,0,1,2.1-10.65,16.82,16.82,0,0,1,6.12-7.3A17.3,17.3,0,0,1,381,157m.09,31.53a7.83,7.83,0,0,0,5.12-1.68,10.13,10.13,0,0,0,3.07-4.39,16.4,16.4,0,0,0,1-5.81,21,21,0,0,0-.45-4.39,12,12,0,0,0-1.45-3.77,7.42,7.42,0,0,0-2.67-2.61,8.17,8.17,0,0,0-4.13-1,7.24,7.24,0,0,0-4.8,1.68,10.8,10.8,0,0,0-3.1,4.53,17.52,17.52,0,0,0-1.1,6.33,18,18,0,0,0,.83,5.63,8.12,8.12,0,0,0,2.7,4,7.81,7.81,0,0,0,5,1.47M381,156a18.38,18.38,0,0,0-10.3,2.82,17.88,17.88,0,0,0-6.48,7.73,26.75,26.75,0,0,0-2.19,11.06A29,29,0,0,0,364,188.43a16.86,16.86,0,0,0,6.22,7.8A18.94,18.94,0,0,0,381,199.1a19.44,19.44,0,0,0,8.62-1.78,16.55,16.55,0,0,0,5.94-4.86,20.55,20.55,0,0,0,3.37-6.9,29.67,29.67,0,0,0,1.07-8,31.45,31.45,0,0,0-1.05-8.3,19.7,19.7,0,0,0-3.37-6.89,16,16,0,0,0-6-4.71A20.52,20.52,0,0,0,381,156Zm.09,31.53a6.83,6.83,0,0,1-4.34-1.26,7,7,0,0,1-2.37-3.5,18.11,18.11,0,0,1,.25-11.28,9.83,9.83,0,0,1,2.82-4.12,6.16,6.16,0,0,1,4.15-1.45,7.2,7.2,0,0,1,3.63.83,6.44,6.44,0,0,1,2.32,2.26,11.38,11.38,0,0,1,1.33,3.45,20.53,20.53,0,0,1,.42,4.19,15.49,15.49,0,0,1-.95,5.45,9.29,9.29,0,0,1-2.77,4,6.8,6.8,0,0,1-4.49,1.45Z" transform="translate(-362.07 -155.97)"/><g class="cls-5"><path class="cls-6" d="M370.91,194a10.5,10.5,0,0,1-1.38-2c-.19-.32-.42-.65-.62-1l-.61-1.22-.66-1.34c-.21-.46-.38-1-.58-1.45l-.57-1.51c-.14-.52-.29-1-.43-1.56a21.94,21.94,0,0,1-.6-3,20.38,20.38,0,0,1-.14-4.39,10.15,10.15,0,0,1,.21-1.78l.22-1.21c.09-.42.25-.86.38-1.33a22.28,22.28,0,0,1,1.08-2.88,25.12,25.12,0,0,1,1.6-2.81,23.77,23.77,0,0,1,3.61-4.3,9.14,9.14,0,0,1,1.9-1.53c.14.14-2.76,2.65-4.86,6.24A25,25,0,0,0,368,169.6a23.61,23.61,0,0,0-1,2.79c-.11.45-.25.87-.32,1.27s-.13.8-.18,1.15a11,11,0,0,0-.19,1.7,22.2,22.2,0,0,0,.06,4.19,21.89,21.89,0,0,0,.48,2.92q.18.75.36,1.53c.16.49.32,1,.49,1.49C369.1,190.59,371.08,193.85,370.91,194Z" transform="translate(-362.07 -155.97)"/></g><g class="cls-5"><path class="cls-6" d="M389,187.06c-.16-.1.94-2,1.7-4.25l.49-1.73c.12-.58.21-1.15.31-1.67a20.34,20.34,0,0,0,.2-2.39,19.81,19.81,0,0,0-.61-5.84c-.56-2.32-1.64-4.21-1.52-4.29s1.47,1.71,2.25,4.07a17,17,0,0,1,1,6.09,16.37,16.37,0,0,1-.3,2.53c-.13.55-.26,1.14-.43,1.74s-.42,1.18-.64,1.76A13.34,13.34,0,0,1,389,187.06Z" transform="translate(-362.07 -155.97)"/></g></g></g></svg>