<svg xmlns="http://www.w3.org/2000/svg" viewBox="0 0 31.37 43.62"><defs><style>.cls-1{isolation:isolate;}.cls-2{fill:#1900df;}.cls-3{fill:#9fc2ff;}.cls-4{fill:#36004a;}.cls-5{opacity:0.54;mix-blend-mode:screen;}.cls-6{fill:#efff5f;}</style></defs><g class="cls-1"><g id="Layer_1" data-name="Layer 1"><path class="cls-2" d="M433.79,189.86c-.52-1.37-1.06-2.75-1.63-4.14s-1.14-2.7-1.7-3.93-1.07-2.27-1.53-3.11a9.63,9.63,0,0,0,4.19-4,11.46,11.46,0,0,0,1.57-5.82,10.05,10.05,0,0,0-1.17-5.14,8.18,8.18,0,0,0-3.1-3.08,13.92,13.92,0,0,0-4.26-1.51,25.22,25.22,0,0,0-4.64-.44q-1.59,0-3.63.09l-4.17.21-4,.24q-1.83.12-3,.24.24,4.59.51,10.1t.54,11.07q.27,5.57.54,10.44t.42,8.23c1.1,0,2.27,0,3.5,0s2.42-.09,3.57-.18a20.91,20.91,0,0,0,2.92-.41c0-.82-.06-1.87-.13-3.15s-.15-2.64-.24-4.09-.19-2.86-.29-4.23-.19-2.58-.28-3.63-.18-1.82-.26-2.3l1.13-.07c.41,0,.85-.09,1.32-.17s.93-.18,1.39-.3c.2.56.5,1.43.89,2.6s.8,2.48,1.24,3.94.89,3,1.34,4.47.84,2.94,1.18,4.25.59,2.36.75,3.16c.16,0,.62-.11,1.37-.27s1.63-.36,2.65-.61,2-.54,3-.86a11,11,0,0,0,2.32-1c-.2-.72-.5-1.65-.91-2.79S434.31,191.23,433.79,189.86Zm-8-18.57a3.86,3.86,0,0,1-1.71,1.5,11.58,11.58,0,0,1-3.11.91c-.9.16-1.67.27-2.32.32s-1.29.07-1.91.07c0-.28-.05-.68-.1-1.21s-.1-1.12-.15-1.77-.11-1.31-.17-2-.12-1.27-.18-1.83-.1-1-.12-1.35l.78-.09,1.2-.12,1.32-.09,1.14,0a20.87,20.87,0,0,1,3.05.2,3.54,3.54,0,0,1,2.05.94,3.24,3.24,0,0,1,.75,2.37A4.25,4.25,0,0,1,425.77,171.29Z" transform="translate(-404.73 -155.7)"/><path class="cls-3" d="M407.74,197.82a.5.5,0,0,1-.49-.48c-.11-2.23-.25-5-.42-8.23s-.37-6.73-.54-10.44l-.54-11.07q-.28-5.5-.52-10.09a.51.51,0,0,1,.45-.53c.81-.08,1.82-.16,3.05-.24l4-.24,4.17-.21c1.37-.06,2.59-.09,3.65-.09a26.27,26.27,0,0,1,4.73.44,14.55,14.55,0,0,1,4.41,1.57,8.82,8.82,0,0,1,3.3,3.26,10.63,10.63,0,0,1,1.23,5.4,12,12,0,0,1-1.64,6.07,10.11,10.11,0,0,1-3.94,3.95c.4.76.84,1.66,1.31,2.69.56,1.23,1.13,2.56,1.7,3.95s1.12,2.78,1.64,4.15,1,2.63,1.4,3.77.72,2.09.92,2.83a.5.5,0,0,1-.21.56,11.62,11.62,0,0,1-2.44,1.07c-1,.32-2,.61-3,.86s-1.91.46-2.67.62-1.24.26-1.4.28h-.07a.5.5,0,0,1-.49-.4c-.16-.79-.4-1.84-.74-3.14s-.74-2.73-1.18-4.23-.9-3-1.33-4.46-.86-2.77-1.25-3.94c-.3-.9-.54-1.62-.73-2.15-.33.07-.66.14-1,.19a12,12,0,0,1-1.36.17l-.59,0c.06.46.12,1.06.18,1.78.09,1.06.18,2.27.28,3.64s.2,2.78.29,4.24.17,2.81.24,4.09.11,2.35.13,3.17a.49.49,0,0,1-.39.5,22.31,22.31,0,0,1-3,.41c-1.15.09-2.36.16-3.6.19S408.85,197.82,407.74,197.82Zm7.8-33.42c0,.25,0,.54.08.86.06.56.12,1.17.18,1.84s.12,1.32.17,2,.1,1.23.15,1.76c0,.29.05.54.06.76.47,0,.94,0,1.41-.07.63-.05,1.4-.15,2.28-.31a11,11,0,0,0,3-.87,3.39,3.39,0,0,0,1.49-1.3,3.71,3.71,0,0,0,.46-1.9,2.82,2.82,0,0,0-.6-2,3.14,3.14,0,0,0-1.78-.8,19.84,19.84,0,0,0-3-.19l-1.11,0c-.44,0-.87.05-1.3.09l-1.19.12Z" transform="translate(-404.73 -155.7)"/><path class="cls-4" d="M420.52,156.7a25.22,25.22,0,0,1,4.64.44,13.92,13.92,0,0,1,4.26,1.51,8.18,8.18,0,0,1,3.1,3.08,10.05,10.05,0,0,1,1.17,5.14,11.46,11.46,0,0,1-1.57,5.82,9.63,9.63,0,0,1-4.19,4c.46.84,1,1.88,1.53,3.11s1.13,2.54,1.7,3.93,1.11,2.77,1.63,4.14,1,2.62,1.4,3.76.71,2.07.91,2.79a11,11,0,0,1-2.32,1c-1,.32-2,.61-3,.86s-1.9.45-2.65.61-1.21.25-1.37.27c-.16-.8-.41-1.85-.75-3.16s-.73-2.73-1.18-4.25-.9-3-1.34-4.47-.85-2.77-1.24-3.94-.69-2-.89-2.6c-.46.12-.92.22-1.39.3s-.91.14-1.32.17l-1.13.07c.08.48.17,1.25.26,2.3s.18,2.26.28,3.63.2,2.78.29,4.23.17,2.81.24,4.09.11,2.33.13,3.15a20.91,20.91,0,0,1-2.92.41q-1.72.14-3.57.18c-1.23,0-2.4,0-3.5,0q-.15-3.36-.42-8.23t-.54-10.44q-.27-5.57-.54-11.07t-.51-10.1q1.2-.12,3-.24l4-.24,4.17-.21q2-.09,3.63-.09m-4.8,15.39c.62,0,1.26,0,1.91-.07s1.42-.16,2.32-.32a11.58,11.58,0,0,0,3.11-.91,3.86,3.86,0,0,0,1.71-1.5,4.25,4.25,0,0,0,.52-2.15,3.24,3.24,0,0,0-.75-2.37,3.54,3.54,0,0,0-2.05-.94,20.87,20.87,0,0,0-3.05-.2l-1.14,0-1.32.09-1.2.12L415,164q0,.51.12,1.35t.18,1.83c.06.66.12,1.32.17,2s.1,1.24.15,1.77.08.93.1,1.21m4.8-16.39c-1.06,0-2.3,0-3.67.09l-4.18.21-4,.24c-1.23.08-2.26.17-3.07.25a1,1,0,0,0-.9,1q.24,4.59.52,10.1l.54,11.07c.18,3.73.36,7.25.54,10.44s.31,6,.42,8.23a1,1,0,0,0,1,.95c1.1,0,2.28,0,3.52,0s2.47-.1,3.63-.19a21.57,21.57,0,0,0,3.06-.42,1,1,0,0,0,.78-1c0-.83-.06-1.9-.13-3.18s-.15-2.65-.24-4.11-.19-2.86-.29-4.24-.19-2.59-.28-3.64c-.05-.48-.09-.91-.13-1.28h.07c.44,0,.92-.09,1.42-.17l.58-.11.58,1.73c.38,1.15.8,2.47,1.24,3.92s.88,2.95,1.33,4.47.84,2.9,1.18,4.21.58,2.33.73,3.11a1,1,0,0,0,1,.8h.13c.13,0,.41-.06,1.45-.28.77-.16,1.67-.37,2.68-.62s2.07-.55,3.06-.88a11.82,11.82,0,0,0,2.54-1.12,1,1,0,0,0,.44-1.12c-.21-.74-.53-1.7-.94-2.86s-.88-2.41-1.4-3.78-1.08-2.78-1.65-4.16-1.14-2.73-1.71-4c-.38-.85-.75-1.61-1.09-2.28a11,11,0,0,0,3.71-3.9,12.51,12.51,0,0,0,1.7-6.32,11.17,11.17,0,0,0-1.3-5.65,9.19,9.19,0,0,0-3.48-3.44,15.07,15.07,0,0,0-4.57-1.63,26.29,26.29,0,0,0-4.82-.45Zm-4.44,9.14,1-.09c.43,0,.85-.07,1.28-.09l1.09,0a18.86,18.86,0,0,1,2.9.19,1.95,1.95,0,0,1,2,2.32,3.18,3.18,0,0,1-.39,1.65,3,3,0,0,1-1.28,1.1,10.77,10.77,0,0,1-2.84.83c-.86.15-1.61.25-2.23.3l-.91,0c0-.09,0-.18,0-.29-.05-.52-.09-1.11-.14-1.75s-.11-1.31-.17-2-.12-1.28-.18-1.84c0-.13,0-.25,0-.37Z" transform="translate(-404.73 -155.7)"/><g class="cls-5"><path class="cls-6" d="M408.89,194a63.69,63.69,0,0,1-.75-7.42c-.29-3.91-.56-8.22-.64-9.78s-.23-5.87-.33-9.79a62.82,62.82,0,0,1,0-7.47,61.82,61.82,0,0,1,.75,7.42c.29,3.9.57,8.2.64,9.75s.23,5.87.33,9.8A60.87,60.87,0,0,1,408.89,194Z" transform="translate(-404.73 -155.7)"/></g><g class="cls-5"><path class="cls-6" d="M426.8,195.4c-.29.09-2.46-6.35-2.89-7.78s-2.14-8-1.85-8.08,2.46,6.33,2.89,7.77S427.09,195.31,426.8,195.4Z" transform="translate(-404.73 -155.7)"/></g><g class="cls-5"><path class="cls-6" d="M426.29,169.86c-.12-.1.15-.65.3-1.26a4.87,4.87,0,0,0,.15-1.5,5.38,5.38,0,0,0-.16-1.51c-.14-.62-.4-1.17-.29-1.26s.64.32,1,1a3.89,3.89,0,0,1,.54,1.8,3.8,3.8,0,0,1-.53,1.81C426.91,169.54,426.4,170,426.29,169.86Z" transform="translate(-404.73 -155.7)"/></g></g></g></svg>