<svg xmlns="http://www.w3.org/2000/svg" viewBox="0 0 33.35 43.71"><defs><style>.cls-1{isolation:isolate;}.cls-2{fill:#1900df;}.cls-3{fill:#9fc2ff;}.cls-4{fill:#36004a;}.cls-5{opacity:0.54;mix-blend-mode:screen;}.cls-6{fill:#efff5f;}</style></defs><g class="cls-1"><g id="Layer_1" data-name="Layer 1"><path class="cls-2" d="M265.14,163.79A13.92,13.92,0,0,0,259,160a31.31,31.31,0,0,0-9.36-1.22c-1.28,0-2.65.05-4.11.14s-2.83.19-4.11.31-2.34.23-3.15.33c0,.5.11,1.49.22,3s.24,3.25.39,5.34.32,4.36.51,6.82.39,4.95.59,7.46.39,4.91.6,7.2.38,4.32.54,6.09.3,3.12.42,4.06a81.24,81.24,0,0,0,12.62-.9,23.44,23.44,0,0,0,8.75-3,12.79,12.79,0,0,0,5.07-6.07,26.39,26.39,0,0,0,1.64-10.07,35.83,35.83,0,0,0-1.05-9.24A15.06,15.06,0,0,0,265.14,163.79ZM259,185.18a6.21,6.21,0,0,1-2.9,3.19,12.86,12.86,0,0,1-5.62,1.23q-.25-3.36-.54-7.3t-.56-7.89q-.26-3.94-.49-7.22l1.09,0,1.15,0A7.14,7.14,0,0,1,256.3,169a10.32,10.32,0,0,1,2.72,4.8,23.76,23.76,0,0,1,.81,6.31A13.86,13.86,0,0,1,259,185.18Z" transform="translate(-236.23 -155.82)"/><path class="cls-3" d="M240.5,198a.5.5,0,0,1-.5-.44c-.12-.94-.26-2.28-.42-4.08s-.34-3.8-.54-6.09-.4-4.69-.6-7.2-.4-5-.59-7.46-.36-4.74-.51-6.83-.28-3.87-.39-5.34-.18-2.45-.22-3a.51.51,0,0,1,.44-.54c.82-.1,1.87-.21,3.16-.33s2.66-.22,4.12-.31,2.86-.14,4.15-.14a32,32,0,0,1,9.51,1.24,14.4,14.4,0,0,1,6.39,3.89,15.6,15.6,0,0,1,3.51,6.64,36.39,36.39,0,0,1,1.07,9.37,27,27,0,0,1-1.68,10.26,13.32,13.32,0,0,1-5.26,6.3,23.93,23.93,0,0,1-8.93,3.1,81.32,81.32,0,0,1-12.71.91Zm7.91-32.36c.15,2,.3,4.28.46,6.7q.25,3.94.55,7.89c.19,2.44.36,4.72.51,6.82a11.8,11.8,0,0,0,4.92-1.15,5.62,5.62,0,0,0,2.67-2.94,13.25,13.25,0,0,0,.81-4.9,23.25,23.25,0,0,0-.8-6.18,9.91,9.91,0,0,0-2.58-4.58,6.66,6.66,0,0,0-4.83-1.7l-1.14,0Z" transform="translate(-236.23 -155.82)"/><path class="cls-4" d="M248.6,156.82A31.31,31.31,0,0,1,258,158a13.92,13.92,0,0,1,6.18,3.75,15.06,15.06,0,0,1,3.39,6.43,35.83,35.83,0,0,1,1.05,9.24,26.39,26.39,0,0,1-1.64,10.07,12.79,12.79,0,0,1-5.07,6.07,23.44,23.44,0,0,1-8.75,3,81.24,81.24,0,0,1-12.62.9c-.12-.94-.26-2.29-.42-4.06s-.34-3.8-.54-6.09-.41-4.69-.6-7.2-.4-5-.59-7.46-.36-4.73-.51-6.82-.28-3.87-.39-5.34-.18-2.46-.22-3q1.22-.15,3.15-.33c1.28-.12,2.65-.22,4.11-.31s2.83-.14,4.11-.14m.87,30.78a12.86,12.86,0,0,0,5.62-1.23,6.21,6.21,0,0,0,2.9-3.19,13.86,13.86,0,0,0,.84-5.09,23.76,23.76,0,0,0-.81-6.31,10.32,10.32,0,0,0-2.72-4.8,7.14,7.14,0,0,0-5.18-1.85l-1.15,0-1.09,0q.24,3.27.49,7.22t.56,7.89q.28,3.94.54,7.3m-.87-31.78c-1.3,0-2.7.05-4.18.14s-2.86.2-4.14.32-2.33.23-3.18.33a1,1,0,0,0-.87,1.07c0,.5.11,1.48.22,2.95s.24,3.25.39,5.34.32,4.37.51,6.83.39,4.95.59,7.46.4,4.91.6,7.2.38,4.33.54,6.1.3,3.14.42,4.1a1,1,0,0,0,1,.87h0a83.58,83.58,0,0,0,12.79-.91,24.65,24.65,0,0,0,9.11-3.17,13.83,13.83,0,0,0,5.46-6.54,27.35,27.35,0,0,0,1.72-10.45,36.94,36.94,0,0,0-1.09-9.5,16.19,16.19,0,0,0-3.62-6.85,15,15,0,0,0-6.61-4,32.72,32.72,0,0,0-9.66-1.26Zm.35,10.33H249l1.12,0a6.15,6.15,0,0,1,4.49,1.56,9.41,9.41,0,0,1,2.44,4.35,23,23,0,0,1,.78,6.05,12.68,12.68,0,0,1-.77,4.71,5.2,5.2,0,0,1-2.44,2.69,10.93,10.93,0,0,1-4.23,1.06q-.21-3-.47-6.33c-.2-2.64-.38-5.29-.55-7.88-.15-2.22-.29-4.29-.42-6.19Z" transform="translate(-236.23 -155.82)"/><g class="cls-5"><path class="cls-6" d="M241.65,194.77c-.3,0-1.78-14.28-2.06-17.43s-1.27-17.47-1-17.5,1.78,14.25,2.06,17.4S242,194.74,241.65,194.77Z" transform="translate(-236.23 -155.82)"/></g><g class="cls-5"><path class="cls-6" d="M259,185.18c-.18-.07.43-2,.75-4.23a26.11,26.11,0,0,0,.14-5.51,21.18,21.18,0,0,0-1.16-5.36c-.77-2.09-2-3.71-1.89-3.8s1.6,1.38,2.6,3.5a17.92,17.92,0,0,1,1.54,5.56,18.27,18.27,0,0,1,0,2.38,21.81,21.81,0,0,1-.47,3.37A13.68,13.68,0,0,1,259,185.18Z" transform="translate(-236.23 -155.82)"/></g></g></g></svg>