<svg xmlns="http://www.w3.org/2000/svg" viewBox="0 0 92.34 95"><defs><style>.cls-1{isolation:isolate;}.cls-2,.cls-4{fill:#333;}.cls-3,.cls-9{mix-blend-mode:screen;}.cls-4,.cls-8{opacity:0.54;}.cls-4,.cls-6,.cls-7,.cls-8{mix-blend-mode:multiply;}.cls-5{fill:#a7b0b8;}.cls-7{opacity:0.4;}.cls-8,.cls-9{fill:#fff;}.cls-9{opacity:0.3;}</style></defs><g class="cls-1"><g id="Image"><g id="background-2" data-name="background"><path class="cls-2" d="M109.4,95.13h0l.35-.34Zm15.95-56.44c5.23,5.19,8.3,11.5,8.3,18.31,0,8.12-4.36,15.51-11.52,21.15h0c7.17-5.64,11.53-13,11.53-21.16C133.67,50.18,130.6,43.86,125.35,38.69Zm0,0a32.17,32.17,0,0,0-2.66-2.4C123.63,37.07,124.51,37.87,125.35,38.69Z" transform="translate(-41.33 -25)"/><path class="cls-2" d="M133.65,57c0,8.12-4.36,15.51-11.52,21.15a10,10,0,0,0-2.43-2,5.52,5.52,0,0,0-1.22-.52,4.08,4.08,0,0,0-1.61-.15,3,3,0,0,0-.45.09,3.43,3.43,0,0,0-.45.16.84.84,0,0,0-.23.12c-2,1-3.09,4-3.13,8a28.49,28.49,0,0,0,.77,6.59,22.2,22.2,0,0,1-3.62,4.35l-.36.33-.25.23-.36-1a2.74,2.74,0,0,0-2.47-1.82,0,0,0,0,0,0,0,2.92,2.92,0,0,0-.71.16,2.78,2.78,0,0,0-1.66,3.55l.83,2.27c-.58.34-1.18.67-1.8,1l-.25-1.44A2.75,2.75,0,0,0,100,95.79a2.7,2.7,0,0,0-.49,0A2.76,2.76,0,0,0,97.25,99l.45,2.53c-.66.19-1.33.37-2,.52v-.78a2.77,2.77,0,0,0-5.54,0v1.6c-.87.07-1.76.1-2.65.1s-1.57,0-2.34-.08V101.3a2.77,2.77,0,1,0-5.53,0v.85c-.68-.15-1.36-.32-2-.51L78.07,99a2.77,2.77,0,0,0-2.25-3.2,2.7,2.7,0,0,0-.49,0,2.75,2.75,0,0,0-2.71,2.28l-.28,1.58q-.95-.45-1.83-1l.88-2.42a2.77,2.77,0,0,0-1.65-3.55,2.84,2.84,0,0,0-.95-.17,2.77,2.77,0,0,0-2.6,1.83l-.36,1a23.15,23.15,0,0,1-4.21-4.91h0a28.41,28.41,0,0,0,.77-6.58c0-4-1.16-7-3.13-8a.84.84,0,0,0-.23-.12,3.13,3.13,0,0,0-.92-.25,4.62,4.62,0,0,0-2.81.67,10.06,10.06,0,0,0-2.44,2c-7.17-5.64-11.53-13-11.53-21.16,0-11.62,8.94-21.79,22.3-27.4a64.18,64.18,0,0,1,47.72,0c.42.18.83.35,1.24.54l1.21.56,1,.47.36.19c.59.31,1.17.63,1.74,1l.41.24,1.1.66c.72.45,1.42.92,2.1,1.4C128.62,40.39,133.65,48.28,133.65,57Z" transform="translate(-41.33 -25)"/><g class="cls-3"><path class="cls-4" d="M122.13,78.15h0a10.06,10.06,0,0,0-2.44-2,6.51,6.51,0,0,0-1.2-.52,5.52,5.52,0,0,1,1.22.52A10,10,0,0,1,122.13,78.15Z" transform="translate(-41.33 -25)"/></g></g><path class="cls-5" d="M116.47,98.57c-5.32,12.71-16.3,21.43-29,21.43-10.14,0-19.2-5.59-25.14-14.34a40.13,40.13,0,0,1-3.83-7.09h0a30.55,30.55,0,0,0,2.57-6.15,29.28,29.28,0,0,0,3.58,6.13l-1,2.65a2.78,2.78,0,0,0,1.66,3.55,2.78,2.78,0,0,0,3.55-1.66h0A28.52,28.52,0,0,0,71.4,105l-.4,2.26a2.77,2.77,0,0,0,5.45,1l.07-.41a27.22,27.22,0,0,0,3.11,1.09v2.31a2.77,2.77,0,1,0,5.53,0V109.9c.77.07,1.55.1,2.34.1a25.84,25.84,0,0,0,2.65-.13v1.32a2.77,2.77,0,0,0,5.54,0v-2.4a25.17,25.17,0,0,0,3.08-1.13l.1.54a2.77,2.77,0,0,0,5.45-1l-.44-2.46a26.5,26.5,0,0,0,2.44-1.93l.08.23a2.77,2.77,0,1,0,5.21-1.89l-1.07-2.94a29.35,29.35,0,0,0,3.36-5.84A31.84,31.84,0,0,0,116.47,98.57Z" transform="translate(-41.33 -25)"/><path class="cls-5" d="M87.5,25a62.07,62.07,0,0,0-23.87,4.6C50.27,35.21,41.33,45.38,41.33,57c0,8.12,4.36,15.52,11.53,21.16a10.06,10.06,0,0,1,2.44-2,4.62,4.62,0,0,1,2.81-.67,3.13,3.13,0,0,1,.92.25.84.84,0,0,1,.23.12c2,1,3.09,4,3.13,8a28.41,28.41,0,0,1-.77,6.58h0a23.15,23.15,0,0,0,4.21,4.91l.36-1a2.77,2.77,0,0,1,2.6-1.83,2.84,2.84,0,0,1,.95.17,2.77,2.77,0,0,1,1.65,3.55l-.88,2.42q.88.51,1.83,1l.28-1.58a2.75,2.75,0,0,1,2.71-2.28,2.7,2.7,0,0,1,.49,0A2.77,2.77,0,0,1,78.07,99l-.46,2.61c.66.19,1.34.36,2,.51v-.85a2.77,2.77,0,1,1,5.53,0v1.62c.77.06,1.55.08,2.34.08s1.78,0,2.65-.1v-1.6a2.77,2.77,0,1,1,5.54,0v.78c.68-.15,1.35-.33,2-.52L97.25,99a2.76,2.76,0,0,1,2.25-3.2,2.7,2.7,0,0,1,.49,0,2.75,2.75,0,0,1,2.71,2.28l.25,1.44c.62-.3,1.22-.63,1.8-1l-.83-2.27a2.78,2.78,0,0,1,1.66-3.55,2.84,2.84,0,0,1,1-.17,2.77,2.77,0,0,1,2.6,1.83l.28.76a22.78,22.78,0,0,0,4-4.69,28.49,28.49,0,0,1-.77-6.59c0-4,1.16-7,3.13-8a.84.84,0,0,1,.23-.12,3.13,3.13,0,0,1,.92-.25,4.62,4.62,0,0,1,2.81.67,10.06,10.06,0,0,1,2.44,2c7.17-5.64,11.53-13,11.53-21.16C133.67,39.33,113,25,87.5,25ZM63.09,69.42c-.48,0-1,0-1.43,0C54.29,69,48.53,65.2,48.53,60.65c0-2.19,2.08-5.4,5.1-8.26,3.66-3.46,8.69-6.4,13.09-6.4,8,0,14.56,8.93,14.56,13.77S71.12,69.42,63.09,69.42ZM87.5,90.85a5,5,0,0,0-1,.12h0c-2.4.52-4.2,2.21-4.2-3.07,0-4.69,3.17-13.5,4.59-17.22.42-1.08.68-1.72.68-1.72s5.27,12.9,5.27,18.94S90.41,90.85,87.5,90.85Zm23-21.43a23.79,23.79,0,0,1-4.54-.46c-6.87-1.3-13.65-5.24-13.65-9.2C92.28,54.92,98.8,46,106.83,46c3.49,0,7.37,1.84,10.65,4.33,4.29,3.25,7.55,7.59,7.55,10.33C125,65.49,118.51,69.42,110.47,69.42Z" transform="translate(-41.33 -25)"/><g class="cls-6"><path class="cls-7" d="M63.71,101.19a2.74,2.74,0,0,0,.21,2.33c-.54.7-1.06,1.42-1.56,2.14a40.13,40.13,0,0,1-3.83-7.09h0a30.55,30.55,0,0,0,2.57-6.15,29.28,29.28,0,0,0,3.58,6.13Z" transform="translate(-41.33 -25)"/><path class="cls-7" d="M71.31,94.18a2.73,2.73,0,0,0-1.57-1.46,2.84,2.84,0,0,0-.95-.17,2.77,2.77,0,0,0-2.6,1.83l-.36,1a23.15,23.15,0,0,1-4.21-4.91h0a28.41,28.41,0,0,0,.77-6.58c0-4-1.16-7-3.13-8a.84.84,0,0,0-.23-.12,3.13,3.13,0,0,0-.92-.25,4.62,4.62,0,0,0-2.81.67,10.06,10.06,0,0,0-2.44,2c-7.17-5.64-11.53-13-11.53-21.16,0-11.62,8.94-21.79,22.3-27.4-6.39,5.88-9.89,11.83-10,22.79-3,2.86-5.1,6.07-5.1,8.26,0,4.55,5.76,8.3,13.13,8.72C67.53,74.06,74.53,76.73,75,83.3,75.27,87.3,73.64,90.81,71.31,94.18Z" transform="translate(-41.33 -25)"/></g><g class="cls-3"><path class="cls-8" d="M111.27,101.19a2.74,2.74,0,0,1-.21,2.33c.54.7,1.06,1.42,1.56,2.14a40.13,40.13,0,0,0,3.83-7.09h0a30.55,30.55,0,0,1-2.57-6.15,29.28,29.28,0,0,1-3.58,6.13Z" transform="translate(-41.33 -25)"/><path class="cls-8" d="M103.67,94.18a2.73,2.73,0,0,1,1.57-1.46,2.84,2.84,0,0,1,1-.17,2.77,2.77,0,0,1,2.6,1.83l.36,1a23.15,23.15,0,0,0,4.21-4.91h0a28.41,28.41,0,0,1-.77-6.58c0-4,1.16-7,3.13-8a.84.84,0,0,1,.23-.12,3.13,3.13,0,0,1,.92-.25,4.62,4.62,0,0,1,2.81.67,10.06,10.06,0,0,1,2.44,2c7.17-5.64,11.53-13,11.53-21.16,0-11.62-8.94-21.79-22.3-27.4,6.39,5.88,8.63,12,8.74,23,3,2.86-5.34,3.68-5.34,5.87,0,4.55,3,4.29-1.43,10.93-5.87,4.69-12.87,7.36-13.33,13.93C99.71,87.3,101.34,90.81,103.67,94.18Z" transform="translate(-41.33 -25)"/></g><path class="cls-9" d="M52.7,53.76c3.37-3,4.86-8.14,12.93-10.16,7.38-1.84,17,10.75,18,13.52s-1.92,8.18-4.68,10-15.7,2.5-18.27,1.32-5.34-10.62-5.34-12.2S52.7,53.76,52.7,53.76Z" transform="translate(-41.33 -25)"/><path class="cls-7" d="M92.28,59.76c0,4,6.78,7.9,13.65,9.2-4.58-.11-7.47,3.79-9.45.36-1.64-2.85-8.77-5.41-7.78-8.18s11.48-19.38,18.86-17.54a16.71,16.71,0,0,1,9.92,6.72C114.2,47.83,110.32,46,106.83,46,98.8,46,92.28,54.92,92.28,59.76Z" transform="translate(-41.33 -25)"/><path class="cls-7" d="M86.43,91c-3.39,1.32-4.41,3-6,1.69s4.37-16.74,6.42-22C85.4,74.4,82.23,83.21,82.23,87.9,82.23,93.18,84,91.49,86.43,91Z" transform="translate(-41.33 -25)"/></g></g></svg>