<svg xmlns="http://www.w3.org/2000/svg" xmlns:xlink="http://www.w3.org/1999/xlink" height="50px" viewBox="0 0 100 50"><defs><style>.cls-1{isolation:isolate;}.cls-2{fill:#329400;}.cls-3{fill:#329500;}.cls-4{fill:#329600;}.cls-5{fill:#329700;}.cls-6{fill:#329800;}.cls-7{fill:#329900;}.cls-8{fill:#329a00;}.cls-9{fill:#329b00;}.cls-10{fill:#329c00;}.cls-11{fill:#329d00;}.cls-12{fill:#329e00;}.cls-13{fill:#329f00;}.cls-14{fill:#32a000;}.cls-15{fill:#32a100;}.cls-16{fill:#32a200;}.cls-17{fill:#32a300;}.cls-18{fill:#32a400;}.cls-19{fill:#32a500;}.cls-20{fill:#32a600;}.cls-21{fill:#32a700;}.cls-22{fill:#32a800;}.cls-23{fill:#32a900;}.cls-24{fill:#32aa00;}.cls-25{fill:#32ab00;}.cls-26{fill:#32ac00;}.cls-27{fill:#32ad00;}.cls-28{fill:#32ae00;}.cls-29{fill:#32af00;}.cls-30{fill:#32b000;}.cls-31{fill:#32b100;}.cls-32{fill:#32b200;}.cls-33{fill:#32b300;}.cls-34{fill:#32b400;}.cls-35{fill:#32b500;}.cls-36{fill:#32b600;}.cls-37{fill:#32b700;}.cls-38{fill:#32b800;}.cls-39{fill:#32b900;}.cls-40{fill:#32ba00;}.cls-41{fill:#32bb00;}.cls-42{fill:#32bc00;}.cls-43{fill:#32bd00;}.cls-44{fill:#32be00;}.cls-45{fill:#32bf00;}.cls-46{fill:#32c000;}.cls-47{fill:#32c100;}.cls-48{fill:#32c200;}.cls-49{fill:#32c300;}.cls-50{fill:#32c400;}.cls-51{fill:#32c500;}.cls-104,.cls-52{mix-blend-mode:screen;}.cls-52{fill:url(#linear-gradient);}.cls-53{opacity:0.15;mix-blend-mode:overlay;}.cls-54{fill:#940000;}.cls-55{fill:#950000;}.cls-56{fill:#960000;}.cls-57{fill:#970000;}.cls-58{fill:#980000;}.cls-59{fill:#900;}.cls-60{fill:#9a0000;}.cls-61{fill:#9b0000;}.cls-62{fill:#9c0000;}.cls-63{fill:#9d0000;}.cls-64{fill:#9e0000;}.cls-65{fill:#9f0000;}.cls-66{fill:#a00000;}.cls-67{fill:#a10000;}.cls-68{fill:#a20000;}.cls-69{fill:#a30000;}.cls-70{fill:#a40000;}.cls-71{fill:#a50000;}.cls-72{fill:#a60000;}.cls-73{fill:#a70000;}.cls-74{fill:#a80000;}.cls-75{fill:#a90000;}.cls-76{fill:#a00;}.cls-77{fill:#ab0000;}.cls-78{fill:#ac0000;}.cls-79{fill:#ad0000;}.cls-80{fill:#ae0000;}.cls-81{fill:#af0000;}.cls-82{fill:#b00000;}.cls-83{fill:#b10000;}.cls-84{fill:#b20000;}.cls-85{fill:#b30000;}.cls-86{fill:#b40000;}.cls-87{fill:#b50000;}.cls-88{fill:#b60000;}.cls-89{fill:#b70000;}.cls-90{fill:#b80000;}.cls-91{fill:#b90000;}.cls-92{fill:#ba0000;}.cls-93{fill:#b00;}.cls-94{fill:#bc0000;}.cls-95{fill:#bd0000;}.cls-96{fill:#be0000;}.cls-97{fill:#bf0000;}.cls-98{fill:#c00000;}.cls-99{fill:#c10000;}.cls-100{fill:#c20000;}.cls-101{fill:#c30000;}.cls-102{fill:#c40000;}.cls-103{fill:#c50000;}.cls-104{fill:url(#linear-gradient-2);}</style><linearGradient id="linear-gradient" x1="24.91" y1="6.93" x2="24.91" y2="22.38" gradientUnits="userSpaceOnUse"><stop offset="0" stop-color="#fff"/><stop offset="1"/></linearGradient><linearGradient id="linear-gradient-2" x1="74.91" y1="6.93" x2="74.91" y2="22.38" xlink:href="#linear-gradient"/></defs><g class="cls-1"><g id="Layer_1" data-name="Layer 1"><g id="Green"><circle class="cls-2" cx="24.91" cy="25.09" r="20.86"/><circle class="cls-3" cx="24.91" cy="25.19" r="20.7"/><circle class="cls-4" cx="24.91" cy="25.29" r="20.53"/><circle class="cls-5" cx="24.91" cy="25.39" r="20.36"/><circle class="cls-6" cx="24.91" cy="25.49" r="20.2"/><circle class="cls-7" cx="24.91" cy="25.59" r="20.03"/><circle class="cls-8" cx="24.91" cy="25.69" r="19.86"/><circle class="cls-9" cx="24.91" cy="25.79" r="19.7"/><circle class="cls-10" cx="24.91" cy="25.89" r="19.53"/><circle class="cls-11" cx="24.91" cy="25.99" r="19.36"/><circle class="cls-12" cx="24.91" cy="26.09" r="19.2"/><circle class="cls-13" cx="24.91" cy="26.19" r="19.03"/><circle class="cls-14" cx="24.91" cy="26.29" r="18.86"/><circle class="cls-15" cx="24.91" cy="26.39" r="18.69"/><circle class="cls-16" cx="24.91" cy="26.49" r="18.53"/><circle class="cls-17" cx="24.91" cy="26.59" r="18.36"/><circle class="cls-18" cx="24.91" cy="26.69" r="18.19"/><circle class="cls-19" cx="24.91" cy="26.79" r="18.03"/><circle class="cls-20" cx="24.91" cy="26.89" r="17.86"/><circle class="cls-21" cx="24.91" cy="26.99" r="17.69"/><circle class="cls-22" cx="24.91" cy="27.09" r="17.53"/><circle class="cls-23" cx="24.91" cy="27.19" r="17.36"/><circle class="cls-24" cx="24.91" cy="27.29" r="17.19"/><circle class="cls-25" cx="24.91" cy="27.39" r="17.03"/><circle class="cls-26" cx="24.91" cy="27.49" r="16.86"/><circle class="cls-27" cx="24.91" cy="27.59" r="16.69"/><circle class="cls-27" cx="24.91" cy="27.69" r="16.52"/><circle class="cls-28" cx="24.91" cy="27.79" r="16.36"/><circle class="cls-29" cx="24.91" cy="27.89" r="16.19"/><circle class="cls-30" cx="24.91" cy="27.99" r="16.02"/><circle class="cls-31" cx="24.91" cy="28.09" r="15.86"/><circle class="cls-32" cx="24.91" cy="28.19" r="15.69"/><circle class="cls-33" cx="24.91" cy="28.29" r="15.52"/><circle class="cls-34" cx="24.91" cy="28.39" r="15.36"/><circle class="cls-35" cx="24.91" cy="28.49" r="15.19"/><circle class="cls-36" cx="24.91" cy="28.59" r="15.02"/><circle class="cls-37" cx="24.91" cy="28.69" r="14.86"/><circle class="cls-38" cx="24.91" cy="28.79" r="14.69"/><circle class="cls-39" cx="24.91" cy="28.89" r="14.52"/><circle class="cls-40" cx="24.91" cy="28.99" r="14.35"/><circle class="cls-41" cx="24.91" cy="29.09" r="14.19"/><circle class="cls-42" cx="24.91" cy="29.19" r="14.02"/><circle class="cls-43" cx="24.91" cy="29.29" r="13.85"/><circle class="cls-44" cx="24.91" cy="29.39" r="13.69"/><circle class="cls-45" cx="24.91" cy="29.49" r="13.52"/><circle class="cls-46" cx="24.91" cy="29.59" r="13.35"/><circle class="cls-47" cx="24.91" cy="29.69" r="13.19"/><circle class="cls-48" cx="24.91" cy="29.79" r="13.02"/><circle class="cls-49" cx="24.91" cy="29.89" r="12.85"/><circle class="cls-50" cx="24.91" cy="29.99" r="12.69"/><circle class="cls-51" cx="24.91" cy="30.09" r="12.52"/><path class="cls-52" d="M39.86,16c0,5-6.69,6.41-14.95,6.41S10,21,10,16s6.69-9,14.94-9S39.86,11,39.86,16Z"/><g class="cls-53"><path d="M28.87,25.19l-1.48.49c-1.94.63-2.16,1-2.16,2.52v2.57H23.56L23,28.88a12,12,0,0,1-.68-3.15c0-1.31.9-2.12,3.6-3L28.38,22a3.22,3.22,0,0,0,2.56-3.15c0-2.21-1.8-4.55-3.64-6.21l4.9,3.19L23.88,14.3c-2.66-.5-3.2-1.31-3.2-2.39,0-1.35.81-2,2.43-2.43,3.74.36,10.22,4.19,10.22,10C33.33,22.31,31.89,24.2,28.87,25.19ZM21.54,38.06a2.84,2.84,0,1,1,5.67,0,2.84,2.84,0,0,1-5.67,0Z"/></g><g class="cls-53"><path d="M28.87,25.19l-1.48.49c-1.94.63-2.16,1-2.16,2.52v2.57H23.56L23,28.88a12,12,0,0,1-.68-3.15c0-1.31.9-2.12,3.6-3L28.38,22a3.22,3.22,0,0,0,2.56-3.15c0-2.21-1.8-4.55-3.64-6.21l4.9,3.19L23.88,14.3c-2.66-.5-3.2-1.31-3.2-2.39,0-1.35.81-2,2.43-2.43,3.74.36,10.22,4.19,10.22,10C33.33,22.31,31.89,24.2,28.87,25.19ZM21.54,38.06a2.84,2.84,0,1,1,5.67,0,2.84,2.84,0,0,1-5.67,0Z"/></g><g class="cls-53"><path d="M28.87,25.19l-1.48.49c-1.94.63-2.16,1-2.16,2.52v2.57H23.56L23,28.88a12,12,0,0,1-.68-3.15c0-1.31.9-2.12,3.6-3L28.38,22a3.22,3.22,0,0,0,2.56-3.15c0-2.21-1.8-4.55-3.64-6.21l4.9,3.19L23.88,14.3c-2.66-.5-3.2-1.31-3.2-2.39,0-1.35.81-2,2.43-2.43,3.74.36,10.22,4.19,10.22,10C33.33,22.31,31.89,24.2,28.87,25.19ZM21.54,38.06a2.84,2.84,0,1,1,5.67,0,2.84,2.84,0,0,1-5.67,0Z"/></g><g class="cls-53"><path d="M28.87,25.19l-1.48.49c-1.94.63-2.16,1-2.16,2.52v2.57H23.56L23,28.88a12,12,0,0,1-.68-3.15c0-1.31.9-2.12,3.6-3L28.38,22a3.22,3.22,0,0,0,2.56-3.15c0-2.21-1.8-4.55-3.64-6.21l4.9,3.19L23.88,14.3c-2.66-.5-3.2-1.31-3.2-2.39,0-1.35.81-2,2.43-2.43,3.74.36,10.22,4.19,10.22,10C33.33,22.31,31.89,24.2,28.87,25.19ZM21.54,38.06a2.84,2.84,0,1,1,5.67,0,2.84,2.84,0,0,1-5.67,0Z"/></g><g class="cls-53"><path d="M28.87,25.19l-1.48.49c-1.94.63-2.16,1-2.16,2.52v2.57H23.56L23,28.88a12,12,0,0,1-.68-3.15c0-1.31.9-2.12,3.6-3L28.38,22a3.22,3.22,0,0,0,2.56-3.15c0-2.21-1.8-4.55-3.64-6.21l4.9,3.19L23.88,14.3c-2.66-.5-3.2-1.31-3.2-2.39,0-1.35.81-2,2.43-2.43,3.74.36,10.22,4.19,10.22,10C33.33,22.31,31.89,24.2,28.87,25.19ZM21.54,38.06a2.84,2.84,0,1,1,5.67,0,2.84,2.84,0,0,1-5.67,0Z"/></g></g><g id="Red"><circle class="cls-54" cx="74.91" cy="25.09" r="20.86"/><circle class="cls-55" cx="74.91" cy="25.19" r="20.7"/><circle class="cls-56" cx="74.91" cy="25.29" r="20.53"/><circle class="cls-57" cx="74.91" cy="25.39" r="20.36"/><circle class="cls-58" cx="74.91" cy="25.49" r="20.2"/><circle class="cls-59" cx="74.91" cy="25.59" r="20.03"/><circle class="cls-60" cx="74.91" cy="25.69" r="19.86"/><circle class="cls-61" cx="74.91" cy="25.79" r="19.7"/><circle class="cls-62" cx="74.91" cy="25.89" r="19.53"/><circle class="cls-63" cx="74.91" cy="25.99" r="19.36"/><circle class="cls-64" cx="74.91" cy="26.09" r="19.2"/><circle class="cls-65" cx="74.91" cy="26.19" r="19.03"/><circle class="cls-66" cx="74.91" cy="26.29" r="18.86"/><circle class="cls-67" cx="74.91" cy="26.39" r="18.69"/><circle class="cls-68" cx="74.91" cy="26.49" r="18.53"/><circle class="cls-69" cx="74.91" cy="26.59" r="18.36"/><circle class="cls-70" cx="74.91" cy="26.69" r="18.19"/><circle class="cls-71" cx="74.91" cy="26.79" r="18.03"/><circle class="cls-72" cx="74.91" cy="26.89" r="17.86"/><circle class="cls-73" cx="74.91" cy="26.99" r="17.69"/><circle class="cls-74" cx="74.91" cy="27.09" r="17.53"/><circle class="cls-75" cx="74.91" cy="27.19" r="17.36"/><circle class="cls-76" cx="74.91" cy="27.29" r="17.19"/><circle class="cls-77" cx="74.91" cy="27.39" r="17.03"/><circle class="cls-78" cx="74.91" cy="27.49" r="16.86"/><circle class="cls-79" cx="74.91" cy="27.59" r="16.69"/><circle class="cls-79" cx="74.91" cy="27.69" r="16.52"/><circle class="cls-80" cx="74.91" cy="27.79" r="16.36"/><circle class="cls-81" cx="74.91" cy="27.89" r="16.19"/><circle class="cls-82" cx="74.91" cy="27.99" r="16.02"/><circle class="cls-83" cx="74.91" cy="28.09" r="15.86"/><circle class="cls-84" cx="74.91" cy="28.19" r="15.69"/><circle class="cls-85" cx="74.91" cy="28.29" r="15.52"/><circle class="cls-86" cx="74.91" cy="28.39" r="15.36"/><circle class="cls-87" cx="74.91" cy="28.49" r="15.19"/><circle class="cls-88" cx="74.91" cy="28.59" r="15.02"/><circle class="cls-89" cx="74.91" cy="28.69" r="14.86"/><circle class="cls-90" cx="74.91" cy="28.79" r="14.69"/><circle class="cls-91" cx="74.91" cy="28.89" r="14.52"/><circle class="cls-92" cx="74.91" cy="28.99" r="14.35"/><circle class="cls-93" cx="74.91" cy="29.09" r="14.19"/><circle class="cls-94" cx="74.91" cy="29.19" r="14.02"/><circle class="cls-95" cx="74.91" cy="29.29" r="13.85"/><circle class="cls-96" cx="74.91" cy="29.39" r="13.69"/><circle class="cls-97" cx="74.91" cy="29.49" r="13.52"/><circle class="cls-98" cx="74.91" cy="29.59" r="13.35"/><circle class="cls-99" cx="74.91" cy="29.69" r="13.19"/><circle class="cls-100" cx="74.91" cy="29.79" r="13.02"/><circle class="cls-101" cx="74.91" cy="29.89" r="12.85"/><circle class="cls-102" cx="74.91" cy="29.99" r="12.69"/><circle class="cls-103" cx="74.91" cy="30.09" r="12.52"/><path class="cls-104" d="M89.86,16c0,5-6.69,6.41-15,6.41S60,21,60,16s6.69-9,14.94-9S89.86,11,89.86,16Z"/><g class="cls-53"><path d="M78.87,25.19l-1.48.49c-1.94.63-2.16,1-2.16,2.52v2.57H73.56L73,28.88a12,12,0,0,1-.68-3.15c0-1.31.9-2.12,3.6-3L78.38,22a3.22,3.22,0,0,0,2.56-3.15c0-2.21-1.8-4.55-3.64-6.21l4.9,3.19L73.88,14.3c-2.66-.5-3.2-1.31-3.2-2.39,0-1.35.81-2,2.43-2.43,3.74.36,10.22,4.19,10.22,10C83.33,22.31,81.89,24.2,78.87,25.19ZM71.54,38.06a2.84,2.84,0,1,1,5.67,0,2.84,2.84,0,0,1-5.67,0Z"/></g><g class="cls-53"><path d="M78.87,25.19l-1.48.49c-1.94.63-2.16,1-2.16,2.52v2.57H73.56L73,28.88a12,12,0,0,1-.68-3.15c0-1.31.9-2.12,3.6-3L78.38,22a3.22,3.22,0,0,0,2.56-3.15c0-2.21-1.8-4.55-3.64-6.21l4.9,3.19L73.88,14.3c-2.66-.5-3.2-1.31-3.2-2.39,0-1.35.81-2,2.43-2.43,3.74.36,10.22,4.19,10.22,10C83.33,22.31,81.89,24.2,78.87,25.19ZM71.54,38.06a2.84,2.84,0,1,1,5.67,0,2.84,2.84,0,0,1-5.67,0Z"/></g><g class="cls-53"><path d="M78.87,25.19l-1.48.49c-1.94.63-2.16,1-2.16,2.52v2.57H73.56L73,28.88a12,12,0,0,1-.68-3.15c0-1.31.9-2.12,3.6-3L78.38,22a3.22,3.22,0,0,0,2.56-3.15c0-2.21-1.8-4.55-3.64-6.21l4.9,3.19L73.88,14.3c-2.66-.5-3.2-1.31-3.2-2.39,0-1.35.81-2,2.43-2.43,3.74.36,10.22,4.19,10.22,10C83.33,22.31,81.89,24.2,78.87,25.19ZM71.54,38.06a2.84,2.84,0,1,1,5.67,0,2.84,2.84,0,0,1-5.67,0Z"/></g><g class="cls-53"><path d="M78.87,25.19l-1.48.49c-1.94.63-2.16,1-2.16,2.52v2.57H73.56L73,28.88a12,12,0,0,1-.68-3.15c0-1.31.9-2.12,3.6-3L78.38,22a3.22,3.22,0,0,0,2.56-3.15c0-2.21-1.8-4.55-3.64-6.21l4.9,3.19L73.88,14.3c-2.66-.5-3.2-1.31-3.2-2.39,0-1.35.81-2,2.43-2.43,3.74.36,10.22,4.19,10.22,10C83.33,22.31,81.89,24.2,78.87,25.19ZM71.54,38.06a2.84,2.84,0,1,1,5.67,0,2.84,2.84,0,0,1-5.67,0Z"/></g><g class="cls-53"><path d="M78.87,25.19l-1.48.49c-1.94.63-2.16,1-2.16,2.52v2.57H73.56L73,28.88a12,12,0,0,1-.68-3.15c0-1.31.9-2.12,3.6-3L78.38,22a3.22,3.22,0,0,0,2.56-3.15c0-2.21-1.8-4.55-3.64-6.21l4.9,3.19L73.88,14.3c-2.66-.5-3.2-1.31-3.2-2.39,0-1.35.81-2,2.43-2.43,3.74.36,10.22,4.19,10.22,10C83.33,22.31,81.89,24.2,78.87,25.19ZM71.54,38.06a2.84,2.84,0,1,1,5.67,0,2.84,2.84,0,0,1-5.67,0Z"/></g></g></g></g></svg>