<svg xmlns="http://www.w3.org/2000/svg" xmlns:xlink="http://www.w3.org/1999/xlink" viewBox="0 0 41.73 41.73"><defs><style>.cls-1{isolation:isolate;}.cls-2{fill:#329400;}.cls-3{fill:#329500;}.cls-4{fill:#329600;}.cls-5{fill:#329700;}.cls-6{fill:#329800;}.cls-7{fill:#329900;}.cls-8{fill:#329a00;}.cls-9{fill:#329b00;}.cls-10{fill:#329c00;}.cls-11{fill:#329d00;}.cls-12{fill:#329e00;}.cls-13{fill:#329f00;}.cls-14{fill:#32a000;}.cls-15{fill:#32a100;}.cls-16{fill:#32a200;}.cls-17{fill:#32a300;}.cls-18{fill:#32a400;}.cls-19{fill:#32a500;}.cls-20{fill:#32a600;}.cls-21{fill:#32a700;}.cls-22{fill:#32a800;}.cls-23{fill:#32a900;}.cls-24{fill:#32aa00;}.cls-25{fill:#32ab00;}.cls-26{fill:#32ac00;}.cls-27{fill:#32ad00;}.cls-28{fill:#32ae00;}.cls-29{fill:#32af00;}.cls-30{fill:#32b000;}.cls-31{fill:#32b100;}.cls-32{fill:#32b200;}.cls-33{fill:#32b300;}.cls-34{fill:#32b400;}.cls-35{fill:#32b500;}.cls-36{fill:#32b600;}.cls-37{fill:#32b700;}.cls-38{fill:#32b800;}.cls-39{fill:#32b900;}.cls-40{fill:#32ba00;}.cls-41{fill:#32bb00;}.cls-42{fill:#32bc00;}.cls-43{fill:#32bd00;}.cls-44{fill:#32be00;}.cls-45{fill:#32bf00;}.cls-46{fill:#32c000;}.cls-47{fill:#32c100;}.cls-48{fill:#32c200;}.cls-49{fill:#32c300;}.cls-50{fill:#32c400;}.cls-51{fill:#32c500;}.cls-52{mix-blend-mode:screen;fill:url(#linear-gradient);}.cls-53{opacity:0.15;mix-blend-mode:overlay;}</style><linearGradient id="linear-gradient" x1="20.86" y1="2.7" x2="20.86" y2="18.15" gradientUnits="userSpaceOnUse"><stop offset="0" stop-color="#fff"/><stop offset="1"/></linearGradient></defs><g class="cls-1"><g id="Layer_2" data-name="Layer 2"><g id="Layer_1-2" data-name="Layer 1"><g id="Green"><circle class="cls-2" cx="20.86" cy="20.86" r="20.86"/><circle class="cls-3" cx="20.86" cy="20.96" r="20.7"/><circle class="cls-4" cx="20.86" cy="21.06" r="20.53"/><circle class="cls-5" cx="20.86" cy="21.16" r="20.36"/><circle class="cls-6" cx="20.86" cy="21.26" r="20.2"/><circle class="cls-7" cx="20.86" cy="21.36" r="20.03"/><circle class="cls-8" cx="20.86" cy="21.46" r="19.86"/><circle class="cls-9" cx="20.86" cy="21.56" r="19.7"/><circle class="cls-10" cx="20.86" cy="21.66" r="19.53"/><circle class="cls-11" cx="20.86" cy="21.76" r="19.36"/><circle class="cls-12" cx="20.86" cy="21.86" r="19.2"/><circle class="cls-13" cx="20.86" cy="21.96" r="19.03"/><circle class="cls-14" cx="20.86" cy="22.06" r="18.86"/><circle class="cls-15" cx="20.86" cy="22.16" r="18.69"/><circle class="cls-16" cx="20.86" cy="22.26" r="18.53"/><circle class="cls-17" cx="20.86" cy="22.36" r="18.36"/><circle class="cls-18" cx="20.86" cy="22.46" r="18.19"/><circle class="cls-19" cx="20.86" cy="22.56" r="18.03"/><circle class="cls-20" cx="20.86" cy="22.66" r="17.86"/><circle class="cls-21" cx="20.86" cy="22.76" r="17.69"/><circle class="cls-22" cx="20.86" cy="22.86" r="17.53"/><circle class="cls-23" cx="20.86" cy="22.96" r="17.36"/><circle class="cls-24" cx="20.86" cy="23.06" r="17.19"/><circle class="cls-25" cx="20.86" cy="23.16" r="17.03"/><circle class="cls-26" cx="20.86" cy="23.26" r="16.86"/><circle class="cls-27" cx="20.86" cy="23.36" r="16.69"/><circle class="cls-27" cx="20.86" cy="23.46" r="16.52"/><circle class="cls-28" cx="20.86" cy="23.56" r="16.36"/><circle class="cls-29" cx="20.86" cy="23.66" r="16.19"/><circle class="cls-30" cx="20.86" cy="23.76" r="16.02"/><circle class="cls-31" cx="20.86" cy="23.86" r="15.86"/><circle class="cls-32" cx="20.86" cy="23.96" r="15.69"/><circle class="cls-33" cx="20.86" cy="24.06" r="15.52"/><circle class="cls-34" cx="20.86" cy="24.16" r="15.36"/><circle class="cls-35" cx="20.86" cy="24.26" r="15.19"/><circle class="cls-36" cx="20.86" cy="24.36" r="15.02"/><circle class="cls-37" cx="20.86" cy="24.46" r="14.86"/><circle class="cls-38" cx="20.86" cy="24.56" r="14.69"/><circle class="cls-39" cx="20.86" cy="24.66" r="14.52"/><circle class="cls-40" cx="20.86" cy="24.76" r="14.35"/><circle class="cls-41" cx="20.86" cy="24.86" r="14.19"/><circle class="cls-42" cx="20.86" cy="24.96" r="14.02"/><circle class="cls-43" cx="20.86" cy="25.06" r="13.85"/><circle class="cls-44" cx="20.86" cy="25.16" r="13.69"/><circle class="cls-45" cx="20.86" cy="25.26" r="13.52"/><circle class="cls-46" cx="20.86" cy="25.36" r="13.35"/><circle class="cls-47" cx="20.86" cy="25.46" r="13.19"/><circle class="cls-48" cx="20.86" cy="25.56" r="13.02"/><circle class="cls-49" cx="20.86" cy="25.66" r="12.85"/><circle class="cls-50" cx="20.86" cy="25.76" r="12.69"/><circle class="cls-51" cx="20.86" cy="25.86" r="12.52"/><path class="cls-52" d="M35.81,11.74c0,5-6.69,6.41-15,6.41S5.92,16.73,5.92,11.74s6.69-9,14.94-9S35.81,6.75,35.81,11.74Z"/><g class="cls-53"><path d="M24.82,21l-1.48.49c-1.94.63-2.16,1-2.16,2.52v2.57H19.51l-.58-1.89a12,12,0,0,1-.68-3.15c0-1.31.9-2.12,3.6-3l2.48-.81a3.22,3.22,0,0,0,2.56-3.15c0-2.21-1.8-4.55-3.64-6.21l4.9,3.19-8.32-1.48c-2.66-.5-3.2-1.31-3.2-2.39,0-1.35.81-2,2.43-2.43,3.74.36,10.22,4.19,10.22,10C29.28,18.08,27.84,20,24.82,21ZM17.49,33.83a2.84,2.84,0,1,1,5.67,0,2.84,2.84,0,0,1-5.67,0Z"/></g><g class="cls-53"><path d="M24.82,21l-1.48.49c-1.94.63-2.16,1-2.16,2.52v2.57H19.51l-.58-1.89a12,12,0,0,1-.68-3.15c0-1.31.9-2.12,3.6-3l2.48-.81a3.22,3.22,0,0,0,2.56-3.15c0-2.21-1.8-4.55-3.64-6.21l4.9,3.19-8.32-1.48c-2.66-.5-3.2-1.31-3.2-2.39,0-1.35.81-2,2.43-2.43,3.74.36,10.22,4.19,10.22,10C29.28,18.08,27.84,20,24.82,21ZM17.49,33.83a2.84,2.84,0,1,1,5.67,0,2.84,2.84,0,0,1-5.67,0Z"/></g><g class="cls-53"><path d="M24.82,21l-1.48.49c-1.94.63-2.16,1-2.16,2.52v2.57H19.51l-.58-1.89a12,12,0,0,1-.68-3.15c0-1.31.9-2.12,3.6-3l2.48-.81a3.22,3.22,0,0,0,2.56-3.15c0-2.21-1.8-4.55-3.64-6.21l4.9,3.19-8.32-1.48c-2.66-.5-3.2-1.31-3.2-2.39,0-1.35.81-2,2.43-2.43,3.74.36,10.22,4.19,10.22,10C29.28,18.08,27.84,20,24.82,21ZM17.49,33.83a2.84,2.84,0,1,1,5.67,0,2.84,2.84,0,0,1-5.67,0Z"/></g><g class="cls-53"><path d="M24.82,21l-1.48.49c-1.94.63-2.16,1-2.16,2.52v2.57H19.51l-.58-1.89a12,12,0,0,1-.68-3.15c0-1.31.9-2.12,3.6-3l2.48-.81a3.22,3.22,0,0,0,2.56-3.15c0-2.21-1.8-4.55-3.64-6.21l4.9,3.19-8.32-1.48c-2.66-.5-3.2-1.31-3.2-2.39,0-1.35.81-2,2.43-2.43,3.74.36,10.22,4.19,10.22,10C29.28,18.08,27.84,20,24.82,21ZM17.49,33.83a2.84,2.84,0,1,1,5.67,0,2.84,2.84,0,0,1-5.67,0Z"/></g><g class="cls-53"><path d="M24.82,21l-1.48.49c-1.94.63-2.16,1-2.16,2.52v2.57H19.51l-.58-1.89a12,12,0,0,1-.68-3.15c0-1.31.9-2.12,3.6-3l2.48-.81a3.22,3.22,0,0,0,2.56-3.15c0-2.21-1.8-4.55-3.64-6.21l4.9,3.19-8.32-1.48c-2.66-.5-3.2-1.31-3.2-2.39,0-1.35.81-2,2.43-2.43,3.74.36,10.22,4.19,10.22,10C29.28,18.08,27.84,20,24.82,21ZM17.49,33.83a2.84,2.84,0,1,1,5.67,0,2.84,2.84,0,0,1-5.67,0Z"/></g></g></g></g></g></svg>