<svg xmlns="http://www.w3.org/2000/svg" xmlns:xlink="http://www.w3.org/1999/xlink" height="1200px" viewBox="0 0 175 1200"><defs><style>.cls-1{isolation:isolate;}.cls-10,.cls-17,.cls-2,.cls-41,.cls-54,.cls-55,.cls-9{fill:#fff;}.cls-3{fill:#170010;}.cls-4{fill:#1e2161;}.cls-5{fill:#23527d;}.cls-6{fill:#0f1236;}.cls-17,.cls-28,.cls-7{opacity:0.5;}.cls-16,.cls-27,.cls-43,.cls-44,.cls-51,.cls-52,.cls-54,.cls-7{mix-blend-mode:multiply;}.cls-8{fill:#e7a600;}.cls-9{opacity:0.17;}.cls-10,.cls-17,.cls-28,.cls-38,.cls-41,.cls-53,.cls-55,.cls-9{mix-blend-mode:screen;}.cls-10{opacity:0.29;}.cls-11{fill:none;stroke:#1e2161;}.cls-11,.cls-14,.cls-15,.cls-20,.cls-21{stroke-miterlimit:10;}.cls-12,.cls-15{fill:#291ef7;}.cls-13{fill:#1a13a1;}.cls-14{fill:#4e0092;stroke:#003b2a;stroke-width:0.29px;}.cls-15{stroke:#1a13a1;}.cls-16{opacity:0.24;}.cls-18{fill:#706aeb;}.cls-19{fill:url(#radial-gradient);}.cls-20{fill:#ffebeb;}.cls-20,.cls-21{stroke:#fcbdbd;}.cls-21,.cls-22{fill:#915353;}.cls-23{fill:#fcbdbd;}.cls-24{fill:#ffa200;}.cls-25{fill:#ff0;}.cls-26{fill:#ffe4d6;}.cls-27,.cls-38{opacity:0.1;}.cls-29{fill:#ffddb3;}.cls-30,.cls-31,.cls-32{fill:blue;}.cls-30,.cls-48{opacity:0.51;}.cls-31,.cls-49{opacity:0.75;}.cls-33{fill:#f15a24;}.cls-34{fill:#f7931e;}.cls-35{opacity:0.26;}.cls-35,.cls-36,.cls-46{mix-blend-mode:darken;}.cls-36{opacity:0.11;}.cls-37{fill:#a126ff;}.cls-39{fill:#2b2b2b;}.cls-40{fill:#df0000;}.cls-41{opacity:0.46;}.cls-42{fill:#315c4e;}.cls-43{opacity:0.36;}.cls-44{opacity:0.47;}.cls-45{fill:#fbb03b;}.cls-46{opacity:0.19;}.cls-47,.cls-48,.cls-49{fill:#170001;}.cls-50{fill:#a7b0b8;}.cls-52{opacity:0.4;}.cls-54{opacity:0.54;}.cls-55{opacity:0.3;}</style><radialGradient id="radial-gradient" cx="85.24" cy="418.93" r="40.06" gradientTransform="translate(0 -386.75) scale(1 1.92)" gradientUnits="userSpaceOnUse"><stop offset="0.01" stop-color="#2affca"/><stop offset="0.14" stop-color="#29fcc7"/><stop offset="0.24" stop-color="#28f2c0"/><stop offset="0.33" stop-color="#25e1b2"/><stop offset="0.42" stop-color="#21c99f"/><stop offset="0.5" stop-color="#1cab87"/><stop offset="0.58" stop-color="#168569"/><stop offset="0.66" stop-color="#0f5846"/><stop offset="0.73" stop-color="#06261e"/><stop offset="0.78"/></radialGradient></defs><g class="cls-1"><g id="Layer_1" data-name="Layer 1"><rect class="cls-2" x="3" y="10" width="16" height="10" rx="1.96"/><rect class="cls-2" x="3" y="40" width="16" height="10" rx="1.96"/><rect class="cls-2" x="3" y="70" width="16" height="10" rx="1.96"/><rect class="cls-2" x="3" y="100" width="16" height="10" rx="1.96"/><rect class="cls-2" x="3" y="130" width="16" height="10" rx="1.96"/><rect class="cls-2" x="3" y="160" width="16" height="10" rx="1.96"/><rect class="cls-2" x="3" y="190" width="16" height="10" rx="1.96"/><rect class="cls-2" x="3" y="220" width="16" height="10" rx="1.96"/><rect class="cls-2" x="3" y="250" width="16" height="10" rx="1.96"/><rect class="cls-2" x="3" y="280" width="16" height="10" rx="1.96"/><rect class="cls-2" x="3" y="310" width="16" height="10" rx="1.96"/><rect class="cls-2" x="3" y="340" width="16" height="10" rx="1.96"/><rect class="cls-2" x="3" y="370" width="16" height="10" rx="1.96"/><rect class="cls-2" x="3" y="400" width="16" height="10" rx="1.96"/><rect class="cls-2" x="3" y="430" width="16" height="10" rx="1.96"/><rect class="cls-2" x="3" y="460" width="16" height="10" rx="1.96"/><rect class="cls-2" x="3" y="490" width="16" height="10" rx="1.96"/><rect class="cls-2" x="3" y="520" width="16" height="10" rx="1.96"/><rect class="cls-2" x="3" y="550" width="16" height="10" rx="1.96"/><rect class="cls-2" x="3" y="580" width="16" height="10" rx="1.96"/><rect class="cls-2" x="3" y="610" width="16" height="10" rx="1.96"/><rect class="cls-2" x="3" y="640" width="16" height="10" rx="1.96"/><rect class="cls-2" x="3" y="670" width="16" height="10" rx="1.96"/><rect class="cls-2" x="3" y="700" width="16" height="10" rx="1.96"/><rect class="cls-2" x="3" y="730" width="16" height="10" rx="1.96"/><rect class="cls-2" x="3" y="760" width="16" height="10" rx="1.96"/><rect class="cls-2" x="3" y="790" width="16" height="10" rx="1.96"/><rect class="cls-2" x="3" y="820" width="16" height="10" rx="1.96"/><rect class="cls-2" x="3" y="850" width="16" height="10" rx="1.96"/><rect class="cls-2" x="3" y="880" width="16" height="10" rx="1.96"/><rect class="cls-2" x="3" y="910" width="16" height="10" rx="1.96"/><rect class="cls-2" x="3" y="940" width="16" height="10" rx="1.96"/><rect class="cls-2" x="3" y="970" width="16" height="10" rx="1.96"/><rect class="cls-2" x="3" y="1000" width="16" height="10" rx="1.96"/><rect class="cls-2" x="3" y="1030" width="16" height="10" rx="1.96"/><rect class="cls-2" x="3" y="1060" width="16" height="10" rx="1.96"/><rect class="cls-2" x="3" y="1090" width="16" height="10" rx="1.96"/><rect class="cls-2" x="3" y="1120" width="16" height="10" rx="1.96"/><rect class="cls-2" x="3" y="1150" width="16" height="10" rx="1.96"/><rect class="cls-2" x="3" y="1180" width="16" height="10" rx="1.96"/><rect class="cls-2" x="156" y="10" width="16" height="10" rx="1.96"/><rect class="cls-2" x="156" y="40" width="16" height="10" rx="1.96"/><rect class="cls-2" x="156" y="70" width="16" height="10" rx="1.96"/><rect class="cls-2" x="156" y="100" width="16" height="10" rx="1.96"/><rect class="cls-2" x="156" y="130" width="16" height="10" rx="1.96"/><rect class="cls-2" x="156" y="160" width="16" height="10" rx="1.96"/><rect class="cls-2" x="156" y="190" width="16" height="10" rx="1.96"/><rect class="cls-2" x="156" y="220" width="16" height="10" rx="1.96"/><rect class="cls-2" x="156" y="250" width="16" height="10" rx="1.96"/><rect class="cls-2" x="156" y="280" width="16" height="10" rx="1.96"/><rect class="cls-2" x="156" y="310" width="16" height="10" rx="1.96"/><rect class="cls-2" x="156" y="340" width="16" height="10" rx="1.96"/><rect class="cls-2" x="156" y="370" width="16" height="10" rx="1.96"/><rect class="cls-2" x="156" y="400" width="16" height="10" rx="1.96"/><rect class="cls-2" x="156" y="430" width="16" height="10" rx="1.96"/><rect class="cls-2" x="156" y="460" width="16" height="10" rx="1.96"/><rect class="cls-2" x="156" y="490" width="16" height="10" rx="1.96"/><rect class="cls-2" x="156" y="520" width="16" height="10" rx="1.96"/><rect class="cls-2" x="156" y="550" width="16" height="10" rx="1.96"/><rect class="cls-2" x="156" y="580" width="16" height="10" rx="1.96"/><rect class="cls-2" x="156" y="610" width="16" height="10" rx="1.96"/><rect class="cls-2" x="156" y="640" width="16" height="10" rx="1.96"/><rect class="cls-2" x="156" y="670" width="16" height="10" rx="1.96"/><rect class="cls-2" x="156" y="700" width="16" height="10" rx="1.96"/><rect class="cls-2" x="156" y="730" width="16" height="10" rx="1.96"/><rect class="cls-2" x="156" y="760" width="16" height="10" rx="1.96"/><rect class="cls-2" x="156" y="790" width="16" height="10" rx="1.96"/><rect class="cls-2" x="156" y="820" width="16" height="10" rx="1.96"/><rect class="cls-2" x="156" y="850" width="16" height="10" rx="1.96"/><rect class="cls-2" x="156" y="880" width="16" height="10" rx="1.96"/><rect class="cls-2" x="156" y="910" width="16" height="10" rx="1.96"/><rect class="cls-2" x="156" y="940" width="16" height="10" rx="1.96"/><rect class="cls-2" x="156" y="970" width="16" height="10" rx="1.96"/><rect class="cls-2" x="156" y="1000" width="16" height="10" rx="1.96"/><rect class="cls-2" x="156" y="1030" width="16" height="10" rx="1.96"/><rect class="cls-2" x="156" y="1060" width="16" height="10" rx="1.96"/><rect class="cls-2" x="156" y="1090" width="16" height="10" rx="1.96"/><rect class="cls-2" x="156" y="1120" width="16" height="10" rx="1.96"/><rect class="cls-2" x="156" y="1150" width="16" height="10" rx="1.96"/><rect class="cls-2" x="156" y="1180" width="16" height="10" rx="1.96"/><g id="Haunted_House" data-name="Haunted House"><path class="cls-2" d="M71.45,1077.26h-35c.06-2.63,3-4.75,6.62-4.75a8,8,0,0,1,4.45,1.27,9.74,9.74,0,0,1,6.82-2.46,9.87,9.87,0,0,1,6.61,2.27,5.93,5.93,0,0,1,2.79-.68,5.54,5.54,0,0,1,4,1.61c.12,0,.23,0,.35,0A3.21,3.21,0,0,1,71.45,1077.26Z"/><path class="cls-2" d="M91.65,1082.4h35c-.06-2.63-3-4.75-6.62-4.75a8,8,0,0,0-4.45,1.27,9.74,9.74,0,0,0-6.82-2.46,9.87,9.87,0,0,0-6.61,2.27,5.93,5.93,0,0,0-2.79-.68,5.54,5.54,0,0,0-4,1.61c-.12,0-.23,0-.35,0A3.21,3.21,0,0,0,91.65,1082.4Z"/><path class="cls-3" d="M158,1181.3a39.83,39.83,0,0,1-1.28,10H21.66a37.6,37.6,0,0,1-1.16-10c.27-14,.83-19.24,3.8-22.86s8.34-5.61,18.22-13.14a79.58,79.58,0,0,1,20.68-11.38,75.39,75.39,0,0,1,26.05-4.62,88,88,0,0,1,26.76,4.09c8.23,2.63,13.1,9.07,20,12.91,16.11,9,13.14,8.54,16.62,14.76A41.2,41.2,0,0,1,158,1181.3Z"/><polygon class="cls-4" points="113.7 1093.64 113.57 1095.05 113.15 1099.61 110.21 1096.56 110 1093.3 112.39 1093.52 113.7 1093.64"/><polygon class="cls-4" points="67.86 1140.8 55 1140.8 52.52 1131.78 52.16 1130.45 46.65 1110.42 46.07 1108.31 45.38 1105.79 46.27 1105.22 49.02 1103.47 51.66 1101.79 62.02 1095.2 63.32 1094.38 63.56 1094.22 63.73 1096 64.07 1099.71 67.86 1140.8"/><polygon class="cls-4" points="63.32 1094.38 46.27 1105.22 45.38 1105.79 43.86 1100.27 45.87 1099.66 63.32 1094.38"/><rect class="cls-5" x="53.13" y="1100.05" width="3.82" height="1.45" rx="0.43" transform="translate(-326.68 66.84) rotate(-17.4)"/><rect class="cls-5" x="57.01" y="1098.86" width="3.82" height="1.45" rx="0.43" transform="translate(-326.15 67.95) rotate(-17.4)"/><rect class="cls-5" x="55.47" y="1101.13" width="3.82" height="1.45" rx="0.43" transform="translate(-326.9 67.59) rotate(-17.4)"/><path class="cls-5" d="M57.61,1104.25l-1.14.36a5.32,5.32,0,0,0-2.32-.07h0l-.07-.25a.42.42,0,0,1,.28-.53l2.83-.89a.43.43,0,0,1,.54.28l.17.57A.42.42,0,0,1,57.61,1104.25Z"/><path class="cls-5" d="M60.12,1105.23l-1.44.45a5.71,5.71,0,0,0-1.81-1l2.82-.89a.43.43,0,0,1,.53.28l.18.57A.43.43,0,0,1,60.12,1105.23Z"/><polygon class="cls-6" points="70 1090.14 66.79 1092.18 63.32 1094.38 46.27 1105.22 45.38 1105.79 40 1109.21 43.43 1066.3 70 1090.14"/><path class="cls-3" d="M67,1128.3Z"/><polygon class="cls-7" points="64.07 1099.71 62.8 1100.02 62.02 1095.2 63.32 1094.38 63.56 1094.22 63.73 1096 64.07 1099.71"/><path class="cls-8" d="M62.45,1123.06l-8.22,2.07L50,1112.52c-.05-.13-.09-.26-.13-.4l-.1-.29h0a5.85,5.85,0,0,1,4-7.21l.32-.08h0l.09.32a.44.44,0,0,0,.54.28l1.69-.53a1.76,1.76,0,0,1,.39.12.43.43,0,0,0-.29.54l.18.56a.43.43,0,0,0,.54.29l1.39-.44a6.13,6.13,0,0,1,2.15,3.33h0v0a6.36,6.36,0,0,1,.18,1.61Z"/><polygon class="cls-9" points="112.39 1093.52 112.25 1095.61 112.19 1096.56 111.98 1099.71 110.41 1099.52 110.21 1096.56 110.15 1095.58 110 1093.3 112.39 1093.52"/><polygon class="cls-4" points="92.7 1116.29 92.6 1118.62 91.6 1118.57 91.7 1116.29 92.7 1116.29"/><polygon class="cls-4" points="108.76 1085.3 104.74 1095.21 104.19 1096.56 103.81 1097.5 103.31 1098.73 93.48 1098.98 92.48 1099.01 77.18 1099.4 77.03 1098.44 76.89 1097.5 76.88 1097.5 76.74 1096.56 76.6 1095.63 75.83 1090.67 75.61 1089.22 75 1085.3 108.76 1085.3"/><polygon class="cls-6" points="112 1087.35 70 1087.35 92.4 1075.3 112 1087.35"/><polygon class="cls-4" points="132 1095.3 127 1103.3 126.54 1106.67 126.35 1108.12 126.32 1108.32 126.13 1109.76 123.02 1132.76 122.89 1133.7 122.6 1135.86 122.4 1137.31 122 1140.3 116.67 1139.71 115.54 1102.08 115.12 1101.64 113.15 1099.61 113.44 1095.06 113.56 1094.39 113.7 1093.64 113.71 1093.64 113.84 1092.21 115 1079.3 117.19 1079.48 127 1080.31 125.53 1093.69 125.42 1094.7 126.81 1094.83 132 1095.3"/><polygon class="cls-7" points="125.83 1100.77 117.22 1141.15 116.42 1141.01 106.77 1139.27 108.48 1096.56 110.21 1096.56 110.15 1095.58 112.25 1095.61 121.37 1095.76 125.83 1100.77"/><path class="cls-4" d="M120,1096.56H79.4l.2.94H76.88l-.14-.94H64l-6,5.67,11,45.36,3.27.05,10.5.16,14.68.23,17.55.27.7-3.57.28-1.45.06-.32.28-1.43.1-.52.25-1.3,1-5.32.26-1.32,0-.23.28-1.43,3.06-15.68.29-1.45,1.37-7,.27-1.43.71-3.62Zm-20.12,12.91H97.43l-4.42,0-.31,6.85-.1,2.33-1,0,.1-2.28.31-6.86-4.49,0h-.9v-1h.83l4.6,0,.27-6.13.15-3.29,0-.94,1,0,0,.87-.15,3.32-.27,6.14,4.51,0h2.31Z"/><polygon class="cls-8" points="121 1103.3 117.27 1114.3 116.78 1115.75 115.69 1118.95 108.89 1117.49 109.86 1100.91 121 1103.3"/><polygon class="cls-4" points="115.12 1101.64 113 1101.3 113.15 1099.61 115.12 1101.64"/><rect class="cls-5" x="115.26" y="1082.85" width="3.82" height="1.45" rx="0.43" transform="translate(284.44 6.6) rotate(15)"/><polygon class="cls-8" points="79.13 1116.97 71.36 1118 66.47 1102.83 79.18 1101.14 79.13 1116.97"/><rect class="cls-4" x="112.76" y="1104.83" width="1" height="11.51" transform="translate(-959.63 802.16) rotate(-68.14)"/><path class="cls-8" d="M95.81,1108.92a.43.43,0,0,0,.43.43h1.21l0,.11-1,6.85-3.78,0h-1l-3.7,0-.48-6.86-.06-1-.4-5.7h1.36a.43.43,0,0,0,.43-.41h4.48l5.09,0-.77,5.58H96.24a.43.43,0,0,0-.43.43Z"/><polygon class="cls-8" points="87.81 1094.31 82.61 1094.28 82 1088.28 89 1088.3 87.81 1094.31"/><path class="cls-8" d="M102.31,1088.46l-.61,6-5,0a.37.37,0,0,0-.23-.19l-1.15-5.81Z"/><path class="cls-8" d="M100.55,1134.36h0v0a3.9,3.9,0,0,1-.36,1.61l-2.74,12-14.68-.23-1.62-12.56c0-.14,0-.28-.06-.42l0-.31h0a4,4,0,0,1,.65-2.17h.18a.43.43,0,0,0,.42-.43v-.37a7.24,7.24,0,0,1,1.08-1h.37a.43.43,0,0,0,.43-.43v-.09a13.75,13.75,0,0,1,6.55-1.63c5.38,0,9.77,2.6,9.81,5.91Z"/><path class="cls-8" d="M121.77,1084.61a3.94,3.94,0,0,0-.69-.21l-.28,0a3.31,3.31,0,0,0-2.45.58l2.14.57h0a.41.41,0,0,1,.28.51l-.15.57a.42.42,0,0,1-.47.31h0l-2.65-.71a.65.65,0,0,0,0,.13l0,.13a1.11,1.11,0,0,0,0,.19l-.16,1.45-.12,1-.37,3.31,2,.41,1,.2,1.71.36,1-2.39.36-.93.71-1.79a2.48,2.48,0,0,0,.27-.67v0A2.78,2.78,0,0,0,121.77,1084.61Z"/><rect class="cls-4" x="119.26" y="1085.38" width="1" height="8.34" transform="translate(-945.65 831.9) rotate(-70.13)"/><polygon class="cls-9" points="117.19 1079.48 115.43 1093.8 113.7 1093.64 115 1079.3 117.19 1079.48"/><path class="cls-10" d="M82.77,1147.8S68.49,1193.39,69,1192.91s57-1.22,56.48-1.46-28.06-43.34-28.06-43.34Z"/><line class="cls-11" x1="51.68" y1="1121.96" x2="65.26" y2="1118.14"/><line class="cls-11" x1="48.85" y1="1114.64" x2="63.09" y2="1110.42"/><line class="cls-11" x1="52.8" y1="1102.12" x2="59" y2="1126.25"/><line class="cls-11" x1="67.57" y1="1111.54" x2="81.35" y2="1109.24"/><line class="cls-11" x1="71.59" y1="1099.94" x2="75.88" y2="1120.31"/><polygon class="cls-4" points="99.88 1108.47 95.81 1108.45 95.81 1108.45 93.06 1108.44 93.52 1098.11 92.52 1098.07 92.33 1102.3 92.06 1108.43 87.46 1108.4 87.46 1108.41 86.63 1108.4 86.62 1109.4 87.52 1109.41 87.52 1109.41 92.01 1109.43 91.7 1116.29 91.7 1116.29 91.6 1118.57 92.6 1118.62 93.01 1109.44 97.43 1109.46 97.43 1109.46 99.88 1109.47 99.88 1108.47"/><line class="cls-11" x1="116.16" y1="1099.87" x2="111.95" y2="1120.91"/><path class="cls-4" d="M122.25,1082.65l-.48,2-1.17,4.71-.24,1-.68,2.75-.66,2.66-1-.24.65-2.62.71-2.89.24-1,.52-2.07a.42.42,0,0,0,.47-.31l.15-.57a.41.41,0,0,0-.28-.51l.29-1.16.48-1.95Z"/><line class="cls-11" x1="94.21" y1="1091.37" x2="103.31" y2="1091.57"/><line class="cls-11" x1="99.15" y1="1087.48" x2="98.96" y2="1095.65"/><rect class="cls-4" x="84.31" y="1086.68" width="1" height="9.44" transform="translate(-1009.43 1122.76) rotate(-87.2)"/><polygon class="cls-4" points="86.09 1087.35 85.67 1095.41 84.68 1095.36 85.08 1087.35 86.09 1087.35"/><rect class="cls-5" x="76.78" y="1087.59" width="3.82" height="1.45" rx="0.43"/><path class="cls-5" d="M78.63,1089.65v.6a.42.42,0,0,1-.43.42H75.83l-.22-1.45H78.2A.43.43,0,0,1,78.63,1089.65Z"/><rect class="cls-5" x="76.91" y="1090.91" width="3.82" height="1.45" rx="0.43"/><rect class="cls-5" x="90.71" y="1092.54" width="3.82" height="1.45" rx="0.43"/><rect class="cls-5" x="88.84" y="1094.29" width="3.82" height="1.45" rx="0.43"/><path class="cls-8" d="M96.69,1094.48H96.5l0-.19A.37.37,0,0,1,96.69,1094.48Z"/><path class="cls-5" d="M96.76,1094.7v.59a.42.42,0,0,1-.42.43h-3a.43.43,0,0,1-.43-.43v-.59a.43.43,0,0,1,.43-.43h3l.12,0,0,.19h.19A.34.34,0,0,1,96.76,1094.7Z"/><rect class="cls-5" x="117.75" y="1112.55" width="3.82" height="1.45" rx="0.43"/><path class="cls-5" d="M126.32,1108.32l-.19,1.44h0l-2.87-.76a.43.43,0,0,1-.3-.53l.15-.57a.43.43,0,0,1,.52-.31Z"/><path class="cls-5" d="M124.34,1106.57l-.16.58a.43.43,0,0,1-.52.3l-.64-.17.27-1.43.74.2A.43.43,0,0,1,124.34,1106.57Z"/><path class="cls-5" d="M126.54,1106.67l-.19,1.45-1.46-.39a.43.43,0,0,1-.3-.53l.15-.57a.43.43,0,0,1,.53-.3Z"/><path class="cls-5" d="M119.7,1114.73v.59a.43.43,0,0,1-.43.43h-2.49l.49-1.45h2A.43.43,0,0,1,119.7,1114.73Z"/><path class="cls-5" d="M121.65,1114.28l-.29,1.45h-1a.43.43,0,0,1-.43-.43v-.59a.43.43,0,0,1,.43-.43Z"/><rect class="cls-5" x="65.54" y="1122.46" width="3.82" height="1.45" rx="0.43"/><rect class="cls-5" x="69.6" y="1122.48" width="3.82" height="1.45" rx="0.43"/><rect class="cls-5" x="67.45" y="1124.19" width="3.82" height="1.45" rx="0.43"/><rect class="cls-5" x="65.47" y="1125.82" width="3.82" height="1.45" rx="0.43"/><rect class="cls-5" x="67.57" y="1127.5" width="3.82" height="1.45" rx="0.43"/><rect class="cls-5" x="109.16" y="1122.15" width="3.82" height="1.45" rx="0.43"/><rect class="cls-5" x="107.01" y="1123.86" width="3.82" height="1.45" rx="0.43"/><rect class="cls-5" x="105.03" y="1125.49" width="3.82" height="1.45" rx="0.43"/><rect class="cls-5" x="107.13" y="1127.17" width="3.82" height="1.45" rx="0.43"/><path class="cls-8" d="M84.2,1130.06v.09a.43.43,0,0,1-.43.43H83.4C83.65,1130.4,83.91,1130.23,84.2,1130.06Z"/><path class="cls-5" d="M84.2,1129.56v.5c-.29.17-.55.34-.8.52H80.81a.43.43,0,0,1-.43-.43v-.59a.43.43,0,0,1,.43-.43h3A.43.43,0,0,1,84.2,1129.56Z"/><rect class="cls-5" x="84.78" y="1122.55" width="3.82" height="1.45" rx="0.43"/><rect class="cls-5" x="82.23" y="1120.97" width="3.82" height="1.45" rx="0.43"/><rect class="cls-5" x="79.29" y="1119.37" width="3.82" height="1.45" rx="0.43"/><rect class="cls-5" x="83.52" y="1119.32" width="3.82" height="1.45" rx="0.43"/><rect class="cls-5" x="75.29" y="1144.12" width="3.82" height="1.45" rx="0.43"/><rect class="cls-5" x="72.74" y="1142.53" width="3.82" height="1.45" rx="0.43"/><rect class="cls-5" x="74.02" y="1140.88" width="3.82" height="1.45" rx="0.43"/><path class="cls-8" d="M82.32,1131.54v.37a.43.43,0,0,1-.42.43h-.18A4.91,4.91,0,0,1,82.32,1131.54Z"/><path class="cls-5" d="M82.32,1131.31v.23a4.91,4.91,0,0,0-.6.8H78.93a.43.43,0,0,1-.43-.43v-.6a.42.42,0,0,1,.43-.42h3A.42.42,0,0,1,82.32,1131.31Z"/><rect class="cls-5" x="80.97" y="1101.23" width="3.82" height="1.45" rx="0.43"/><path class="cls-8" d="M88.85,1102.29a.43.43,0,0,1-.43.41H87.06l0-.42Z"/><path class="cls-5" d="M88.85,1101.68v.61H87l0,.42h-1.6a.43.43,0,0,1-.43-.43v-.59a.43.43,0,0,1,.43-.43h3A.43.43,0,0,1,88.85,1101.68Z"/><rect class="cls-5" x="82.88" y="1102.96" width="3.82" height="1.45" rx="0.43"/><rect class="cls-5" x="80.9" y="1104.59" width="3.82" height="1.45" rx="0.43"/><rect class="cls-5" x="83" y="1106.27" width="3.82" height="1.45" rx="0.43"/><path class="cls-8" d="M97.65,1107.9l-.08.56H95.81v-.12a.43.43,0,0,1,.43-.43Z"/><path class="cls-5" d="M99.63,1108.33v.59a.43.43,0,0,1-.43.43H97.45l.12-.89.08-.56H99.2A.43.43,0,0,1,99.63,1108.33Z"/><rect class="cls-5" x="100.21" y="1101.32" width="3.82" height="1.45" rx="0.43"/><rect class="cls-5" x="97.66" y="1099.74" width="3.82" height="1.45" rx="0.43"/><rect class="cls-5" x="94.72" y="1098.13" width="3.82" height="1.45" rx="0.43"/><rect class="cls-5" x="98.95" y="1098.09" width="3.82" height="1.45" rx="0.43"/><rect class="cls-5" x="98.03" y="1109.63" width="3.82" height="1.45" rx="0.43"/><path class="cls-4" d="M120.79,1086l-.15.57a.42.42,0,0,1-.47.31l.34-1.39A.41.41,0,0,1,120.79,1086Z"/><path class="cls-8" d="M120.51,1085.52l-.34,1.39h0l-2.65-.71a2.29,2.29,0,0,1,.88-1.26l2.14.57Z"/><path class="cls-5" d="M118.35,1084.94a2.29,2.29,0,0,0-.88,1.26l-.22-.06a.42.42,0,0,1-.3-.53l.15-.57a.42.42,0,0,1,.52-.3Z"/><rect class="cls-5" x="55.97" y="1138.91" width="3.82" height="1.45" rx="0.43" transform="translate(-338.17 69.47) rotate(-17.4)"/><rect class="cls-5" x="58.2" y="1131.31" width="3.82" height="1.45" rx="0.43" transform="translate(-335.8 69.79) rotate(-17.4)"/><rect class="cls-5" x="55.3" y="1130.57" width="3.82" height="1.45" rx="0.43" transform="matrix(0.95, -0.3, 0.3, 0.95, -335.71, 68.88)"/><path class="cls-5" d="M52.52,1131.78a.45.45,0,0,0,.2,0l2.83-.89a.42.42,0,0,0,.28-.53l-.17-.57a.43.43,0,0,0-.54-.28l-2.83.89a.52.52,0,0,0-.13.06Z"/><rect class="cls-5" x="56.03" y="1128.6" width="3.82" height="1.45" rx="0.43" transform="translate(-335.09 69.01) rotate(-17.4)"/><path class="cls-5" d="M58.2,1140.8h-.61l.22-.07A.44.44,0,0,1,58.2,1140.8Z"/><path class="cls-5" d="M62.43,1140.33a.42.42,0,0,1-.15.47H58.59a.42.42,0,0,1,.3-.43l2.83-.89a.43.43,0,0,1,.54.28Z"/><path class="cls-8" d="M56.47,1104.61l-1.69.53a.44.44,0,0,1-.54-.28l-.09-.32A5.32,5.32,0,0,1,56.47,1104.61Z"/><path class="cls-8" d="M58.68,1105.68l-1.39.44a.43.43,0,0,1-.54-.29l-.18-.56a.43.43,0,0,1,.29-.54h0A5.71,5.71,0,0,1,58.68,1105.68Z"/><polygon class="cls-7" points="67.35 1140.8 64.39 1140.8 51.66 1101.79 62.02 1095.2 63.32 1094.38 63.56 1094.22 63.73 1096 63.8 1096.75 58 1102.23 67.35 1140.8"/><rect class="cls-5" x="100.88" y="1134.85" width="3.82" height="1.45" rx="0.43"/><rect class="cls-5" x="104.94" y="1134.88" width="3.82" height="1.45" rx="0.43"/><rect class="cls-5" x="102.79" y="1136.58" width="3.82" height="1.45" rx="0.43"/><rect class="cls-5" x="100.81" y="1138.21" width="3.82" height="1.45" rx="0.43"/><rect class="cls-5" x="102.91" y="1139.9" width="3.82" height="1.45" rx="0.43"/><path class="cls-5" d="M116.32,1141.53,116,1143a.43.43,0,0,1-.32-.41v-.6a.42.42,0,0,1,.43-.42Z"/><path class="cls-5" d="M122.6,1135.86l-.2,1.45-2.5-.66a.44.44,0,0,1-.3-.53l.15-.57a.44.44,0,0,1,.53-.31Z"/><path class="cls-5" d="M121.39,1134.35l-.15.57a.43.43,0,0,1-.52.31l-2.87-.77a.37.37,0,0,1-.14-.07l.26-1.32a.46.46,0,0,1,.26,0l2.86.76A.43.43,0,0,1,121.39,1134.35Z"/><path class="cls-5" d="M119,1132l-.16.57a.42.42,0,0,1-.52.3l-.27-.07.28-1.43.37.1A.44.44,0,0,1,119,1132Z"/><path class="cls-5" d="M123,1132.76l-.13.94a.41.41,0,0,1-.5.26l-2.87-.77a.42.42,0,0,1-.3-.52l.15-.58a.43.43,0,0,1,.53-.3l2.86.77A.41.41,0,0,1,123,1132.76Z"/><path class="cls-5" d="M116,1143.28l-.28,1.45h-1.43a.43.43,0,0,1-.43-.43v-.59a.43.43,0,0,1,.43-.43Z"/><polygon class="cls-9" points="46.27 1105.22 45.38 1105.79 40 1109.21 43.43 1066.3 45.87 1099.66 46.27 1105.22"/><polygon class="cls-9" points="59.32 1140.8 55 1140.8 52.52 1131.78 52.16 1130.45 46.65 1110.42 45.38 1105.79 46.27 1105.22 49.02 1103.47 59.32 1140.8"/><polygon class="cls-9" points="72.27 1147.64 69 1147.59 67.35 1140.8 58 1102.23 63.8 1096.75 64 1096.56 64.91 1096.56 72.27 1147.64"/><polygon class="cls-9" points="79.09 1087.35 92.4 1075.3 70 1087.35 75.32 1087.35 75.61 1089.22 75.83 1090.67 76.74 1096.56 79.4 1096.56 77.46 1087.35 79.09 1087.35"/><polygon class="cls-6" points="131 1086.3 127.78 1085.27 113.35 1080.65 106 1078.3 124.16 1066.97 131 1086.3"/><polygon class="cls-9" points="124.16 1066.97 113.35 1080.65 106 1078.3 124.16 1066.97"/><polygon class="cls-7" points="70 1090.14 66.79 1092.18 43.43 1066.3 70 1090.14"/><polygon class="cls-7" points="112 1087.35 108.6 1087.35 92.4 1075.3 112 1087.35"/><polygon class="cls-7" points="131 1086.3 127.78 1085.27 124.16 1066.97 131 1086.3"/><polygon class="cls-7" points="63.73 1096 46.07 1108.31 45.38 1105.79 46.27 1105.22 49.02 1103.47 63.32 1094.38 63.55 1094.23 63.73 1096"/><polygon class="cls-7" points="104.19 1096.56 79.4 1096.56 79.6 1097.5 76.88 1097.5 76.74 1096.56 76.6 1095.63 104.74 1095.21 104.19 1096.56"/><path class="cls-4" d="M79.92,1096.58H76l.45,1.65s4.64-.13,4.59-.21S79.92,1096.58,79.92,1096.58Z"/><polygon class="cls-7" points="125.53 1093.69 125.42 1094.7 125.41 1094.7 115.43 1093.8 113.71 1093.64 113.84 1092.21 125.53 1093.69"/><polygon class="cls-4" points="91.85 1097.62 94.34 1097.8 93.85 1102.28 91.64 1102.26 91.85 1097.62"/><path class="cls-4" d="M87.35,1108.26l.18,1.5s-1.28.3-1.38,0a5.09,5.09,0,0,1-.1-1.58Z"/><path class="cls-4" d="M92.87,1116.39l-1.78-.07-.08,2.23s1.63,1.35,1.7,1.2.33-3,.33-3Z"/></g><path d="M0,0V1200H175V0ZM152.5,1172a18,18,0,0,1-18,18h-94a18,18,0,0,1-18-18v-94a18,18,0,0,1,18-18h94a18,18,0,0,1,18,18Zm0-150a18,18,0,0,1-18,18h-94a18,18,0,0,1-18-18V928a18,18,0,0,1,18-18h94a18,18,0,0,1,18,18Zm0-150a18,18,0,0,1-18,18h-94a18,18,0,0,1-18-18V778a18,18,0,0,1,18-18h94a18,18,0,0,1,18,18Zm0-150a18,18,0,0,1-18,18h-94a18,18,0,0,1-18-18V628a18,18,0,0,1,18-18h94a18,18,0,0,1,18,18Zm0-150a18,18,0,0,1-18,18h-94a18,18,0,0,1-18-18V478a18,18,0,0,1,18-18h94a18,18,0,0,1,18,18Zm0-150a18,18,0,0,1-18,18h-94a18,18,0,0,1-18-18V328a18,18,0,0,1,18-18h94a18,18,0,0,1,18,18Zm0-150a18,18,0,0,1-18,18h-94a18,18,0,0,1-18-18V178a18,18,0,0,1,18-18h94a18,18,0,0,1,18,18Zm0-150a18,18,0,0,1-18,18h-94a18,18,0,0,1-18-18V28a18,18,0,0,1,18-18h94a18,18,0,0,1,18,18Z"/><g id="Jack"><path class="cls-12" d="M92.7,347.21c10,4.74,17.42,20.15,17.42,38.43,0,22.06-10.73,39.94-24,39.94s-24-17.88-24-39.94,10.73-39.94,24-39.94a15.27,15.27,0,0,1,6.54,1.51"/><path class="cls-13" d="M92.72,347.16a23,23,0,0,1,5.3,3.55,28.91,28.91,0,0,1,4.19,4.85,42.23,42.23,0,0,1,5.56,11.51,62.94,62.94,0,0,1,2.42,25.37c-1,8.47-3.55,16.9-8.49,23.9A23.8,23.8,0,0,1,92,424.55a15.57,15.57,0,0,1-6.28,1.23,15.4,15.4,0,0,1-6.26-1.47A24.38,24.38,0,0,1,70,415.8a42.8,42.8,0,0,1-5.53-11.57A62.9,62.9,0,0,1,62,378.83c.88-8.48,3.4-17,8.43-24a23.63,23.63,0,0,1,9.78-8.18,15.2,15.2,0,0,1,6.31-1.11,15.51,15.51,0,0,1,6.17,1.61l0,.09a14.82,14.82,0,0,0-12.25-.13,22.85,22.85,0,0,0-9.38,8.14,42.4,42.4,0,0,0-5.45,11.32,60.59,60.59,0,0,0-2.55,12.36,64.8,64.8,0,0,0,2.3,25,44.89,44.89,0,0,0,5.27,11.42,23.81,23.81,0,0,0,9.12,8.45,14.65,14.65,0,0,0,12.17.41,22.6,22.6,0,0,0,9.51-8.09,41.13,41.13,0,0,0,5.49-11.38,59.59,59.59,0,0,0,2.45-12.4,67.67,67.67,0,0,0,0-12.65A59.64,59.64,0,0,0,107,367.3a43.41,43.41,0,0,0-5.26-11.45,30.74,30.74,0,0,0-4-4.9,22.23,22.23,0,0,0-5.11-3.7Z"/><path class="cls-12" d="M67.89,345.77a13.37,13.37,0,0,1,1.42-.07c13.23,0,24,17.88,24,39.94s-10.73,39.94-24,39.94-24-17.88-24-39.94c0-21.27,10-38.65,22.55-39.87"/><path class="cls-13" d="M67.89,345.72a15.27,15.27,0,0,1,6.33.65,19,19,0,0,1,5.64,3.06,31.09,31.09,0,0,1,8,10,55.88,55.88,0,0,1,5.84,24.77,61,61,0,0,1-4.8,25,37.1,37.1,0,0,1-6.94,10.69,22.53,22.53,0,0,1-5.06,3.93,16,16,0,0,1-6.11,2,15.5,15.5,0,0,1-6.41-.71A19.45,19.45,0,0,1,58.68,422a31.25,31.25,0,0,1-8-10.06,56.52,56.52,0,0,1-5.87-24.81,66.71,66.71,0,0,1,1-12.78,55.1,55.1,0,0,1,3.75-12.25,36.24,36.24,0,0,1,7-10.66,18.56,18.56,0,0,1,11.24-5.67v.1A18.68,18.68,0,0,0,57,351.73a35.61,35.61,0,0,0-6.73,10.61,60.88,60.88,0,0,0-4.39,24.72,64.51,64.51,0,0,0,1.5,12.53,50,50,0,0,0,4.18,11.87,31.21,31.21,0,0,0,7.6,9.89,18.87,18.87,0,0,0,5.4,3.1,14.87,14.87,0,0,0,6.14.78,17.87,17.87,0,0,0,11-5.62A34.39,34.39,0,0,0,88.54,409,51,51,0,0,0,92,396.86a65.15,65.15,0,0,0,.82-12.63,65.44,65.44,0,0,0-1.53-12.55,50.15,50.15,0,0,0-4.17-11.89,31.44,31.44,0,0,0-7.61-10,19.84,19.84,0,0,0-5.41-3.16,15.27,15.27,0,0,0-6.22-.86Z"/><path class="cls-12" d="M92.15,352.05c3.74-4,8.19-6.35,13-6.35,13.23,0,24,17.88,24,39.94s-10.73,39.94-24,39.94-24-17.88-24-39.94c0-14.09,4.38-26.48,11-33.59"/><path class="cls-13" d="M92.11,352A22.64,22.64,0,0,1,97,347.88a15.93,15.93,0,0,1,6-2.28,16.15,16.15,0,0,1,12.21,3.31,30,30,0,0,1,8.17,9.88,47.88,47.88,0,0,1,4.44,12,66.42,66.42,0,0,1,.61,25.44,57.67,57.67,0,0,1-3.46,12.28,37.27,37.27,0,0,1-6.66,10.88,19.08,19.08,0,0,1-11,6.39A16.19,16.19,0,0,1,95,422.44a30,30,0,0,1-8.2-9.91,48.89,48.89,0,0,1-4.47-12A64,64,0,0,1,81.65,375a55.71,55.71,0,0,1,3.58-12.27A36.28,36.28,0,0,1,92.11,352l.07.06a37.47,37.47,0,0,0-6.49,10.84,54.29,54.29,0,0,0-3.32,12.2,66.41,66.41,0,0,0,1,25.13A49.17,49.17,0,0,0,87.73,412a29.19,29.19,0,0,0,7.84,9.65,15.55,15.55,0,0,0,11.6,3.35,18.42,18.42,0,0,0,10.71-6,35.45,35.45,0,0,0,6.74-10.65,51.61,51.61,0,0,0,3.43-12.2c.33-2.09.57-4.2.69-6.31s.11-4.23,0-6.35A64.58,64.58,0,0,0,127,371a50.53,50.53,0,0,0-4.41-11.8,29.34,29.34,0,0,0-7.86-9.68,15.67,15.67,0,0,0-11.67-3.4,18.83,18.83,0,0,0-10.87,6Z"/><path d="M88.66,357.73c-2.39-7-2.8-7.32.31-21.89,2-9.58,3.06-11.19-1.16-18.77"/><path class="cls-14" d="M86.24,318.17l1.15-.63a28.66,28.66,0,0,1,1.91,4.67,11.07,11.07,0,0,1,.31,4.75c-.5,3.22-1.62,6.58-2.44,9.94s-1.75,6.7-2.3,10.33a20.56,20.56,0,0,0-.06,5.82,23.48,23.48,0,0,0,1.41,5.29l-5.17,1.78a14.48,14.48,0,0,1-1.14-6,28.81,28.81,0,0,1,.58-7.28,93.07,93.07,0,0,1,3.4-10.59c1.16-3.3,2.62-6.73,3.41-9.45a9,9,0,0,0,.28-4A25.08,25.08,0,0,0,86.24,318.17Z"/><path class="cls-14" d="M87.34,317.57l1.14-.64a28.58,28.58,0,0,1,2.46,4.73,13.16,13.16,0,0,1,.89,5.49c-.23,3.69-1,7-1.51,10.41s-1.1,6.84-1.27,10.07a12.32,12.32,0,0,0,.46,4.44c.46,1.38,1.18,2.89,1.65,4.58L86,358.42a22.47,22.47,0,0,1-1.4-5.32,21.4,21.4,0,0,1,.08-5.89c.57-3.64,1.48-7,2.35-10.34s2-6.72,2.48-9.92a10.94,10.94,0,0,0-.29-4.72A27.88,27.88,0,0,0,87.34,317.57Z"/><path class="cls-14" d="M88.44,317l1.14-.63a28.51,28.51,0,0,1,3,4.78,15.38,15.38,0,0,1,1.45,6.23,56.37,56.37,0,0,1-.22,5.7l-.35,5.19a80.86,80.86,0,0,0-.23,9.81,5,5,0,0,0,1,3,8.67,8.67,0,0,1,1.9,3.86L91,356.72c-.49-1.68-1.2-3.2-1.65-4.61a12.68,12.68,0,0,1-.43-4.49c.19-3.25.77-6.69,1.31-10.08s1.3-6.73,1.55-10.4a13.19,13.19,0,0,0-.86-5.46A30.45,30.45,0,0,0,88.44,317Z"/><path class="cls-7" d="M89.89,339.4s.08.08.11.22a22,22,0,0,1,.13,3.4c.06,3.43,1,3.46,1.61,2.78A8.11,8.11,0,0,0,93,343.55l.27-.59a26.92,26.92,0,0,0,.29,6.75,5.42,5.42,0,0,0,1.17,2,7.93,7.93,0,0,1,1.43,3.23l-15.07,5.18A12.1,12.1,0,0,1,80,355.25a33.85,33.85,0,0,1,.16-6.39,52.11,52.11,0,0,1,2.62-9.51,9,9,0,0,1-.27,3.1c-.33,1.7-.39,3.26-.07,3.58s.93-.67,2.1-3.46c1.08-2.57,1.68-3.53,1.94-3.45,0,0,.09.07.11.18a15.74,15.74,0,0,1-.31,3.91c-.32,2.23.09,2.84.62,2.51a6.48,6.48,0,0,0,1.68-3C89.11,341,89.63,339.23,89.89,339.4Z"/><path class="cls-12" d="M36.63,360c4.34-7.16,10.3-11.58,16.87-11.58a14.41,14.41,0,0,1,5.56,1.11,16.86,16.86,0,0,1,4.49,2.59,26.08,26.08,0,0,1,5.4,5.73,30.5,30.5,0,0,1,1.9,3c4.11,7.16,6.62,16.87,6.62,27.53S74.89,409,70.71,416.16a28,28,0,0,1-2,3h0c-.4.55-.79,1.06-1.21,1.55a23.87,23.87,0,0,1-3.79,3.74,1.74,1.74,0,0,1-.22.18,18.12,18.12,0,0,1-1.61,1.13,17.13,17.13,0,0,1-2.66,1.36,14.78,14.78,0,0,1-5.75,1.17c-8.19,0-15.45-6.87-19.76-17.35,0,0,0,0,0,0a60.14,60.14,0,0,1-4.18-22.57c0-11.1,2.71-21.14,7.09-28.37"/><path class="cls-13" d="M36.59,360a26.49,26.49,0,0,1,8.9-9.56,15.33,15.33,0,0,1,12.88-1.56,18.3,18.3,0,0,1,5.82,3.24,26.09,26.09,0,0,1,4.6,4.79c.69.87,1.22,1.84,1.83,2.77a28.06,28.06,0,0,1,1.63,2.88,47,47,0,0,1,2.51,6.11,64.83,64.83,0,0,1,2.57,26,62,62,0,0,1-2.61,12.85A43.19,43.19,0,0,1,69,419.36l.06-.18h0v.1l-.06.08a35.93,35.93,0,0,1-2.41,3c-.44.47-.89.92-1.36,1.36s-.93.83-1.5,1.27l0,0a17,17,0,0,1-9,3.77,15.93,15.93,0,0,1-9.53-2.31A23.85,23.85,0,0,1,43.13,425c-.63-.53-1.29-1-1.87-1.61A29.27,29.27,0,0,1,38,419.72a40.91,40.91,0,0,1-4.74-8.56l0-.09V411h0s0,.08.15.33.32.14.33.16h-.32l-.14-.32a60.15,60.15,0,0,1-4-26,61.92,61.92,0,0,1,2.12-13.05A45.39,45.39,0,0,1,36.59,360l.09,0a48,48,0,0,0-4.83,12.17A61.67,61.67,0,0,0,30,385.15a64.66,64.66,0,0,0,.78,13,56.16,56.16,0,0,0,3.43,12.56l-.48-.32h0a.53.53,0,0,1,.5.5v0l0-.2a40.62,40.62,0,0,0,4.63,8.33A27.82,27.82,0,0,0,42,422.67c.55.57,1.18,1.05,1.78,1.57a21.51,21.51,0,0,0,1.95,1.32,15.16,15.16,0,0,0,9,2.26,16.21,16.21,0,0,0,8.64-3.45l0,0c.43-.32,1-.75,1.41-1.16s.91-.85,1.34-1.3A34.82,34.82,0,0,0,68.5,419l-.06.17h0v-.1l0-.08c5.13-7,7.68-15.72,8.5-24.35a63.23,63.23,0,0,0-.14-13A57.9,57.9,0,0,0,74,368.91a47.63,47.63,0,0,0-2.53-6,25.19,25.19,0,0,0-1.61-2.81c-.6-.9-1.12-1.84-1.78-2.7a25.76,25.76,0,0,0-4.41-4.68,17.88,17.88,0,0,0-5.55-3.15,14.89,14.89,0,0,0-12.36,1.29A26.86,26.86,0,0,0,36.68,360Z"/><path class="cls-12" d="M145.14,395a56.06,56.06,0,0,1-4.69,17.85s0,0,0,0c-4.38,9.42-11.23,15.48-18.93,15.48a15.12,15.12,0,0,1-6.12-1.33,17.66,17.66,0,0,1-3.58-2.09c-.24-.18-.48-.35-.72-.56a28.85,28.85,0,0,1-6.66-8c-.46-.79-.91-1.6-1.34-2.45a57.73,57.73,0,0,1-5.55-25.54A59.62,59.62,0,0,1,102,365.21a42.75,42.75,0,0,1,2.61-5.1,28.44,28.44,0,0,1,6.66-7.82,18.25,18.25,0,0,1,4.3-2.61,15.13,15.13,0,0,1,6-1.25c13.23,0,24,17.88,24,39.95,0,2.25-.11,4.46-.32,6.61"/><path class="cls-13" d="M145.19,395a61.63,61.63,0,0,1-1.45,9.17,50,50,0,0,1-3,8.81l0-.13a.36.36,0,0,1-.07.2.33.33,0,0,1-.36.11c-.12,0-.12-.07-.14-.09l.52-.09a34.06,34.06,0,0,1-6.42,9.73,19,19,0,0,1-10.1,5.81,14.93,14.93,0,0,1-5.92-.12,16.69,16.69,0,0,1-5.44-2.3,26.92,26.92,0,0,1-8-8.48,48.22,48.22,0,0,1-4.75-10.6,64.55,64.55,0,0,1-2.35-11.36,65.81,65.81,0,0,1,1.37-23.1,48,48,0,0,1,4.07-10.92,31.24,31.24,0,0,1,7.15-9.26,16.12,16.12,0,0,1,21.8-.43,29.48,29.48,0,0,1,7.33,9.11,48.56,48.56,0,0,1,4.21,10.87,63,63,0,0,1,1.5,23.07h-.1a68.41,68.41,0,0,0-.05-11.54,61.24,61.24,0,0,0-2-11.34,47.41,47.41,0,0,0-4.33-10.61,30.34,30.34,0,0,0-7.18-8.76A16.12,16.12,0,0,0,121.19,349a16.4,16.4,0,0,0-10.2,4.16,30.5,30.5,0,0,0-7,8.92,48.86,48.86,0,0,0-4.18,10.68,64.11,64.11,0,0,0-1.71,22.88,56.59,56.59,0,0,0,2.34,11.3,49.39,49.39,0,0,0,2.08,5.38c.41.87.84,1.73,1.33,2.55s.93,1.68,1.46,2.48a26.27,26.27,0,0,0,8,8.1,17.11,17.11,0,0,0,5.2,2.14,14.17,14.17,0,0,0,5.58.07,18.38,18.38,0,0,0,9.69-5.5,35.49,35.49,0,0,0,6.41-9.43l.52-.09s0,0-.12-.08a.35.35,0,0,0-.35.11.34.34,0,0,0-.07.19l0-.13a51.76,51.76,0,0,0,3.17-8.65,61.6,61.6,0,0,0,1.77-9.07Z"/><path class="cls-12" d="M93.27,390.9a59,59,0,0,1-4.67,23.68c-.43,1-.89,2-1.39,2.87a33.6,33.6,0,0,1-5.35,7.48,24.94,24.94,0,0,1-2.19,2,18.77,18.77,0,0,1-4.58,2.75,14.84,14.84,0,0,1-5.79,1.18,16.25,16.25,0,0,1-10-3.69,31.29,31.29,0,0,1-8.89-11.82,58.42,58.42,0,0,1-5-24.43c0-.88,0-1.76.06-2.62.67-17.57,8.18-32.06,18.15-36.15A14.81,14.81,0,0,1,69.3,351a14.64,14.64,0,0,1,4.32.65,17.26,17.26,0,0,1,5.49,2.85A27.55,27.55,0,0,1,85.82,362c.48.76,1,1.55,1.39,2.38a55.75,55.75,0,0,1,6,23.93C93.25,389.14,93.27,390,93.27,390.9Z"/><path class="cls-13" d="M93.32,390.9a67.62,67.62,0,0,1-1.15,12.69,51.32,51.32,0,0,1-3.8,12.19,32.74,32.74,0,0,1-3.12,5.61A25.14,25.14,0,0,1,81,426.27a18.08,18.08,0,0,1-5.37,3.62A15.1,15.1,0,0,1,63,429.82a20.5,20.5,0,0,1-5.32-3.64,34.06,34.06,0,0,1-7.31-10.45,60.77,60.77,0,0,1-5.28-24.83,58.79,58.79,0,0,1,5-24.95,40.74,40.74,0,0,1,3.18-5.6,30.39,30.39,0,0,1,4.23-4.9,19.56,19.56,0,0,1,5.42-3.6,15,15,0,0,1,6.39-1.41,17.46,17.46,0,0,1,11.78,5,28.48,28.48,0,0,1,4.19,4.92A29.61,29.61,0,0,1,87,363.14,32.07,32.07,0,0,1,88.41,366a53.43,53.43,0,0,1,3.76,12.21A69.25,69.25,0,0,1,93.32,390.9Zm-.1,0a65.42,65.42,0,0,0-1.32-12.64,51.3,51.3,0,0,0-4.09-12,28.58,28.58,0,0,0-1.52-2.77c-.54-.9-1.08-1.81-1.7-2.66a28,28,0,0,0-4.14-4.68,19.93,19.93,0,0,0-5.16-3.41,14.93,14.93,0,0,0-6-1.3c-4.14,0-8,2-11.1,4.75a28.79,28.79,0,0,0-4.12,4.69,40.39,40.39,0,0,0-3.15,5.45,59.25,59.25,0,0,0-5.33,24.54,63,63,0,0,0,1.14,12.63,49.12,49.12,0,0,0,3.92,12.05A31.59,31.59,0,0,0,58,425.77a19.8,19.8,0,0,0,5.23,3.41,15.13,15.13,0,0,0,6,1.25,16.62,16.62,0,0,0,11.14-4.81A24.37,24.37,0,0,0,84.61,421a35.69,35.69,0,0,0,3.19-5.44A55.9,55.9,0,0,0,93.22,390.9Z"/><path class="cls-12" d="M128.37,400.62a54,54,0,0,1-4.38,14.9A31.28,31.28,0,0,1,115.38,427a16.36,16.36,0,0,1-10.26,3.85,15.67,15.67,0,0,1-8.63-2.68A21.71,21.71,0,0,1,92,424.37a33.81,33.81,0,0,1-4.83-6.92c-.49-.91-1-1.87-1.39-2.87a59,59,0,0,1-4.66-23.68c0-.88,0-1.76.06-2.62a56,56,0,0,1,6-23.93c.45-.83.91-1.62,1.39-2.38a29.2,29.2,0,0,1,4.92-6,19.06,19.06,0,0,1,5.71-3.77,14.6,14.6,0,0,1,5.89-1.23,15,15,0,0,1,6.12,1.33c9.78,4.28,17.13,18.62,17.78,36,0,.86.07,1.74.07,2.62a65.17,65.17,0,0,1-.72,9.72"/><path class="cls-13" d="M128.42,400.63A54.17,54.17,0,0,1,125.36,413a37.57,37.57,0,0,1-6.4,11.08c-2.81,3.23-6.46,6-10.78,6.87a14.75,14.75,0,0,1-6.51-.08,17.59,17.59,0,0,1-5.9-2.7,28.32,28.32,0,0,1-8.32-9.73,52.23,52.23,0,0,1-4.57-11.92,68.23,68.23,0,0,1-1.27-25.39,55.94,55.94,0,0,1,3.16-12.39,39,39,0,0,1,2.75-5.81,31,31,0,0,1,3.69-5.29A25.15,25.15,0,0,1,96,353.33a18,18,0,0,1,6-2.58,14.93,14.93,0,0,1,6.55.09,15.42,15.42,0,0,1,3.1,1.09l1.46.74c.47.27.91.59,1.37.89a23.7,23.7,0,0,1,4.78,4.38c.73.8,1.32,1.71,2,2.57s1.17,1.81,1.68,2.75a49.32,49.32,0,0,1,4.58,12,63.89,63.89,0,0,1,.89,25.39h-.1a65.7,65.7,0,0,0,.43-12.69,61.54,61.54,0,0,0-1.92-12.52,48.54,48.54,0,0,0-4.71-11.68c-.51-.91-1.1-1.78-1.68-2.65a30.81,30.81,0,0,0-1.91-2.48,22.81,22.81,0,0,0-4.59-4.19c-.44-.28-.86-.58-1.31-.84l-1.38-.69a13.69,13.69,0,0,0-2.9-1,14.42,14.42,0,0,0-6.1-.09,16.72,16.72,0,0,0-5.66,2.39,24,24,0,0,0-4.67,4.11,30.75,30.75,0,0,0-3.64,5.11,39.06,39.06,0,0,0-2.8,5.65,55.86,55.86,0,0,0-3.33,12.19,62.69,62.69,0,0,0,1.07,25.22,49.47,49.47,0,0,0,2,6c.39,1,.81,1.95,1.29,2.89s.91,1.9,1.46,2.81a28.15,28.15,0,0,0,8.3,9.31,16.78,16.78,0,0,0,5.64,2.54,14.73,14.73,0,0,0,6.13.07c4.07-.8,7.63-3.4,10.38-6.51a38.2,38.2,0,0,0,6.49-10.77,57.21,57.21,0,0,0,3.45-12.2Z"/><path class="cls-15" d="M84.9,353.28a14.81,14.81,0,0,1,5.38,1A15.76,15.76,0,0,1,93.52,356a27.15,27.15,0,0,1,8.45,9.25c4.25,7.21,6.89,17.09,6.89,28a63.4,63.4,0,0,1-.35,6.82,56.51,56.51,0,0,1-4.09,16.33,6.21,6.21,0,0,1-.26.59,37.45,37.45,0,0,1-4.42,7.6,25.76,25.76,0,0,1-3.25,3.6,17,17,0,0,1-11.59,5,16.19,16.19,0,0,1-9.81-3.5,23.7,23.7,0,0,1-4.3-4.16,32.92,32.92,0,0,1-3.26-4.76,40.13,40.13,0,0,1-2-4,59.27,59.27,0,0,1-4.6-23.53,63.52,63.52,0,0,1,1.62-14.38c1.67-7.27,4.58-13.5,8.3-18a21.45,21.45,0,0,1,8.26-6.39,14.49,14.49,0,0,1,4.3-1.1,14.87,14.87,0,0,1,1.49-.08"/><path class="cls-13" d="M84.9,353.28a15.23,15.23,0,0,1,6.23,1.23A20.8,20.8,0,0,1,96.5,358,33.23,33.23,0,0,1,104,368.3a61.85,61.85,0,0,1,.31,50,33.46,33.46,0,0,1-7.49,10.56,17.8,17.8,0,0,1-12,5.1c-4.54,0-8.78-2.15-12-5.09a32.16,32.16,0,0,1-7.43-10.6,57.13,57.13,0,0,1-5.16-25.05,59.17,59.17,0,0,1,5.42-24.92A33.42,33.42,0,0,1,73.29,358a17.07,17.07,0,0,1,11.61-4.7,17.28,17.28,0,0,0-11.33,5,33,33,0,0,0-7.12,10.34,58.3,58.3,0,0,0-4.9,24.58c.12,8.39,1.56,16.89,5.24,24.43a30.9,30.9,0,0,0,7.15,10.09,16.39,16.39,0,0,0,11,4.63,16.24,16.24,0,0,0,11-4.64,31.9,31.9,0,0,0,7.2-10.05c3.62-7.57,5-16.06,5.21-24.45a58.2,58.2,0,0,0-4.91-24.59,32.61,32.61,0,0,0-7.13-10.33A17.17,17.17,0,0,0,84.9,353.28Z"/><path class="cls-16" d="M85.94,433.1c-.42,0-.85.06-1.27.06a16.5,16.5,0,0,1-9.93-3.5,15.18,15.18,0,0,1-5.86,1.18,16.54,16.54,0,0,1-10.17-3.69,15.16,15.16,0,0,1-5.82,1.17c-8.3,0-15.64-6.87-20-17.35,6.92,7.12,13.09,15.75,15.19,11.79,1.68-3.2.48-7.07,1.63-7.43.42-.15,1.21.22,2.62,1.32,3.64,2.83,6.89,8.65,9.07,9.14.65.15,1.2-.17,1.64-1.13l.09-.23a7,7,0,0,0,.41-1.31c.55-2.44.73-5.81,1.52-6.37h0c.46-.29,1.62.83,3.26,2.43h0a51.47,51.47,0,0,0,6.06,5.34,13.31,13.31,0,0,0,5,2.38,7,7,0,0,0,1.5.13,29.13,29.13,0,0,0,11-2.67c.26-.13.52-.24.78-.35l.89-.45c.71-.37,1.39-.75,2.09-1.17a41.1,41.1,0,0,0,5.49-4c1.77-1.51,2.59-1.83,3-1.43.66.6.39,2.86,1,5a14.49,14.49,0,0,0,1.28,3.55c1,1.63,2.5,2.15,5.48-.64l2.13-2.11c2-2,3.74-3.48,5.2-4.63,2.5-2,4.17-2.83,5-2.64s.84,1.17.31,2.91c-2.33,7.46,4.28,6.36,8.84,1,3-3.45,5.48-5.59,7.49-6.61-4.43,9.42-11.37,15.48-19.16,15.48a15.46,15.46,0,0,1-6.2-1.33,16.66,16.66,0,0,1-10.38,3.85,16,16,0,0,1-8.73-2.68,17.76,17.76,0,0,1-10.47,4.94"/><path class="cls-17" d="M32.43,380.58a38.91,38.91,0,0,1,1.18-8.09,42.41,42.41,0,0,1,2.7-7.78,31.36,31.36,0,0,1,4.42-7,19.05,19.05,0,0,1,6.56-4.94,28,28,0,0,0-5.58,5.72,43.11,43.11,0,0,0-4,6.89,70.68,70.68,0,0,0-3,7.44C34,375.38,33.13,378,32.43,380.58Z"/><path class="cls-17" d="M48.55,382.9a44,44,0,0,1,1.72-8.48,45.71,45.71,0,0,1,3.23-8.08,31,31,0,0,1,5-7.19,18,18,0,0,1,7.23-4.79A24.53,24.53,0,0,0,59.43,360a40.7,40.7,0,0,0-4.51,7.11,74.85,74.85,0,0,0-3.48,7.74C50.42,377.48,49.43,380.16,48.55,382.9Z"/><path class="cls-17" d="M63.72,387.85a55,55,0,0,1,3.89-17.51,30.38,30.38,0,0,1,4.53-7.88c1.9-2.35,4.56-4.39,7.59-4.73a13.79,13.79,0,0,0-6.6,5.49,39.68,39.68,0,0,0-4,7.72c-1.13,2.71-2,5.51-2.93,8.33S64.47,385,63.72,387.85Z"/><path class="cls-17" d="M104.59,353.28a21.63,21.63,0,0,1,12.28,6.61,27.41,27.41,0,0,1,2.22,2.81,20.39,20.39,0,0,1,1.61,3.2,18.69,18.69,0,0,1,1.38,6.89,34.19,34.19,0,0,0-2.51-6.37A23.19,23.19,0,0,0,115.7,361a29.35,29.35,0,0,0-5.11-4.37A39.21,39.21,0,0,0,104.59,353.28Z"/><path class="cls-17" d="M124.5,351.83a19.55,19.55,0,0,1,6.09,3.88,32.07,32.07,0,0,1,4.8,5.47,36.36,36.36,0,0,1,3.44,6.38c.5,1.1.83,2.27,1.22,3.41s.6,2.33.83,3.51c-1-2.17-2.06-4.31-3.18-6.38a64.07,64.07,0,0,0-3.63-6,50.88,50.88,0,0,0-4.35-5.49A35.87,35.87,0,0,0,124.5,351.83Z"/><path class="cls-18" d="M116.8,383.82l-1.12,2.7-9.23,9.14-6.84-6.79-5.32,9.94-5.69-5.67-4.77,8.26-7.61-7.94-4.68,6.21-5.91-8.85-6.42,6.53-6.87-7.17c-1.06-1.95-1.84-3.35-2-3.64l8.85,9.22,6.42-6.54,5.91,8.85,4.68-6.21,7.61,7.94,4.77-8.26,5.69,5.67,5.32-9.94,6.84,6.79Z"/><path class="cls-18" d="M90.47,374.48l-.92,1.59H79.86l-.72-1.59Z"/><path class="cls-18" d="M69.31,372.42a15.61,15.61,0,0,0-1.57-.9c-3.42-16.24-9-12-12.94-6C58.89,358.4,65.63,351.39,69.31,372.42Z"/><path class="cls-19" d="M115.68,386.52l-7.87,19.11-5.1-3.55L96,412.45,92.23,404l-6.79,9.31-8-9.13-4.15,8.11L64.89,399s-4.84,7.47-4.84,6.32c0-.83-4.87-9.92-7.71-15.16l6.87,7.17,6.42-6.53,5.91,8.85,4.68-6.21,7.61,7.94,4.77-8.26,5.69,5.67,5.32-9.94,6.84,6.79ZM79.86,376.07c1.33,3,4,9,4.11,9.25.18,0,3.82-6.23,5.58-9.25ZM54.8,365.5l-.17.28a59.68,59.68,0,0,0-3.31,6.86,11.59,11.59,0,0,1,8.09-3.27,1,1,0,0,1,.3-.3.1.1,0,0,1,0-.09,3.15,3.15,0,0,1,6.11,1.55.19.19,0,0,1,0,.1c.74.3,1.41.62,1.94.89C64.32,355.28,58.73,359.49,54.8,365.5Zm50.07-2a54.29,54.29,0,0,0-3.64,8.82,14.21,14.21,0,0,1,3.41-1.5l.85-.22a3.13,3.13,0,0,1,0-.81,2.69,2.69,0,0,1,.14-.54,2.78,2.78,0,0,1,3.58-1.6,2.73,2.73,0,0,1,1.69,2.9,17,17,0,0,1,5.18,1.94C112.49,356.77,108.12,358.56,104.87,363.51Z"/><path class="cls-18" d="M104.87,363.51c3.25-4.95,7.62-6.74,11.18,9a12.05,12.05,0,0,1,1.67,1C113.67,352.8,108.36,357.12,104.87,363.51Z"/></g><g id="Ghost"><path class="cls-20" d="M124.83,272.45H45.91a1.38,1.38,0,0,1-1.52-1.34l5-63.64c0-16.47,16.06-29.82,35.88-29.82h0c19.81,0,35.87,13.35,35.87,29.82l5,63.78A1.24,1.24,0,0,1,124.83,272.45Z"/><path class="cls-21" d="M103,274.25c-3.59,1.31-13.63,1.4-19,1.4a50.52,50.52,0,0,1-12.08-1.29,40.63,40.63,0,0,0-8.74-.88c-.73,0-1.47,0-2.24,0-8.49,0-16.65-.36-16.65-2.13,0-3.2,10.72-6.2,19.21-6.2h.62a37.68,37.68,0,0,0,7.12-.69,69.78,69.78,0,0,1,14.05-1.44,61.72,61.72,0,0,1,14,1.44,23.83,23.83,0,0,0,5.72.7h.79c8.49,0,20.5,4.43,20.5,6.2s-4.49.53-13.21,1.59C112.92,273,106.43,273,103,274.25Z"/><ellipse class="cls-22" cx="73.21" cy="195.32" rx="3.29" ry="2.6"/><ellipse class="cls-22" cx="97.37" cy="195.32" rx="3.29" ry="2.6"/><path class="cls-22" d="M81.34,203.31a9,9,0,0,1,7.89,0h0l1.91,1c1,.53.65,1.59-.61,1.78-.83.13-3-.76-5.24-.78s-4.37.85-5.06.81c-1.39-.09-1.94-1.2-.87-1.77l2-1.07Z"/><path class="cls-23" d="M67.53,264.47c2-4.81,4.17-9.55,5.78-14.48a45.74,45.74,0,0,0,1.78-7.57,65.39,65.39,0,0,0,.59-7.78,65.84,65.84,0,0,1-.35,7.81,44.65,44.65,0,0,1-1.54,7.68c-1.47,5-3.5,9.85-5.34,14.71Z"/><path class="cls-23" d="M100.84,265.26l-2.47-6.74c-.8-2.25-1.57-4.52-2.17-6.85a38.08,38.08,0,0,1-1.15-7.1c-.17-2.38-.17-4.78-.14-7.16,0,2.38.14,4.77.39,7.14a37.76,37.76,0,0,0,1.38,7c.67,2.28,1.52,4.5,2.4,6.72l2.69,6.64Z"/></g><g id="Candy_Corn" data-name="Candy Corn"><path class="cls-24" d="M101,1006.4c-1.54-.92-3-1.84-4.52-2.8a99,99,0,0,1-22.93-20.11l-1.11-1.39a84.47,84.47,0,0,1-15-29.15,291.58,291.58,0,0,1,36.41-11.89l0,0a57,57,0,0,0,10.74,17h0a60.84,60.84,0,0,0,14,11.3c1.31.81,2.69,1.56,4.09,2.28v0A228.94,228.94,0,0,1,101,1006.4Z"/><path class="cls-25" d="M43,959.35l.47-.23c4.55-2.19,9.22-4.24,14-6.17a88.86,88.86,0,0,0,15,29.15l1.11,1.39a94.66,94.66,0,0,0,22.91,20.15c1.48,1,3,1.86,4.54,2.76q-5.26,6.87-11,13.18C77.56,1032.83,29.2,970.79,43,959.35Z"/><path class="cls-26" d="M122.79,971.68h0v0q-2.08-1.12-4-2.33a67.67,67.67,0,0,1-14.07-11.25h0a52,52,0,0,1-10.74-17l0,0c19.49-6.51,33.45-8.84,38.61-4.46.17.16.35.32.51.49,3.9,3.1-.38,15.62-10.12,34.38Z"/><path class="cls-27" d="M43,959.35l.47-.23c1.13,8.68,5.37,20.69,17.45,34.81,21.22,24.79,31.26,15.58,35.5,9.71a.05.05,0,0,0,0,0c.79-1.09,1.38-2.08,1.8-2.69,1.32-1.93,11.5-16.38,20.41-31.52l0,0c7.55-12.82,14.19-26.12,13.77-32.74.17.16.35.32.51.49,3.9,3.1-.38,15.62-10.12,34.38l-.09.21h0A228.94,228.94,0,0,1,101,1006.4q-5.26,6.87-11,13.18C77.56,1032.83,29.2,970.79,43,959.35Z"/><g class="cls-28"><path class="cls-2" d="M48.29,961.09q8.63-3.71,17.41-7t17.65-6.38l8.9-3c3-.93,6-1.91,9-2.76s6-1.73,9.06-2.49c1.53-.35,3-.75,4.59-1,.77-.15,1.54-.32,2.31-.44l2.34-.24-2.29.49-2.25.63c-1.51.4-3,.93-4.47,1.4q-4.45,1.44-8.88,3l-17.72,6.09-17.76,6Q57.27,958.33,48.29,961.09Z"/></g></g><g id="Bat"><circle class="cls-29" cx="87.5" cy="75.05" r="30.78"/><circle class="cls-30" cx="87.5" cy="75.05" r="49.87" transform="translate(-27.44 83.85) rotate(-45)"/><circle class="cls-31" cx="87.5" cy="75.05" r="40.32" transform="translate(-27.44 83.85) rotate(-45)"/><circle class="cls-32" cx="87.5" cy="75.05" r="30.78"/><path class="cls-33" d="M102.18,41.26c2.08,4.59-4.11,12.3-14.37,18.53a7.33,7.33,0,0,1-2.47.92,9.19,9.19,0,0,0-1.29-4.86s.66,3.19-.08,5a7.51,7.51,0,0,0-3.79,1.84c-1.9-.57-4-3-4-3a9.21,9.21,0,0,0,3,4,7.14,7.14,0,0,1-2.3,1.43c-11.21,4.29-21.09,4.46-23.45,0C45,76.23,42.3,89.23,47.51,99.88l.34.66a20.27,20.27,0,0,1,9.69-10.35A20.74,20.74,0,0,1,74.87,90a19.81,19.81,0,0,1,6-4.51c3.91-1.91,11.91-2.49,15.87,5.6-4-8.09,1.41-14.06,5.31-16a19.53,19.53,0,0,1,7.22-2A20.69,20.69,0,0,1,120,59.58a20.15,20.15,0,0,1,13.38-1.49h0C128.26,47.29,116.24,41.4,102.18,41.26Z"/><path class="cls-34" d="M93.37,84.26A14.27,14.27,0,0,0,80,83.67a21.85,21.85,0,0,0-5.6,4,22.38,22.38,0,0,0-17.69.77,21.81,21.81,0,0,0-8.59,7.55c-2.73-8.42-.74-18.41,5.58-27.64,4.81,3.57,15,2.14,24-1.32a6.88,6.88,0,0,0,.74-.32,9.42,9.42,0,0,0,2.19-1.49l1.69-1.54c.17-.1.35-.2.54-.29a4.69,4.69,0,0,1,.46-.21h0l2.45-.46a9.63,9.63,0,0,0,2.43-.8c.24-.12.47-.25.7-.39,8.25-5,15.62-12.16,15.74-18.14,11,.66,20,5.08,25.06,12.23a21.84,21.84,0,0,0-10.49,2.2,22.42,22.42,0,0,0-11.46,13.51,21.79,21.79,0,0,0-6.56,2A14.31,14.31,0,0,0,93.37,84.26Z"/></g><g id="Eyeball"><path class="cls-35" d="M61.84,753,41.72,711.35l94.07-62.21,17.85,23.94c-.2,1.53,1,57,.76,58.48-6.09,34.67-7.11,18.83-27.66,18.83"/><circle id="Cornea" class="cls-2" cx="85.28" cy="675" r="56.73"/><path id="Shadow" class="cls-36" d="M142,675a56.55,56.55,0,0,1-1.83,14.32c-.13.54-.29,1.08-.45,1.62a55.91,55.91,0,0,1-9.82,19,22.44,22.44,0,0,1-1.58,1.95A56.92,56.92,0,0,1,105.62,728c-.61.25-1.25.48-1.88.68a56.59,56.59,0,0,1-18.45,3.08c-1.56,0-3.12-.07-4.66-.18-.54,0-1.11-.12-1.67-.16a56.89,56.89,0,0,1-37.43-20.26,58.38,58.38,0,0,0,37.45,14,4.86,4.86,0,0,0,.66,0,7.68,7.68,0,0,0,.83,0,58,58,0,0,0,24.17-5.56c.91-.43,1.81-.88,2.7-1.36a58.74,58.74,0,0,0,14.49-10.94c.52-.52,1-1,1.49-1.58a59.39,59.39,0,0,0,9-13.16c.27-.52.52-1.07.77-1.63a58.5,58.5,0,0,0,5.31-22.14c0-.61,0-1.22,0-1.83a5.24,5.24,0,0,0,0-.56,57.19,57.19,0,0,0-2.51-17,55.23,55.23,0,0,1,5.54,17.45c.09.57.16,1.11.23,1.68A55.09,55.09,0,0,1,142,675Z"/><g id="Iris"><path class="cls-37" d="M100.57,661.57a25.07,25.07,0,0,1-.18,3,23.52,23.52,0,0,1-1,4.7,24.82,24.82,0,0,1-3.92,7.62,23.56,23.56,0,0,1-3.21,3.55,25.6,25.6,0,0,1-7.14,4.62,24.57,24.57,0,0,1-4.59,1.47h0A24.62,24.62,0,0,1,72,687a23.52,23.52,0,0,1-4.7-1A25,25,0,0,1,59.67,682a23.63,23.63,0,0,1-3.55-3.22,25.35,25.35,0,0,1-4.61-7.14A23.86,23.86,0,0,1,50,667.09v0a24.4,24.4,0,0,1-.61-5.5,25.07,25.07,0,0,1,.18-3,23.83,23.83,0,0,1,1-4.7,24.82,24.82,0,0,1,3.92-7.62,23.56,23.56,0,0,1,3.21-3.55,25.35,25.35,0,0,1,7.14-4.61,23.86,23.86,0,0,1,4.59-1.47h0A24.25,24.25,0,0,1,75,636a25.07,25.07,0,0,1,3,.18,22.86,22.86,0,0,1,4.7,1,24.58,24.58,0,0,1,7.62,3.91,23.56,23.56,0,0,1,3.55,3.21,25.35,25.35,0,0,1,4.61,7.14,23.86,23.86,0,0,1,1.47,4.59v0A24.25,24.25,0,0,1,100.57,661.57Z"/><g class="cls-38"><path class="cls-2" d="M100.57,661.57a25.07,25.07,0,0,1-.18,3,9.75,9.75,0,0,1-3.66.63l-12.26-1.78c-3.64-.55-3.82-2.9-.27-3.94L96.07,656a12.45,12.45,0,0,1,3.89,0v0A24.25,24.25,0,0,1,100.57,661.57Z"/><path class="cls-2" d="M98.49,651.46a9.42,9.42,0,0,1-2.85,2.4l-11.5,4.57c-3.44,1.38-4.75-.59-2.2-3.26l8.53-8.95a11.41,11.41,0,0,1,3.41-1.9A25.35,25.35,0,0,1,98.49,651.46Z"/><path class="cls-2" d="M90.33,641.11A10.46,10.46,0,0,1,89,644.59l-7.67,9.7c-2.3,2.89-4.43,1.85-3.55-1.72l2.92-12a11.87,11.87,0,0,1,2-3.34A24.58,24.58,0,0,1,90.33,641.11Z"/><path class="cls-2" d="M78.64,639.84,76.85,652.1c-.54,3.64-2.89,3.82-3.93.27L69.44,640.5a12.15,12.15,0,0,1,0-3.89h0A24.25,24.25,0,0,1,75,636a25.07,25.07,0,0,1,3,.18A10,10,0,0,1,78.64,639.84Z"/><path class="cls-2" d="M68.6,654.63l-8.95-8.53a11.41,11.41,0,0,1-1.9-3.41,25.35,25.35,0,0,1,7.14-4.61,9.42,9.42,0,0,1,2.4,2.85l4.57,11.51C73.24,655.87,71.27,657.18,68.6,654.63Z"/><path class="cls-2" d="M66,658.77l-12-2.92a12.09,12.09,0,0,1-3.35-2,24.82,24.82,0,0,1,3.92-7.62A10.54,10.54,0,0,1,58,647.55l9.7,7.67C70.61,657.52,69.57,659.65,66,658.77Z"/><path class="cls-2" d="M65.8,663.65l-11.87,3.48a12.15,12.15,0,0,1-3.89,0v0a24.4,24.4,0,0,1-.61-5.5,25.07,25.07,0,0,1,.18-3,10,10,0,0,1,3.66-.63l12.26,1.79C69.17,660.26,69.35,662.61,65.8,663.65Z"/><path class="cls-2" d="M68.06,668l-8.53,8.95a11.19,11.19,0,0,1-3.41,1.9,25.35,25.35,0,0,1-4.61-7.14,9.56,9.56,0,0,1,2.85-2.4l11.5-4.57C69.3,663.34,70.61,665.3,68.06,668Z"/><path class="cls-2" d="M72.2,670.57l-2.92,12a11.94,11.94,0,0,1-2,3.35A25,25,0,0,1,59.67,682,10.5,10.5,0,0,1,61,678.55l7.67-9.7C71,666,73.08,667,72.2,670.57Z"/><path class="cls-2" d="M80.52,686.54h0A24.62,24.62,0,0,1,72,687a9.92,9.92,0,0,1-.63-3.66l1.79-12.25c.54-3.64,2.89-3.83,3.93-.28l3.48,11.88A12.16,12.16,0,0,1,80.52,686.54Z"/><path class="cls-2" d="M92.25,680.45a25.6,25.6,0,0,1-7.14,4.62,9.67,9.67,0,0,1-2.4-2.85l-4.57-11.51c-1.38-3.44.59-4.75,3.26-2.2L90.35,677A11.41,11.41,0,0,1,92.25,680.45Z"/><path class="cls-2" d="M99.38,669.28a24.82,24.82,0,0,1-3.92,7.62A10.54,10.54,0,0,1,92,675.59l-9.7-7.66c-2.89-2.31-1.85-4.44,1.72-3.55l12,2.91A12.09,12.09,0,0,1,99.38,669.28Z"/></g></g><circle id="Pupil" class="cls-39" cx="75" cy="661.57" r="9.43"/><g id="veins"><path class="cls-40" d="M80.47,725.13l.16,6.43c-.54,0-1.11-.12-1.67-.16l0-6.27v-2.8L68.33,710.78l4.68-5-3.89,5.38,11.28,11Z"/><path class="cls-40" d="M107.34,718.21l.27.07-2,9.7c-.61.25-1.25.48-1.88.68l2.42-8.66-1.52-.43L89.2,715.12l5.27-8.26-3.57,7.58Z"/><path class="cls-40" d="M123.32,705.69l6.6,4.29a22.44,22.44,0,0,1-1.58,1.95l-6.51-4.66-11.35-8.12-14.65-2.58L100.57,686l-2.3,9.74,13.29,2.4Z"/><path class="cls-40" d="M133.05,690.9l7.14-1.58c-.13.54-.29,1.08-.45,1.62l-7.46,1.59-3.15.65-4.29-8.7,4.79,7.17Z"/><path class="cls-40" d="M125.7,665.85l-7.17.42,7.71-1.49,3.1,2.4,9-.25,3.05-.07c.09.57.16,1.11.23,1.68l-3.3.22-8.48.61Z"/></g><g id="highlights"><path id="highlight" class="cls-41" d="M63.47,644.32C61.23,651.54,74.61,662,80.6,651.6S66,636,63.47,644.32Z"/><path id="highlight-2" data-name="highlight" class="cls-41" d="M56,654.87c-.71,2.31,3.56,5.66,5.48,2.33S56.84,652.23,56,654.87Z"/></g></g><g id="Witch_Hat" data-name="Witch Hat"><path class="cls-42" d="M135.74,562.35c0,7.47-21.6,13.53-48.24,13.53s-48.24-6.06-48.24-13.53c0-1.9,1.39-3.71,3.9-5.34,4.78-3.11,13.6-5.63,24.62-7a157,157,0,0,1,19.72-1.19C114.14,548.82,135.74,554.88,135.74,562.35Z"/><path class="cls-42" d="M114,558.23c0,2.45-4.23,4.61-10.74,5.95a66.31,66.31,0,0,1-9,1.2c-2.06.16-4.23.24-6.45.24h-.12c-14.49,0-26.26-3.31-26.26-7.39a2.94,2.94,0,0,1,1-2.05,18.91,18.91,0,0,0,1.86-2,12.27,12.27,0,0,0,1.1-1.57L72,541.42a29.78,29.78,0,0,0,4-15,29.43,29.43,0,0,0-1.4-9,29.78,29.78,0,0,1,5.71-28.32l11.25-13.2-2.8,12.32a29.72,29.72,0,0,0,5.35,24.63l6.8,8.92A29.73,29.73,0,0,1,106,532.2l5.09,19.25a15.6,15.6,0,0,0,1,2.68c.46,1,1,2,1.56,2.9A2.34,2.34,0,0,1,114,558.23Z"/><path class="cls-43" d="M87.83,565.62h-.12c-14.49,0-26.26-3.31-26.26-7.39a2.94,2.94,0,0,1,1-2.05,18.91,18.91,0,0,0,1.86-2,12.27,12.27,0,0,0,1.1-1.57L72,541.42a29.78,29.78,0,0,0,4-15,29.43,29.43,0,0,0-1.4-9,29.78,29.78,0,0,1,5.71-28.32l11.25-13.2c-13.63,17.75-14.66,22.39-15.36,29.6s5.24,15.13,5.36,22.34S75.38,545.51,75,556a3.39,3.39,0,0,0,.48,1.8C77,560.45,81.7,563.13,87.83,565.62Z"/><path class="cls-9" d="M104.58,557c-.39,2.87-.94,5.46-1.35,7.2a66.31,66.31,0,0,1-9,1.2c1-1.77,2.48-3.28,3.78-7.07l0-.1c5.82-17.23-13.35-28.46-20-50.47-2.42-8,7.55-20.69,8.11-21.38-12.16,20.79-1.42,29.29,5,36.69,8.84,10.28,12.14,14.55,13.53,22.92A39.14,39.14,0,0,1,104.58,557Z"/><g class="cls-44"><path d="M114,558.23c0,2.45-4.23,4.61-10.74,5.95a66.31,66.31,0,0,1-9,1.2c-2.06.16-4.23.24-6.45.24h-.12c-14.49,0-26.26-3.31-26.26-7.39a2.94,2.94,0,0,1,1-2.05,18.91,18.91,0,0,0,1.86-2,34.16,34.16,0,0,0,11.17,3.64,71.46,71.46,0,0,0,12.67,1.05,75,75,0,0,0,9.92-.62,53.29,53.29,0,0,0,6.48-1.23,28.59,28.59,0,0,0,7.48-2.85c.46,1,1,2,1.56,2.9A2.34,2.34,0,0,1,114,558.23Z"/></g><path class="cls-45" d="M90.56,566.46H86.72a4.72,4.72,0,0,1,0-9.44,3,3,0,0,0,3.84,0,4.72,4.72,0,0,1,0,9.44Zm-3.84-8.26a3.54,3.54,0,0,0,0,7.08h3.84a3.54,3.54,0,1,0,0-7.08A4.23,4.23,0,0,1,86.72,558.2Z"/><path class="cls-34" d="M90.56,566.46H86.72A4.72,4.72,0,0,1,82,561.74a.59.59,0,1,1,1.17,0,3.55,3.55,0,0,0,3.54,3.54h3.84a3.55,3.55,0,0,0,3.55-3.54.59.59,0,1,1,1.17,0A4.72,4.72,0,0,1,90.56,566.46Z"/><path class="cls-45" d="M87.48,562a8.14,8.14,0,0,1,1.77-.55,9.77,9.77,0,0,1,1.8-.06l1.83,0a4.08,4.08,0,0,1,1.84.35.07.07,0,0,1,0,.08.09.09,0,0,1-.07,0h0a4,4,0,0,0-1.73.14l-1.78.37a6.53,6.53,0,0,1-1.82.29,3.81,3.81,0,0,1-1.85-.5.08.08,0,0,1,0-.09Z"/><path class="cls-46" d="M73.52,561.57l-3.7,2.07L43.16,557c4.78-3.11,13.6-5.63,24.62-7C70.46,555.34,73.52,561.57,73.52,561.57Z"/></g><g id="Skull"><circle class="cls-47" cx="87.5" cy="824.29" r="38.83"/><circle class="cls-48" cx="87.5" cy="824.29" r="62.91" transform="translate(-557.23 303.3) rotate(-45)"/><circle class="cls-49" cx="87.5" cy="824.29" r="50.87" transform="translate(-557.23 303.3) rotate(-45)"/><circle class="cls-47" cx="87.5" cy="824.29" r="38.83"/><path class="cls-50" d="M116.47,849.42c-5.32,12.71-16.3,21.43-29,21.43-10.14,0-19.2-5.59-25.14-14.34a40.13,40.13,0,0,1-3.83-7.09h0a30.55,30.55,0,0,0,2.57-6.15,29.28,29.28,0,0,0,3.58,6.13l-1,2.65a2.78,2.78,0,0,0,1.66,3.55,2.78,2.78,0,0,0,3.55-1.66h0a28.52,28.52,0,0,0,2.47,1.91l-.4,2.26a2.77,2.77,0,0,0,5.45,1l.07-.41a27.22,27.22,0,0,0,3.11,1.09V862a2.77,2.77,0,1,0,5.53,0v-1.29c.77.07,1.55.1,2.34.1a25.84,25.84,0,0,0,2.65-.13V862a2.77,2.77,0,0,0,5.54,0v-2.4a25.17,25.17,0,0,0,3.08-1.13l.1.54a2.77,2.77,0,0,0,5.45-1l-.44-2.46a26.5,26.5,0,0,0,2.44-1.93l.08.23a2.77,2.77,0,1,0,5.21-1.89l-1.07-2.94a29.35,29.35,0,0,0,3.36-5.84A31.84,31.84,0,0,0,116.47,849.42Z"/><path class="cls-50" d="M132.42,800.46c-.12-.33-.24-.67-.37-1a22.54,22.54,0,0,0-1.38-3,30.09,30.09,0,0,0-1.77-2.82c-.22-.31-.44-.61-.67-.91l-.53-.67c-.36-.44-.74-.88-1.13-1.3l-.6-.64-.83-.83c-.28-.28-.57-.55-.87-.82-.58-.53-1.2-1.06-1.83-1.57s-1.29-1-2-1.49-1.38-.94-2.1-1.39c-.51-.32-1-.63-1.57-.93l-.23-.14c-.31-.18-.64-.36-1-.52-.54-.3-1.08-.58-1.64-.84l-.28-.13-.75-.36c-.52-.24-1-.47-1.59-.7a64.18,64.18,0,0,0-47.72,0c-13.36,5.61-22.3,15.78-22.3,27.4,0,8.12,4.36,15.52,11.53,21.16a10.06,10.06,0,0,1,2.44-2,4.62,4.62,0,0,1,2.81-.67,3.13,3.13,0,0,1,.92.25.84.84,0,0,1,.23.12c2,1,3.09,4,3.13,8a28.41,28.41,0,0,1-.77,6.58h0a23.15,23.15,0,0,0,4.21,4.91l.36-1a2.77,2.77,0,0,1,2.6-1.83,2.84,2.84,0,0,1,.95.17,2.77,2.77,0,0,1,1.65,3.55l-.88,2.42q.88.51,1.83,1l.28-1.58a2.75,2.75,0,0,1,2.71-2.28,2.7,2.7,0,0,1,.49,0,2.77,2.77,0,0,1,2.25,3.2l-.46,2.61c.66.19,1.34.36,2,.51v-.85a2.77,2.77,0,1,1,5.53,0v1.62c.77.06,1.55.08,2.34.08s1.78,0,2.65-.1v-1.6a2.77,2.77,0,1,1,5.54,0v.78c.68-.15,1.35-.33,2-.52l-.45-2.53a2.76,2.76,0,0,1,2.25-3.2,2.7,2.7,0,0,1,.49,0,2.75,2.75,0,0,1,2.71,2.28l.25,1.44c.62-.3,1.22-.63,1.8-1l-.83-2.27a2.78,2.78,0,0,1,1.66-3.55,2.92,2.92,0,0,1,.71-.16h.24a2.77,2.77,0,0,1,2.6,1.83l.27.75h0l.35-.34a23.64,23.64,0,0,0,1.7-1.78,20.2,20.2,0,0,0,1.92-2.57,28.49,28.49,0,0,1-.77-6.59c0-4,1.16-7,3.13-8a.78.78,0,0,1,.22-.12h0a.35.35,0,0,1,.13-.05l.33-.12a3.11,3.11,0,0,1,.44-.08h.21a3.08,3.08,0,0,1,.8,0l.45.09.35.11.1,0a3.89,3.89,0,0,1,.6.26h0l.31.16a10,10,0,0,1,2.43,2h0c7.17-5.64,11.53-13,11.53-21.16A22.53,22.53,0,0,0,132.42,800.46Zm-83.89,11c0-2.19,2.08-5.4,5.1-8.26.46-.43.94-.86,1.43-1.27h0c3.48-2.87,7.8-5.12,11.65-5.12,8,0,14.56,8.93,14.56,13.77,0,3.95-6.76,7.88-13.61,9.19a23.51,23.51,0,0,1-4.58.47c-.48,0-1,0-1.43,0C54.29,819.8,48.53,816.05,48.53,811.5Zm39,30.2a5,5,0,0,0-1,.12h0c-2.4.52-4.2,2.21-4.2-3.07a14.9,14.9,0,0,1,.15-2c0-.24.07-.49.11-.74a4.54,4.54,0,0,1,.09-.51c0-.29.11-.59.17-.89s.17-.77.26-1.17q.28-1.2.63-2.43l.16-.58c.24-.83.5-1.65.75-2.45.06-.2.13-.4.19-.59.26-.78.52-1.54.76-2.25.16-.48.33-1,.49-1.39.09-.22.17-.44.24-.65l.22-.6c.14-.35.26-.67.37-1,.42-1.08.68-1.72.68-1.72s5.27,12.9,5.27,18.94S90.41,841.7,87.5,841.7Zm25.91-21.61h0a23.17,23.17,0,0,1-2.93.18,23.79,23.79,0,0,1-4.54-.46c-6.87-1.3-13.65-5.24-13.65-9.2,0-4.84,6.52-13.77,14.55-13.77,3.49,0,7.37,1.84,10.65,4.33a29.82,29.82,0,0,1,2.61,2.24c2.94,2.81,4.94,5.94,4.94,8.09C125,815.73,120,819.27,113.41,820.09Z"/><g class="cls-51"><path class="cls-52" d="M63.71,852a2.74,2.74,0,0,0,.21,2.33c-.54.7-1.06,1.42-1.56,2.14a40.13,40.13,0,0,1-3.83-7.09h0a30.55,30.55,0,0,0,2.57-6.15,29.28,29.28,0,0,0,3.58,6.13Z"/><path class="cls-52" d="M71.31,845a2.73,2.73,0,0,0-1.57-1.46,2.84,2.84,0,0,0-.95-.17,2.77,2.77,0,0,0-2.6,1.83l-.36,1a23.15,23.15,0,0,1-4.21-4.91h0a28.41,28.41,0,0,0,.77-6.58c0-4-1.16-7-3.13-8a.84.84,0,0,0-.23-.12,3.13,3.13,0,0,0-.92-.25,4.62,4.62,0,0,0-2.81.67,10.06,10.06,0,0,0-2.44,2c-7.17-5.64-11.53-13-11.53-21.16,0-11.62,8.94-21.79,22.3-27.4-6.39,5.88-9.89,11.83-10,22.79-3,2.86-5.1,6.07-5.1,8.26,0,4.55,5.76,8.3,13.13,8.72,5.87,4.69,12.87,7.36,13.33,13.93C75.27,838.15,73.64,841.66,71.31,845Z"/></g><g class="cls-53"><path class="cls-54" d="M111.27,852a2.74,2.74,0,0,1-.21,2.33c.54.7,1.06,1.42,1.56,2.14a40.13,40.13,0,0,0,3.83-7.09h0a30.55,30.55,0,0,1-2.57-6.15,29.28,29.28,0,0,1-3.58,6.13Z"/><path class="cls-54" d="M133.65,807.85c0,8.12-4.36,15.51-11.52,21.15h0a10.06,10.06,0,0,0-2.44-2l-.29-.16h0a3.89,3.89,0,0,0-.6-.26l-.1,0-.35-.11-.45-.09a3.08,3.08,0,0,0-.8,0h-.21l-.44.08-.33.12a.35.35,0,0,0-.13.05s0,0,0,0a.84.84,0,0,0-.23.12c-2,1-3.09,4-3.13,8a28.41,28.41,0,0,0,.77,6.58h0a22.11,22.11,0,0,1-1.9,2.57,23.64,23.64,0,0,1-1.7,1.78l-.36.33-.25.23-.36-1a2.75,2.75,0,0,0-2.46-1.82h-.14a2.84,2.84,0,0,0-1,.17,2.73,2.73,0,0,0-1.57,1.46c-2.33-3.37-4-6.88-3.68-10.88.46-6.57,7.46-9.24,13.33-13.93l.08-.13h0c6.63-.82,11.62-4.36,11.62-8.59,0-2.15-2-5.28-4.94-8.09-.11-10.95-2.35-17.08-8.74-23,.54.23,1.07.46,1.59.7l.75.36.28.13c.56.27,1.11.55,1.64.84.32.16.65.34,1,.52l.23.14c.53.3,1.06.61,1.57.93.72.45,1.42.91,2.1,1.39s1.33,1,2,1.49,1.25,1,1.83,1.57c.3.27.59.54.87.82l.83.83c.81.85,1.56,1.72,2.26,2.61.23.3.45.6.67.91a30.09,30.09,0,0,1,1.77,2.82,27.25,27.25,0,0,1,1.38,3c.13.33.25.67.37,1A23.1,23.1,0,0,1,133.65,807.85Z"/></g><path class="cls-55" d="M79,817.93c-1.63,1.05-6.79,1.73-11.28,1.87,6.85-1.31,13.61-5.24,13.61-9.19,0-4.84-6.52-13.77-14.56-13.77-3.85,0-8.17,2.25-11.65,5.12,2.21-2.77,4.57-6,10.56-7.5,7.38-1.85,17,10.74,18,13.51S81.71,816.15,79,817.93Z"/><path class="cls-52" d="M92.28,810.61c0,4,6.78,7.9,13.65,9.2-4.58-.11-7.47,3.79-9.45.36-1.64-2.85-8.77-5.4-7.78-8.17s11.48-19.39,18.86-17.55a16.71,16.71,0,0,1,9.92,6.72c-3.28-2.49-7.16-4.33-10.65-4.33C98.8,796.84,92.28,805.77,92.28,810.61Z"/><path class="cls-52" d="M86.43,841.82c-3.39,1.32-4.41,3-6,1.69-1.45-1.13,3.74-15.06,6-21l-.22.6c-.07.21-.15.43-.24.65-.16.44-.33.91-.49,1.39-.24.71-.5,1.47-.76,2.25-.06.19-.13.39-.19.59-.25.8-.51,1.62-.75,2.45l-.16.58q-.35,1.23-.63,2.43c-.1.39-.18.79-.26,1.17s-.12.6-.17.89a4.54,4.54,0,0,0-.09.51c0,.25-.08.5-.11.74a14.9,14.9,0,0,0-.15,2C82.23,844,84,842.34,86.43,841.82Z"/></g><rect class="cls-2" x="3.17" y="10" width="16" height="10" rx="1.96"/><rect class="cls-2" x="3.17" y="40" width="16" height="10" rx="1.96"/><rect class="cls-2" x="3.17" y="70" width="16" height="10" rx="1.96"/><rect class="cls-2" x="3.17" y="100" width="16" height="10" rx="1.96"/><rect class="cls-2" x="3.17" y="130" width="16" height="10" rx="1.96"/><rect class="cls-2" x="3.17" y="160" width="16" height="10" rx="1.96"/><rect class="cls-2" x="3.17" y="190" width="16" height="10" rx="1.96"/><rect class="cls-2" x="3.17" y="220" width="16" height="10" rx="1.96"/><rect class="cls-2" x="3.17" y="250" width="16" height="10" rx="1.96"/><rect class="cls-2" x="3.17" y="280" width="16" height="10" rx="1.96"/><rect class="cls-2" x="3.17" y="310" width="16" height="10" rx="1.96"/><rect class="cls-2" x="3.17" y="340" width="16" height="10" rx="1.96"/><rect class="cls-2" x="3.17" y="370" width="16" height="10" rx="1.96"/><rect class="cls-2" x="3.17" y="400" width="16" height="10" rx="1.96"/><rect class="cls-2" x="3.17" y="430" width="16" height="10" rx="1.96"/><rect class="cls-2" x="3.17" y="460" width="16" height="10" rx="1.96"/><rect class="cls-2" x="3.17" y="490" width="16" height="10" rx="1.96"/><rect class="cls-2" x="3.17" y="520" width="16" height="10" rx="1.96"/><rect class="cls-2" x="3.17" y="550" width="16" height="10" rx="1.96"/><rect class="cls-2" x="3.17" y="580" width="16" height="10" rx="1.96"/><rect class="cls-2" x="3.17" y="610" width="16" height="10" rx="1.96"/><rect class="cls-2" x="3.17" y="640" width="16" height="10" rx="1.96"/><rect class="cls-2" x="3.17" y="670" width="16" height="10" rx="1.96"/><rect class="cls-2" x="3.17" y="700" width="16" height="10" rx="1.96"/><rect class="cls-2" x="3.17" y="730" width="16" height="10" rx="1.96"/><rect class="cls-2" x="3.17" y="760" width="16" height="10" rx="1.96"/><rect class="cls-2" x="3.17" y="790" width="16" height="10" rx="1.96"/><rect class="cls-2" x="3.17" y="820" width="16" height="10" rx="1.96"/><rect class="cls-2" x="3.17" y="850" width="16" height="10" rx="1.96"/><rect class="cls-2" x="3.17" y="880" width="16" height="10" rx="1.96"/><rect class="cls-2" x="3.17" y="910" width="16" height="10" rx="1.96"/><rect class="cls-2" x="3.17" y="940" width="16" height="10" rx="1.96"/><rect class="cls-2" x="3.17" y="970" width="16" height="10" rx="1.96"/><rect class="cls-2" x="3.17" y="1000" width="16" height="10" rx="1.96"/><rect class="cls-2" x="3.17" y="1030" width="16" height="10" rx="1.96"/><rect class="cls-2" x="3.17" y="1060" width="16" height="10" rx="1.96"/><rect class="cls-2" x="3.17" y="1090" width="16" height="10" rx="1.96"/><rect class="cls-2" x="3.17" y="1120" width="16" height="10" rx="1.96"/><rect class="cls-2" x="3.17" y="1150" width="16" height="10" rx="1.96"/><rect class="cls-2" x="3.17" y="1180" width="16" height="10" rx="1.96"/><rect class="cls-2" x="156.17" y="10" width="16" height="10" rx="1.96"/><rect class="cls-2" x="156.17" y="40" width="16" height="10" rx="1.96"/><rect class="cls-2" x="156.17" y="70" width="16" height="10" rx="1.96"/><rect class="cls-2" x="156.17" y="100" width="16" height="10" rx="1.96"/><rect class="cls-2" x="156.17" y="130" width="16" height="10" rx="1.96"/><rect class="cls-2" x="156.17" y="160" width="16" height="10" rx="1.96"/><rect class="cls-2" x="156.17" y="190" width="16" height="10" rx="1.96"/><rect class="cls-2" x="156.17" y="220" width="16" height="10" rx="1.96"/><rect class="cls-2" x="156.17" y="250" width="16" height="10" rx="1.96"/><rect class="cls-2" x="156.17" y="280" width="16" height="10" rx="1.96"/><rect class="cls-2" x="156.17" y="310" width="16" height="10" rx="1.96"/><rect class="cls-2" x="156.17" y="340" width="16" height="10" rx="1.96"/><rect class="cls-2" x="156.17" y="370" width="16" height="10" rx="1.96"/><rect class="cls-2" x="156.17" y="400" width="16" height="10" rx="1.96"/><rect class="cls-2" x="156.17" y="430" width="16" height="10" rx="1.96"/><rect class="cls-2" x="156.17" y="460" width="16" height="10" rx="1.96"/><rect class="cls-2" x="156.17" y="490" width="16" height="10" rx="1.96"/><rect class="cls-2" x="156.17" y="520" width="16" height="10" rx="1.96"/><rect class="cls-2" x="156.17" y="550" width="16" height="10" rx="1.96"/><rect class="cls-2" x="156.17" y="580" width="16" height="10" rx="1.96"/><rect class="cls-2" x="156.17" y="610" width="16" height="10" rx="1.96"/><rect class="cls-2" x="156.17" y="640" width="16" height="10" rx="1.96"/><rect class="cls-2" x="156.17" y="670" width="16" height="10" rx="1.96"/><rect class="cls-2" x="156.17" y="700" width="16" height="10" rx="1.96"/><rect class="cls-2" x="156.17" y="730" width="16" height="10" rx="1.96"/><rect class="cls-2" x="156.17" y="760" width="16" height="10" rx="1.96"/><rect class="cls-2" x="156.17" y="790" width="16" height="10" rx="1.96"/><rect class="cls-2" x="156.17" y="820" width="16" height="10" rx="1.96"/><rect class="cls-2" x="156.17" y="850" width="16" height="10" rx="1.96"/><rect class="cls-2" x="156.17" y="880" width="16" height="10" rx="1.96"/><rect class="cls-2" x="156.17" y="910" width="16" height="10" rx="1.96"/><rect class="cls-2" x="156.17" y="940" width="16" height="10" rx="1.96"/><rect class="cls-2" x="156.17" y="970" width="16" height="10" rx="1.96"/><rect class="cls-2" x="156.17" y="1000" width="16" height="10" rx="1.96"/><rect class="cls-2" x="156.17" y="1030" width="16" height="10" rx="1.96"/><rect class="cls-2" x="156.17" y="1060" width="16" height="10" rx="1.96"/><rect class="cls-2" x="156.17" y="1090" width="16" height="10" rx="1.96"/><rect class="cls-2" x="156.17" y="1120" width="16" height="10" rx="1.96"/><rect class="cls-2" x="156.17" y="1150" width="16" height="10" rx="1.96"/><rect class="cls-2" x="156.17" y="1180" width="16" height="10" rx="1.96"/></g></g></svg>